<?xml version="1.0" encoding="utf-8"?>
<!-- Generator: Adobe Illustrator 16.0.0, SVG Export Plug-In . SVG Version: 6.00 Build 0)  -->
<!DOCTYPE svg PUBLIC "-//W3C//DTD SVG 1.0//EN" "http://www.w3.org/TR/2001/REC-SVG-20010904/DTD/svg10.dtd">
<svg version="1.0" id="Layer_2" xmlns="http://www.w3.org/2000/svg" xmlns:xlink="http://www.w3.org/1999/xlink" x="0px" y="0px"
	 width="240px" height="240px" viewBox="0 0 240 240" enable-background="new 0 0 240 240" xml:space="preserve">
<path d="M228.905,169.086l-0.04-0.105c-0.395-0.943-0.789-1.911-1.185-2.881c-0.784-1.925-1.596-3.914-2.395-5.668
	c-0.868-1.944-1.736-3.839-2.583-5.686c-1.002-2.188-1.973-4.308-2.874-6.356l-0.148-0.337l-0.248-0.248
	c-16.908-36.585-34.522-72.438-52.339-106.543l-0.736-1.469c-1.879-3.509-3.797-7.326-5.652-11.018l-0.614-1.111
	c-2.253-4.053-4.582-8.243-8.211-12.319C144.025,5.592,132.493,0,120.234,0c-12.196,0-23.513,5.275-31.893,14.883
	c-3.689,4.406-6.349,8.987-8.795,13.378c-1.854,3.692-3.771,7.51-5.697,11.106l-0.703,1.398
	C53.013,79.812,35.842,114.774,20.68,147.59l-0.281,0.565c-0.895,2.035-1.859,4.139-2.854,6.312
	c-0.852,1.859-1.727,3.769-2.595,5.715c-1.202,2.638-2.415,5.536-3.626,8.667c-3.197,9.062-4.16,17.713-2.939,26.463
	c2.688,18.24,14.976,33.861,32.041,40.752C46.621,238.677,53.346,240,60.417,240c2.089,0,4.643-0.266,6.407-0.489
	c8.438-1.018,16.674-3.803,24.459-8.267c9.304-5.195,18.39-12.659,28.476-23.403c9.738,10.352,19.062,18.015,28.455,23.394
	c7.807,4.474,16.044,7.26,24.471,8.275c1.774,0.225,4.328,0.49,6.417,0.49c7.204,0,14.126-1.365,19.954-3.92
	c17.02-6.774,29.301-22.36,32.066-40.689C232.985,187.199,232.26,178.595,228.905,169.086z M97.262,123.907
	c0.398-3.168,1.569-6.223,3.452-9.038c4.301-6.079,11.329-9.566,19.282-9.566c8.203,0,15.394,3.55,19.253,9.524
	c1.912,2.855,3.083,5.91,3.493,9.159c0.671,4.015,0.433,8.736-0.69,13.656c-2.642,11.61-10.256,25.816-22.066,41.194
	c-11.796-15.159-19.403-29.361-22.042-41.177C96.808,132.455,96.581,127.983,97.262,123.907z M160.606,142.295
	c1.614-7.126,2.016-13.913,1.212-20.835c-1.01-6.278-3.278-11.96-6.735-16.876c-7.751-11.201-20.54-17.625-35.087-17.625
	c-14.161,0-27.273,6.583-35.079,17.614c-3.464,4.926-5.732,10.609-6.744,16.9c-1.06,6.858-0.646,13.89,1.213,20.827
	c3.542,15.513,12.98,32.983,28.059,51.94c-8.922,9.788-17.254,16.757-25.459,21.296c-5.668,3.256-11.325,5.184-17.276,5.892
	c-5.817,0.644-11.688-0.128-17.084-2.228c-11.005-4.473-18.819-14.47-20.388-26.063c-0.73-6.055-0.083-11.625,2.035-17.528
	l0.032-0.098c0.46-1.527,1.14-3.07,1.928-4.855c0.354-0.803,0.721-1.636,1.075-2.481c1.693-3.852,3.682-8.058,5.415-11.723
	l0.265-0.527c17.324-37.244,34.88-72.914,52.197-106.048l0.687-1.373c0.958-1.786,1.916-3.633,2.874-5.479
	c0.941-1.815,1.883-3.63,2.849-5.434c2.06-4.101,4.149-7.375,6.366-9.986c4.643-5.282,10.699-8.074,17.513-8.074
	c6.813,0,12.869,2.792,17.489,8.048c2.237,2.634,4.326,5.909,6.411,10.057c0.928,1.733,1.856,3.523,2.784,5.313
	c0.971,1.872,1.943,3.745,2.889,5.506l0.721,1.437c18.053,35.231,35.469,70.848,51.767,105.873v0.266l0.21,0.417
	c0.93,1.85,1.826,3.874,2.693,5.83c0.874,1.975,1.778,4.014,2.736,5.927c0.359,0.855,0.717,1.668,1.062,2.452
	c0.788,1.785,1.468,3.328,1.932,4.868c1.944,6.286,2.452,11.787,1.593,17.348c-1.572,11.622-9.386,21.619-20.404,26.098
	c-5.206,2.157-11.066,2.912-17.053,2.226c-5.974-0.716-11.631-2.645-17.322-5.91c-7.861-4.351-15.963-11.134-25.413-21.285
	C147.59,175.38,157.021,157.993,160.606,142.295z"/>
</svg>
