<?xml version="1.0" encoding="iso-8859-1"?>
<!-- Generator: Adobe Illustrator 16.0.0, SVG Export Plug-In . SVG Version: 6.00 Build 0)  -->
<!DOCTYPE svg PUBLIC "-//W3C//DTD SVG 1.1//EN" "http://www.w3.org/Graphics/SVG/1.1/DTD/svg11.dtd">
<svg version="1.1" xmlns="http://www.w3.org/2000/svg" xmlns:xlink="http://www.w3.org/1999/xlink" x="0px" y="0px" width="240px"
	 height="240px" viewBox="0 0 240 240" style="enable-background:new 0 0 240 240;" xml:space="preserve">
<g id="Layer_1">
</g>
<g id="Layer_2">
	<g>
		<path d="M225.215,162.027c-1.931-4.321-3.861-8.409-5.553-12.253l-0.238-0.239c-16.651-36.04-34.511-72.554-53.334-108.585
			l-0.723-1.444c-1.931-3.604-3.861-7.448-5.792-11.292c-2.416-4.327-4.829-8.888-8.689-13.214
			c-7.722-9.609-18.823-14.893-30.647-14.893c-12.067,0-22.926,5.284-30.891,14.415c-3.62,4.322-6.274,8.888-8.688,13.214
			c-1.93,3.844-3.861,7.688-5.792,11.292l-0.724,1.439c-18.582,36.037-36.682,72.553-53.333,108.59l-0.241,0.479
			c-1.689,3.843-3.621,7.926-5.552,12.252c-1.205,2.645-2.413,5.527-3.62,8.648c-3.137,8.888-4.103,17.297-2.896,25.945
			c2.655,18.019,14.722,33.156,31.373,39.881c6.274,2.645,12.79,3.844,19.548,3.844c1.931,0,4.344-0.239,6.274-0.482
			c7.963-0.961,16.168-3.6,24.132-8.165c9.896-5.526,19.307-13.453,29.924-24.984c10.62,11.531,20.271,19.458,29.925,24.984
			c7.965,4.565,16.168,7.204,24.134,8.165c1.931,0.243,4.344,0.482,6.274,0.482c6.757,0,13.513-1.199,19.547-3.844
			c16.894-6.725,28.717-22.101,31.373-39.881c1.93-8.409,0.965-16.813-2.172-25.706C227.628,167.793,226.42,164.672,225.215,162.027
			z M119.996,183.169c-13.031-16.336-21.478-31.712-24.375-44.682c-1.206-5.526-1.447-10.331-0.723-14.657
			c0.482-3.844,1.931-7.21,3.861-10.095c4.585-6.481,12.307-10.57,21.236-10.57c8.93,0,16.892,3.846,21.236,10.57
			c1.931,2.885,3.378,6.25,3.862,10.095c0.723,4.326,0.482,9.37-0.724,14.657C141.473,151.218,133.028,166.594,119.996,183.169z
			 M216.287,194.46c-1.69,12.492-10.139,23.307-21.961,28.111c-5.793,2.4-12.069,3.121-18.34,2.4
			c-6.035-0.723-12.069-2.644-18.342-6.244c-8.689-4.81-17.377-12.253-27.513-23.306c15.928-19.458,25.58-37.238,29.202-53.091
			c1.688-7.449,1.931-14.175,1.208-20.423c-0.966-6.005-3.139-11.531-6.517-16.336c-7.482-10.812-20.031-17.058-34.027-17.058
			c-13.997,0-26.546,6.485-34.027,17.058c-3.379,4.805-5.551,10.332-6.516,16.336c-0.965,6.248-0.724,13.214,1.207,20.423
			c3.62,15.853,13.515,33.871,29.201,53.329c-9.894,11.053-18.824,18.502-27.512,23.307c-6.275,3.604-12.307,5.526-18.34,6.244
			c-6.516,0.722-12.791-0.239-18.342-2.4c-11.825-4.805-20.271-15.619-21.96-28.111c-0.724-6.004-0.241-12.009,2.172-18.735
			c0.724-2.405,1.931-4.805,3.137-7.688c1.69-3.844,3.62-7.932,5.551-12.015l0.241-0.478c16.651-35.798,34.51-72.313,53.092-107.868
			l0.724-1.445c1.931-3.601,3.861-7.443,5.793-11.047c1.931-3.844,4.103-7.449,6.757-10.575c5.068-5.765,11.825-8.888,19.307-8.888
			c7.48,0,14.238,3.123,19.305,8.888c2.655,3.126,4.826,6.731,6.757,10.575c1.93,3.604,3.86,7.447,5.792,11.047l0.724,1.445
			c18.341,35.793,36.198,72.309,52.85,108.107v0.239c1.932,3.843,3.621,8.171,5.552,12.015c1.206,2.883,2.411,5.282,3.137,7.688
			C216.527,182.207,217.252,188.217,216.287,194.46z"/>
	</g>
</g>
</svg>
