<?xml version="1.0" encoding="iso-8859-1"?>
<!-- Generator: Adobe Illustrator 16.0.0, SVG Export Plug-In . SVG Version: 6.00 Build 0)  -->
<!DOCTYPE svg PUBLIC "-//W3C//DTD SVG 1.1//EN" "http://www.w3.org/Graphics/SVG/1.1/DTD/svg11.dtd">
<svg version="1.1" id="Layer_2" xmlns="http://www.w3.org/2000/svg" xmlns:xlink="http://www.w3.org/1999/xlink" x="0px" y="0px"
	 width="240px" height="240px" viewBox="0 0 240 240" style="enable-background:new 0 0 240 240;" xml:space="preserve">
<path style="fill:#010101;" d="M0,0v240h240V0H0z M221.139,13c3.318,0,6.01,2.687,6.01,6s-2.691,6-6.01,6
	c-3.317,0-6.007-2.687-6.007-6S217.821,13,221.139,13z M18.859,13c3.318,0,6.009,2.687,6.009,6c0,3.314-2.691,6-6.009,6
	s-6.008-2.686-6.008-6C12.852,15.687,15.542,13,18.859,13z M18.859,227c-3.318,0-6.008-2.688-6.008-6.001S15.541,215,18.859,215
	c3.318,0,6.009,2.686,6.009,5.999S22.177,227,18.859,227z M221.139,227c-3.317,0-6.007-2.688-6.007-6.001s2.689-5.999,6.007-5.999
	c3.318,0,6.01,2.686,6.01,5.999S224.457,227,221.139,227z M120,229.125C58.473,229.125,8.596,180.269,8.596,120
	C8.596,59.732,58.473,10.875,120,10.875c61.526,0,111.404,48.857,111.404,109.125C231.404,180.269,181.526,229.125,120,229.125z
	 M216.881,144.184c0.001-16.133,0-32.25,0-48.376c-28.646-3.383-48.544-1.17-64.144,3.658c-3.126-4.98-7.371-9.155-12.38-12.274
	c9.233-12.668,22.213-25.475,40.525-38.712c-14.844-6.635-24.82-13.221-33.387-24.371c-17.148,22.94-25.331,41.34-29.002,57.34
	c-6.042,0.235-11.644,1.88-16.656,4.553c-6.264-14.681-10.067-33.823-9.272-61.893C75.458,37.537,62.97,49.551,50.424,56.769
	c11.487,19.88,23.368,34.467,35.423,45.312c-2.63,5.007-4.249,10.601-4.447,16.592c-15.745-1.862-34.194-8.031-58.281-22.866
	c0,16.127,0,32.244,0,48.376c28.647,3.376,48.556,1.17,64.146-3.666c3.124,4.984,7.371,9.16,12.377,12.281
	c-9.214,12.682-22.213,25.491-40.496,38.715c14.837,6.645,24.827,13.219,33.381,24.379c17.141-22.942,25.322-41.327,29.007-57.352
	c6.017-0.247,11.614-1.889,16.642-4.57c6.258,14.677,10.077,33.834,9.283,61.898c17.108-13.435,29.598-25.451,42.145-32.648
	c-11.492-19.9-23.39-34.485-35.441-45.33c2.624-5.01,4.243-10.602,4.445-16.574C174.35,123.178,192.8,129.348,216.881,144.184z
	 M119.833,130.002c-5.623,0-10.181-4.552-10.181-10.167s4.558-10.167,10.181-10.167c5.622,0,10.18,4.552,10.18,10.167
	S125.456,130.002,119.833,130.002z"/>
</svg>
