<?xml version="1.0" encoding="iso-8859-1"?>
<!-- Generator: Adobe Illustrator 16.0.0, SVG Export Plug-In . SVG Version: 6.00 Build 0)  -->
<!DOCTYPE svg PUBLIC "-//W3C//DTD SVG 1.1//EN" "http://www.w3.org/Graphics/SVG/1.1/DTD/svg11.dtd">
<svg version="1.1" id="Layer_2" xmlns="http://www.w3.org/2000/svg" xmlns:xlink="http://www.w3.org/1999/xlink" x="0px" y="0px"
	 width="240px" height="240px" viewBox="0 0 240 240" style="enable-background:new 0 0 240 240;" xml:space="preserve">
<g>
	<path style="fill:#010101;" d="M8,0C3.6,0,0,3.6,0,8v224c0,4.4,3.6,8,8,8h224c4.4,0,8-3.6,8-8V8c0-4.4-3.6-8-8-8H8z M220.998,11
		c4.418,0,8.002,3.582,8.002,8s-3.584,8-8.002,8S213,23.418,213,19S216.58,11,220.998,11z M18.999,11C23.417,11,27,14.582,27,19
		c0,4.418-3.583,8-8.001,8C14.582,27,11,23.418,11,19C11,14.582,14.582,11,18.999,11z M19,229c-4.418,0-8-3.583-8-8.001
		S14.581,213,19,213c4.417,0,8,3.581,8,7.999S23.417,229,19,229z M221.139,229c-4.418,0-7.998-3.583-7.998-8.001
		s3.58-7.999,7.998-7.999s8.002,3.581,8.002,7.999S225.557,229,221.139,229z M120,229.125C58.473,229.125,8.596,180.269,8.596,120
		C8.596,59.732,58.473,10.875,120,10.875c61.526,0,111.404,48.857,111.404,109.125C231.404,180.269,181.526,229.125,120,229.125z
		 M209.708,140.641c3.945,1.948,7.173-0.058,7.173-4.458v-32.376c0-4.4-3.599-8.087-7.998-8.193l-48.299,2.294
		c-4.316,0.856-9.505-0.503-11.532-3.021c-2.027-2.518-6.33-10.41-3.438-13.727l29.119-27.565c3.382-2.814,2.971-6.81-0.912-8.879
		l-20.545-15.08c-3.18-3.042-7.662-2.46-9.961,1.292l-22.216,42.956c-1.434,4.16-5.227,7.986-8.428,8.503
		c-3.202,0.518-11.861,0.163-13.116-4.055l-6.481-46.241c-0.28-4.391-3.239-5.637-6.575-2.769l-29.73,22.572
		c-3.489,2.681-4.324,7.853-1.855,11.495l25.451,32.865c3.016,3.204,4.527,8.211,3.358,11.126s-5.827,10.468-10.11,9.462
		l-43.32-17.495c-3.945-1.948-7.173,0.058-7.173,4.458v32.376c0,4.4,3.599,8.087,7.998,8.193l48.301-2.302
		c4.316-0.856,9.505,0.504,11.533,3.023c2.027,2.519,6.326,10.415,3.436,13.732l-29.091,27.566
		c-3.382,2.814-2.971,6.809,0.913,8.877l20.538,15.09c3.18,3.041,7.663,2.46,9.961-1.292l22.219-42.968
		c1.434-4.159,5.221-7.987,8.415-8.507c3.194-0.52,11.863-0.176,13.119,4.041l6.488,46.248c0.281,4.391,3.241,5.636,6.577,2.768
		l29.732-22.562c3.491-2.679,4.326-7.85,1.856-11.491l-25.466-32.885c-3.017-3.203-4.53-8.209-3.363-11.125
		s5.828-10.45,10.111-9.444L209.708,140.641z M119.833,130.002c-5.623,0-10.181-4.552-10.181-10.167s4.558-10.167,10.181-10.167
		c5.622,0,10.18,4.552,10.18,10.167S125.456,130.002,119.833,130.002z"/>
</g>
</svg>
