<?xml version="1.0" encoding="utf-8"?>
<!-- Generated by IcoMoon.io -->
<!DOCTYPE svg PUBLIC "-//W3C//DTD SVG 1.1//EN" "http://www.w3.org/Graphics/SVG/1.1/DTD/svg11.dtd">
<svg version="1.1" xmlns="http://www.w3.org/2000/svg" xmlns:xlink="http://www.w3.org/1999/xlink" width="32" height="32" viewBox="0 0 32 32">
<path d="M4.017 4v24h23.967v-24h-23.967zM26.1 5.3c0.331 0 0.6 0.269 0.6 0.6s-0.269 0.6-0.6 0.6-0.6-0.269-0.6-0.6 0.269-0.6 0.6-0.6zM5.9 5.3c0.331 0 0.6 0.269 0.6 0.6s-0.269 0.6-0.6 0.6-0.6-0.269-0.6-0.6c0-0.331 0.269-0.6 0.6-0.6zM5.9 26.7c-0.331 0-0.6-0.269-0.6-0.6s0.269-0.6 0.6-0.6c0.331 0 0.6 0.269 0.6 0.6s-0.269 0.6-0.6 0.6zM26.1 26.7c-0.331 0-0.6-0.269-0.6-0.6s0.269-0.6 0.6-0.6 0.6 0.269 0.6 0.6-0.269 0.6-0.6 0.6zM16 26.913c-6.144 0-11.125-4.886-11.125-10.913s4.981-10.912 11.125-10.912c6.144 0 11.125 4.886 11.125 10.912s-4.981 10.913-11.125 10.913z" fill="rgb(1, 1, 1)"></path>
<path d="M16.027 11.967c-2.206 0-3.994 1.788-3.994 3.994s1.788 3.994 3.994 3.994 3.994-1.788 3.994-3.994c0-2.206-1.788-3.994-3.994-3.994zM15.983 17c-0.562 0-1.017-0.455-1.017-1.017s0.455-1.017 1.017-1.017 1.017 0.455 1.017 1.017-0.455 1.017-1.017 1.017z" fill="rgb(0, 0, 0)"></path>
<path d="M25.675 18.418c0-1.613 0-3.225 0-4.838-2.861-0.338-4.848-0.117-6.406 0.366-0.312-0.498-0.736-0.915-1.236-1.227 0.922-1.267 2.218-2.547 4.047-3.871-1.482-0.663-2.479-1.322-3.334-2.437-1.712 2.294-2.53 4.134-2.896 5.734-0.603 0.024-1.163 0.188-1.663 0.455-0.626-1.468-1.005-3.382-0.926-6.189-1.708 1.343-2.956 2.544-4.208 3.266 1.147 1.988 2.334 3.447 3.537 4.531-0.263 0.501-0.424 1.060-0.444 1.659-1.572-0.186-3.415-0.803-5.82-2.287 0 1.613 0 3.224 0 4.838 2.861 0.338 4.849 0.117 6.406-0.367 0.312 0.498 0.736 0.916 1.236 1.228-0.92 1.268-2.218 2.549-4.044 3.872 1.482 0.665 2.479 1.322 3.333 2.438 1.712-2.294 2.529-4.133 2.897-5.735 0.601-0.025 1.16-0.189 1.662-0.457 0.625 1.468 1.006 3.383 0.927 6.19 1.709-1.343 2.956-2.545 4.209-3.265-1.148-1.99-2.336-3.448-3.539-4.533 0.262-0.501 0.424-1.060 0.444-1.657 1.572 0.186 3.415 0.803 5.819 2.287zM16.027 17.008c-0.578 0-1.047-0.469-1.047-1.047s0.469-1.047 1.047-1.047c0.578 0 1.047 0.469 1.047 1.047s-0.469 1.047-1.047 1.047z" fill="rgb(1, 1, 1)"></path>
</svg>
