<?xml version="1.0" encoding="iso-8859-1"?>
<!-- Generator: Adobe Illustrator 16.0.0, SVG Export Plug-In . SVG Version: 6.00 Build 0)  -->
<!DOCTYPE svg PUBLIC "-//W3C//DTD SVG 1.1//EN" "http://www.w3.org/Graphics/SVG/1.1/DTD/svg11.dtd">
<svg version="1.1" id="Layer_2" xmlns="http://www.w3.org/2000/svg" xmlns:xlink="http://www.w3.org/1999/xlink" x="0px" y="0px"
	 width="240px" height="240px" viewBox="0 0 240 240" style="enable-background:new 0 0 240 240;" xml:space="preserve">
<path d="M235.033,26.694c14.824-14.711-6.888-36.301-21.318-22.003L175.672,42.52c-0.002,0.001-0.003,0.003-0.005,0.004
	l-17.048,16.952c-3.169,3.151-9.316,4.872-13.661,3.825L26.469,34.738c-4.344-1.047-10.491,0.674-13.661,3.825L1.998,49.312
	c-3.169,3.151-2.494,7.37,1.5,9.374l97.431,48.906c3.994,2.004,4.669,6.223,1.5,9.375l-33.658,33.468
	c-3.169,3.151-9.394,5.305-13.832,4.785l-18.376-2.148c-4.439-0.52-10.663,1.634-13.832,4.785l-6.14,6.105
	c-3.169,3.15-2.521,7.423,1.439,9.493l24.986,13.064c3.96,2.071,8.909,6.997,10.998,10.947l13.114,24.8
	c2.088,3.95,6.39,4.604,9.559,1.453l6.141-6.105c3.169-3.152,5.313-9.359,4.766-13.794l-2.272-18.396
	c-0.548-4.435,1.597-10.642,4.766-13.792l33.658-33.47c3.168-3.151,7.417-2.47,9.439,1.516l49.149,96.823
	c2.022,3.985,6.271,4.668,9.439,1.517l10.811-10.749c3.169-3.151,4.873-9.275,3.787-13.61L176.557,94.686
	c-1.086-4.333,0.615-10.453,3.781-13.606L235.033,26.694z"/>
</svg>
