<?xml version="1.0" encoding="utf-8"?>
<!-- Generator: Adobe Illustrator 15.0.0, SVG Export Plug-In . SVG Version: 6.00 Build 0)  -->
<!DOCTYPE svg PUBLIC "-//W3C//DTD SVG 1.0//EN" "http://www.w3.org/TR/2001/REC-SVG-20010904/DTD/svg10.dtd">
<svg version="1.0" xmlns="http://www.w3.org/2000/svg" xmlns:xlink="http://www.w3.org/1999/xlink" x="0px" y="0px" width="320px"
	 height="320px" viewBox="0 0 320 320" enable-background="new 0 0 320 320" xml:space="preserve">
<g id="Layer_1">
	<path display="none" d="M-103.665-23.373c-2.243-5.019-0.055-10.915,4.967-13.208l29.128-13.268l15.526-41.083
		c1.508-3.948,5.31-6.386,9.303-6.388l0.05-0.05l19.931-0.009c0.098,0,0.194,0.05,0.244,0.05c1.41,0.048,2.875,0.292,4.236,0.97
		l39.917,19.96c1.562,0.78,2.879,1.949,3.854,3.409l19.991,29.91c3.024,4.578,1.808,10.778-2.771,13.852
		c-1.703,1.11-3.653,1.645-5.555,1.646c-3.213,0.002-6.383-1.557-8.285-4.43L8.343-59.728l-22.76-11.393
		c0.439,2.195,0.68,3.656,0.68,3.656c2.979,14.956,6.987,33.958,8.987,39.9c2.979,13.996-6.958,21.98-6.958,21.98l-34.966,35.002
		l-18.596,46.54c-1.603,3.951-5.307,6.292-9.303,6.293c-1.217,0.001-2.486-0.177-3.704-0.667c-5.116-2.06-7.604-7.841-5.559-13.01
		l19.953-49.902c0.291-0.841,0.732-1.562,1.268-2.256l6.133-8.178l16.8-26.771l-7.13-34.98l-5.501,14.521
		c-0.923,2.487-2.773,4.485-5.211,5.619l-32.884,14.963c-1.365,0.646-2.775,0.878-4.141,0.878
		C-98.347-17.529-101.954-19.672-103.665-23.373L-103.665-23.373z M-49.712-107.354c13.785-0.006,24.94-11.17,24.933-24.96
		c-0.006-13.783-11.171-24.944-24.957-24.938c-13.743,0.007-24.945,11.179-24.939,24.961
		C-74.668-118.5-63.455-107.348-49.712-107.354L-49.712-107.354z M-1.767-3.591c-0.972,1.999-2.97,4.01-3.943,4.972l-15.976,15.99
		l6.975,16.952c0.438,2.195,1.516,3.851,2.928,5.213l29.061,38.678c1.948,2.627,4.922,3.99,7.992,3.989
		c2.049-0.001,4.141-0.637,5.943-1.999c4.432-3.318,5.307-9.552,1.993-13.939L4.879,28.53L-1.767-3.591L-1.767-3.591z M-1.767-3.591
		"/>
</g>
<g id="Layer_2">
	<path display="none" fill="#13110C" d="M40,40v240h239.667V40H40z M55.166,50c2.854,0,5.167,2.313,5.167,5.167
		s-2.313,5.167-5.167,5.167S50,58.021,50,55.167S52.312,50,55.166,50z M55.25,270.334c-2.854,0-5.167-2.314-5.167-5.168
		S52.396,260,55.25,260s5.167,2.312,5.167,5.166S58.104,270.334,55.25,270.334z M265.666,50c2.854,0,5.167,2.313,5.167,5.167
		s-2.313,5.167-5.167,5.167s-5.166-2.313-5.166-5.167S262.812,50,265.666,50z M265.75,270.334c-2.854,0-5.166-2.314-5.166-5.168
		S262.896,260,265.75,260s5.167,2.312,5.167,5.166S268.604,270.334,265.75,270.334z"/>
	<g>
		<path d="M253.469,44.375c14.169-14.118,35.486,7.2,20.932,21.727l-59.354,59.354l33.151,133.038l-21.929,21.929L170.79,170.509
			l-44.361,44.361l4.187,34.09l-17.343,17.344l-20.333-38.673l-38.673-20.334l17.343-17.342l33.89,3.985l44.361-44.36L39.938,94.091
			l21.928-21.928l131.85,31.964L253.469,44.375z"/>
	</g>
</g>
</svg>
