<?xml version="1.0" encoding="iso-8859-1"?>
<!-- Generator: Adobe Illustrator 16.0.0, SVG Export Plug-In . SVG Version: 6.00 Build 0)  -->
<!DOCTYPE svg PUBLIC "-//W3C//DTD SVG 1.1//EN" "http://www.w3.org/Graphics/SVG/1.1/DTD/svg11.dtd">
<svg version="1.1" id="Layer_2" xmlns="http://www.w3.org/2000/svg" xmlns:xlink="http://www.w3.org/1999/xlink" x="0px" y="0px"
	 width="240px" height="240px" viewBox="0 0 240 240" style="enable-background:new 0 0 240 240;" xml:space="preserve">
<g>
	<ellipse cx="115.904" cy="28" rx="20.482" ry="20"/>
	<path d="M234.693,128H131.535l0.863-33.341l6.241,12.592c1.056,2.16,2.768,3.717,4.824,4.38l27.673,8.633
		c1.152,0.38,2.284,0.371,3.35,0.154c2.964-0.606,5.494-3.168,6.333-6.873c1.076-5.013-1.425-10.132-5.65-11.458l-24.515-7.659
		l-17.636-35.626c-1.705-3.421-4.999-5.076-8.117-4.441l-0.045-0.038l-15.559,3.17c-0.076,0.017-0.146,0.078-0.184,0.086
		c-1.094,0.27-2.204,0.729-3.176,1.575l-28.477,24.88c-1.114,0.974-1.985,2.269-2.55,3.777l-11.588,30.93
		c-1.16,3.14-0.756,6.639,0.808,9.261H5.306c-4.505,0-6.544,3.22-4.529,7.155l25.442,49.689C28.235,188.78,33.57,192,38.076,192
		h8.193v8v8v8c0,4.4,3.687,8,8.192,8h16.385c4.506,0,8.192-3.6,8.192-8v-8v-8v-8h81.924v8v8v8c0,4.4,3.687,8,8.192,8h16.385
		c4.506,0,8.193-3.6,8.193-8v-8v-8v-8h8.192c4.506,0,9.841-3.22,11.855-7.155l25.441-49.689C241.237,131.22,239.2,128,234.693,128z
		 M77.774,126.353l10.741-28.66l16.234-14.197c-0.048,2.105-0.039,3.499-0.039,3.499c-0.318,14.346-0.896,32.61-1.66,38.44
		c-0.029,0.893-0.004,1.739,0.042,2.564H76.969C77.275,127.49,77.554,126.948,77.774,126.353z"/>
</g>
</svg>
