<?xml version="1.0" encoding="utf-8"?>
<!-- Generator: Adobe Illustrator 16.0.0, SVG Export Plug-In . SVG Version: 6.00 Build 0)  -->
<!DOCTYPE svg PUBLIC "-//W3C//DTD SVG 1.0//EN" "http://www.w3.org/TR/2001/REC-SVG-20010904/DTD/svg10.dtd">
<svg version="1.0" id="Layer_2" xmlns="http://www.w3.org/2000/svg" xmlns:xlink="http://www.w3.org/1999/xlink" x="0px" y="0px"
	 width="240px" height="240px" viewBox="0 0 240 240" enable-background="new 0 0 240 240" xml:space="preserve">
<path d="M95.423,28c0-11.045,9.169-20,20.481-20s20.481,8.955,20.481,20s-9.169,20-20.481,20S95.423,39.045,95.423,28z
	 M239.223,135.155l-25.441,49.689c-2.016,3.936-7.351,7.155-11.857,7.155h-8.192v8v8v8c0,4.4-3.686,8-8.192,8h-16.385
	c-4.506,0-8.192-3.6-8.192-8v-8v-8v-8H79.038v8v8v8c0,4.4-3.687,8-8.192,8H54.461c-4.506,0-8.192-3.6-8.192-8v-8v-8v-8h-8.192
	c-4.506,0-9.841-3.22-11.856-7.155L0.777,135.155C-1.238,131.22,0.801,128,5.306,128h58.825c-1.564-2.622-1.968-6.121-0.808-9.261
	l11.588-30.93c0.565-1.508,1.436-2.803,2.55-3.777l28.477-24.88c0.972-0.846,2.082-1.305,3.176-1.575
	c0.038-0.008,0.107-0.069,0.184-0.086l15.559-3.17l0.045,0.038c3.118-0.635,6.411,1.02,8.117,4.441l17.635,35.626l24.515,7.659
	c4.227,1.326,6.727,6.446,5.65,11.458c-0.838,3.705-3.368,6.267-6.332,6.873c-1.066,0.216-2.198,0.226-3.351-0.154l-27.673-8.633
	c-2.056-0.663-3.768-2.22-4.824-4.38l-6.241-12.592L131.535,128h103.16C239.2,128,241.237,131.22,239.223,135.155z M76.968,128
	h26.125c-0.046-0.826-0.071-1.672-0.042-2.564c0.763-5.83,1.34-24.094,1.659-38.44c0,0-0.009-1.394,0.039-3.499L88.515,97.693
	l-10.741,28.66C77.553,126.948,77.275,127.49,76.968,128z"/>
</svg>
