<?xml version="1.0" encoding="utf-8"?>
<!-- Generated by IcoMoon.io -->
<!DOCTYPE svg PUBLIC "-//W3C//DTD SVG 1.1//EN" "http://www.w3.org/Graphics/SVG/1.1/DTD/svg11.dtd">
<svg version="1.1" xmlns="http://www.w3.org/2000/svg" xmlns:xlink="http://www.w3.org/1999/xlink" width="32" height="32" viewBox="0 0 32 32">
<path d="M28.1 24.75h-24.050l-2-8.050h27.95z" fill="#000000"></path>
<path d="M6.033 25.45h1.967v2.55h-1.967v-2.55z" fill="#000000"></path>
<path d="M24 25.45h1.954v2.55h-1.954v-2.55z" fill="#000000"></path>
<path d="M12.516 19.844h0.011v1.656h-0.011v-1.656z" fill="#000000"></path>
<path d="M25.41 11.898c-0.096-3.697-5.762-3.781-5.808-0.175-2.169 0.369-4.335 0.567-6.539 0.463-2.002-0.094-2.007 3.004-0.020 3.098 2.316 0.109 4.611-0.112 6.893-0.486 0.069 0.402 0.142 0.803 0.212 1.204h5.806c-0.244-1.362-0.509-2.719-0.545-4.104z" fill="#000000"></path>
<path d="M23.974 4.919c0 1.671-1.354 3.025-3.025 3.025s-3.025-1.355-3.025-3.025c0-1.67 1.355-3.025 3.025-3.025s3.025 1.354 3.025 3.025z" fill="#000000"></path>
</svg>
