<?xml version="1.0" encoding="iso-8859-1"?>
<!-- Generator: Adobe Illustrator 16.0.0, SVG Export Plug-In . SVG Version: 6.00 Build 0)  -->
<!DOCTYPE svg PUBLIC "-//W3C//DTD SVG 1.1//EN" "http://www.w3.org/Graphics/SVG/1.1/DTD/svg11.dtd">
<svg version="1.1" id="Layer_1" xmlns="http://www.w3.org/2000/svg" xmlns:xlink="http://www.w3.org/1999/xlink" x="0px" y="0px"
	 width="240px" height="240px" viewBox="0 0 240 240" style="enable-background:new 0 0 240 240;" xml:space="preserve">
<path d="M223.363,220.5h-13.819V240H190v-19.5H49.645V240H30.333v-19.5H17.599L0.487,140h239.132L223.363,220.5z M104.628,177h0.092
	v-14.16h-0.092V177z M214.886,94.889c-0.822-31.616-49.272-32.33-49.662-1.496c-18.545,3.156-37.068,4.847-55.916,3.959
	c-17.12-0.803-17.163,25.688-0.173,26.487c19.8,0.931,39.427-0.955,58.946-4.154c0.589,3.435,1.21,6.866,1.816,10.299h49.647
	C217.457,118.339,215.192,106.731,214.886,94.889z M104.72,162.84h-0.092V177h0.092V162.84z M176.742,17.347
	c-14.285,0-25.868,11.583-25.868,25.866c0,14.286,11.583,25.869,25.868,25.869c14.286,0,25.867-11.583,25.867-25.869
	C202.609,28.929,191.028,17.347,176.742,17.347z"/>
</svg>
