<?xml version="1.0" encoding="iso-8859-1"?>
<!-- Generator: Adobe Illustrator 16.0.0, SVG Export Plug-In . SVG Version: 6.00 Build 0)  -->
<!DOCTYPE svg PUBLIC "-//W3C//DTD SVG 1.1//EN" "http://www.w3.org/Graphics/SVG/1.1/DTD/svg11.dtd">
<svg version="1.1" id="Layer_1" xmlns="http://www.w3.org/2000/svg" xmlns:xlink="http://www.w3.org/1999/xlink" x="0px" y="0px"
	 width="240px" height="240px" viewBox="0 0 240 240" style="enable-background:new 0 0 240 240;" xml:space="preserve">
<path d="M80,119.834c0,13.241-10.729,23.979-23.963,23.979c-13.232,0-23.962-10.737-23.962-23.979
	c0-13.239,10.729-23.975,23.962-23.975C69.271,95.859,80,106.595,80,119.834z M80,143.812c42.6,0,85.201,0,127.801,0
	C162.759,100.185,125.654,102.203,80,143.812L80,143.812z M224.025,112.094v47.953H15.975V80H0v127.875h15.975v-16.109h208.05V208
	H240v-95.906H224.025z"/>
</svg>
