<?xml version="1.0" encoding="utf-8"?>
<!-- Generator: Adobe Illustrator 16.0.0, SVG Export Plug-In . SVG Version: 6.00 Build 0)  -->
<!DOCTYPE svg PUBLIC "-//W3C//DTD SVG 1.0//EN" "http://www.w3.org/TR/2001/REC-SVG-20010904/DTD/svg10.dtd">
<svg version="1.0" id="Layer_1" xmlns="http://www.w3.org/2000/svg" xmlns:xlink="http://www.w3.org/1999/xlink" x="0px" y="0px"
	 width="320px" height="320px" viewBox="0 0 320 320" enable-background="new 0 0 320 320" xml:space="preserve">
<path display="none" fill="#ED1C24" d="M40.167,40v240h239.667V40H40.167z M55.333,50c2.854,0,5.167,2.313,5.167,5.167
	s-2.313,5.167-5.167,5.167s-5.167-2.313-5.167-5.167S52.479,50,55.333,50z M55.417,270.334c-2.854,0-5.167-2.314-5.167-5.168
	S52.563,260,55.417,260s5.167,2.312,5.167,5.166S58.27,270.334,55.417,270.334z M265.832,50c2.854,0,5.168,2.313,5.168,5.167
	s-2.314,5.167-5.168,5.167s-5.166-2.313-5.166-5.167S262.979,50,265.832,50z M265.916,270.334c-2.854,0-5.166-2.314-5.166-5.168
	s2.312-5.166,5.166-5.166s5.168,2.312,5.168,5.166S268.77,270.334,265.916,270.334z"/>
<path d="M131.617,62.914c-1.797-10.479,5.231-20.425,15.713-22.222c10.449-1.792,20.426,5.237,22.224,15.716
	c1.796,10.484-5.27,20.429-15.719,22.221C143.354,80.427,133.415,73.398,131.617,62.914z M95.307,149.848
	c1.44,0.621,2.992,0.772,4.438,0.524c2.443-0.419,4.649-2.018,5.72-4.452l10.462-23.492l15.813-11.638
	c-0.047,1.726-0.038,2.868-0.038,2.868c-0.31,11.76-0.873,26.731-1.616,31.51c-0.348,8.834,5.094,13.649,7.277,15.218h32.039
	l-11.578-12.918l0.847-27.526l6.08,10.321c1.027,1.77,2.695,3.047,4.697,3.59l26.955,7.076c1.123,0.312,2.227,0.304,3.264,0.126
	c2.888-0.496,5.352-2.597,6.168-5.634c1.049-4.108-1.386-8.305-5.504-9.392l-23.879-6.278l-17.176-29.203
	c-1.662-2.804-4.87-4.161-7.907-3.641l-0.044-0.031l-15.154,2.598c-0.074,0.014-0.142,0.064-0.179,0.071
	c-1.066,0.221-2.147,0.597-3.094,1.291l-27.737,20.394c-1.085,0.798-1.934,1.859-2.484,3.096l-11.288,25.353
	C89.688,143.555,91.424,148.11,95.307,149.848z M230.168,161.234c-1.587,0-3.1-0.171-4.638-0.464l9.224-17.444l15.831,2.818
	C248.28,154.865,240.029,161.234,230.168,161.234z M176.627,154.642H78.413c-12.12,0-21.905,9.408-21.905,20.973v34.833h15.55
	v-34.442l8.145-11.856v41.401l-8.145,12.177v52.597c0,5.293,4.407,9.481,9.836,9.481c5.533,0,9.94-4.186,9.94-9.481v-45.562
	l9.761-14.603v15.53l21.798,49.216c2.716,4.532,8.71,6.054,13.45,3.528c4.714-2.599,6.302-8.354,3.664-12.861l-18.652-42.629
	l8.892-14.624h49.957v61.998c0,5.291,4.408,9.479,9.838,9.479c5.455,0,9.865-4.188,9.865-9.479l0.073-60.559l22.644-44.244
	c2.253,0.612,4.559,0.906,7.044,0.906c12.504,0,22.979-8.182,25.872-19.276l2.386,0.44c4.174,0.783,8.583-1.053,10.732-4.798
	c2.897-4.756,1.13-10.881-3.917-13.477l-29.768-19.057l1.741-15.63l-60.588,60.021V154.642z"/>
</svg>
