<?xml version="1.0" encoding="utf-8"?>
<!-- Generator: Adobe Illustrator 16.0.0, SVG Export Plug-In . SVG Version: 6.00 Build 0)  -->
<!DOCTYPE svg PUBLIC "-//W3C//DTD SVG 1.0//EN" "http://www.w3.org/TR/2001/REC-SVG-20010904/DTD/svg10.dtd">
<svg version="1.0" id="Layer_1" xmlns="http://www.w3.org/2000/svg" xmlns:xlink="http://www.w3.org/1999/xlink" x="0px" y="0px"
	 width="320px" height="320px" viewBox="0 0 320 320" enable-background="new 0 0 320 320" xml:space="preserve">
<g>
	<path d="M152.207,102.666c9.201-1.578,15.422-10.334,13.841-19.566c-1.583-9.228-10.368-15.416-19.569-13.838
		c-9.23,1.583-15.418,10.34-13.836,19.567C134.226,98.06,142.978,104.249,152.207,102.666z"/>
	<path d="M100.671,165.375c1.268,0.547,2.635,0.68,3.908,0.462c2.151-0.369,4.094-1.777,5.037-3.92l9.212-20.686l13.924-10.247
		c-0.041,1.52-0.034,2.525-0.034,2.525c-0.273,10.355-0.768,23.537-1.422,27.745c-0.306,7.778,4.485,12.019,6.407,13.399h28.211
		l-10.195-11.375l0.746-24.237l5.354,9.088c0.904,1.559,2.373,2.683,4.136,3.161l23.734,6.23c0.989,0.275,1.961,0.268,2.874,0.111
		c2.543-0.437,4.712-2.286,5.431-4.96c0.924-3.618-1.22-7.313-4.846-8.27l-21.026-5.528l-15.123-25.714
		c-1.464-2.469-4.289-3.664-6.963-3.206l-0.039-0.027l-13.343,2.288c-0.065,0.012-0.125,0.056-0.158,0.062
		c-0.938,0.195-1.891,0.526-2.724,1.137l-24.423,17.957c-0.956,0.703-1.703,1.637-2.187,2.726l-9.939,22.324
		C95.724,159.834,97.252,163.845,100.671,165.375z"/>
</g>
<path d="M237.396,162.113l-13.939-2.481l-8.121,15.36c1.354,0.259,2.686,0.409,4.083,0.409
	C228.103,175.401,235.367,169.793,237.396,162.113z M172.275,169.599l53.349-52.849l-1.533,13.763l26.211,16.78
	c4.444,2.286,6,7.679,3.449,11.867c-1.893,3.298-5.775,4.915-9.45,4.225l-2.101-0.388c-2.548,9.769-11.771,16.973-22.781,16.973
	c-2.188,0-4.219-0.259-6.202-0.798l-19.938,38.958l-0.064,53.323c0,4.658-3.883,8.346-8.687,8.346c-4.78,0-8.662-3.688-8.662-8.346
	v-54.591h-43.988l-7.829,12.877l16.423,37.535c2.323,3.969,0.925,9.037-3.226,11.325c-4.173,2.224-9.451,0.884-11.843-3.107
	l-19.194-43.335v-13.675l-8.595,12.857v40.118c0,4.663-3.881,8.349-8.753,8.349c-4.78,0-8.661-3.688-8.661-8.349v-46.312
	l7.171-10.722v-36.455l-7.171,10.44v30.327H66.508v-30.672c0-10.184,8.616-18.467,19.288-18.467h86.48V169.599z"/>
</svg>
