<?xml version="1.0" encoding="iso-8859-1"?>
<!-- Generator: Adobe Illustrator 16.0.0, SVG Export Plug-In . SVG Version: 6.00 Build 0)  -->
<!DOCTYPE svg PUBLIC "-//W3C//DTD SVG 1.1//EN" "http://www.w3.org/Graphics/SVG/1.1/DTD/svg11.dtd">
<svg version="1.1" id="Layer_1" xmlns="http://www.w3.org/2000/svg" xmlns:xlink="http://www.w3.org/1999/xlink" x="0px" y="0px"
	 width="240px" height="240px" viewBox="0 0 240 240" style="enable-background:new 0 0 240 240;" xml:space="preserve">
<path d="M88.006,22.558C86.204,12.053,93.25,2.082,103.759,0.279c10.475-1.796,20.478,5.25,22.28,15.756
	c1.801,10.511-5.283,20.481-15.758,22.278C99.773,40.116,89.808,33.069,88.006,22.558z M51.604,109.713
	c1.444,0.623,3,0.774,4.45,0.525c2.449-0.42,4.661-2.023,5.734-4.463l10.489-23.552l15.853-11.667
	c-0.047,1.73-0.038,2.875-0.038,2.875c-0.311,11.79-0.875,26.799-1.62,31.589c-0.349,8.856,5.107,13.684,7.295,15.256h32.121
	l-11.608-12.951l0.849-27.596l6.095,10.348c1.03,1.774,2.702,3.055,4.709,3.599l27.023,7.094c1.126,0.313,2.232,0.305,3.272,0.127
	c2.895-0.498,5.365-2.603,6.184-5.648c1.052-4.119-1.39-8.326-5.518-9.416l-23.939-6.294l-17.219-29.277
	c-1.667-2.812-4.882-4.171-7.927-3.65l-0.044-0.031l-15.193,2.605c-0.075,0.014-0.142,0.064-0.18,0.071
	c-1.069,0.222-2.152,0.599-3.102,1.294L61.482,70.998c-1.088,0.8-1.938,1.864-2.49,3.104L47.676,99.519
	C45.971,103.404,47.711,107.971,51.604,109.713z M186.807,121.128c-1.591,0-3.107-0.171-4.649-0.466l9.247-17.488l15.871,2.825
	C204.965,114.743,196.693,121.128,186.807,121.128z M133.13,114.52H34.667c-12.15,0-21.96,9.431-21.96,21.026v34.921h15.59v-34.529
	l8.165-11.887v41.506l-8.165,12.208v52.729c0,5.307,4.418,9.506,9.861,9.506c5.547,0,9.965-4.196,9.965-9.506v-45.677l9.786-14.64
	v15.569l21.854,49.341c2.724,4.544,8.732,6.069,13.484,3.537c4.726-2.604,6.318-8.375,3.673-12.894l-18.699-42.737l8.915-14.661
	h50.083v62.155c0,5.305,4.419,9.503,9.863,9.503c5.469,0,9.891-4.198,9.891-9.503l0.073-60.712l22.701-44.356
	c2.259,0.614,4.57,0.909,7.062,0.909c12.536,0,23.037-8.203,25.938-19.325l2.393,0.441c4.184,0.785,8.604-1.056,10.759-4.811
	c2.905-4.769,1.133-10.909-3.927-13.511l-29.843-19.105l1.745-15.67l-60.741,60.173V114.52z"/>
</svg>
