<?xml version="1.0" encoding="iso-8859-1"?>
<!-- Generator: Adobe Illustrator 16.0.0, SVG Export Plug-In . SVG Version: 6.00 Build 0)  -->
<!DOCTYPE svg PUBLIC "-//W3C//DTD SVG 1.1//EN" "http://www.w3.org/Graphics/SVG/1.1/DTD/svg11.dtd">
<svg version="1.1" id="Layer_3" xmlns="http://www.w3.org/2000/svg" xmlns:xlink="http://www.w3.org/1999/xlink" x="0px" y="0px"
	 width="240px" height="240px" viewBox="0 0 240 240" style="enable-background:new 0 0 240 240;" xml:space="preserve">
<path d="M171.444,16H66.141L3.995,89.545h21.906v78.302l-16.7,2.177c0,0-8.047,1.506-6.041,10.087
	c1.675,5.377,8.123,5.127,8.123,5.127l14.618-1.831v21.698L130.1,224l82.832-18.727l-0.145-115.596h24.375L171.444,16z
	 M150.13,103.53l22.796-1.072l0.055,30.403l-23.002,1.812L150.13,103.53z M33.396,199.356l0.103-16.459l45.391-6.131
	c0,0,7.819,0.054,7.192-8.753c-0.538-7.866-8.84-6.497-8.84-6.497l-43.743,5.115l0.27-76.995l47.355-60.218l49.473,60.218
	l0.076,127.327L33.396,199.356z M149.958,175.659l0.083-31.246l22.912-1.791l0.152,30.811L149.958,175.659z M201.313,170.694
	l-18.961,1.804v-30.498l18.961-1.385V170.694z M182.358,132.239l-0.006-30.25l18.968-0.594l0.042,29.643L182.358,132.239z"/>
</svg>
