<?xml version="1.0" encoding="utf-8"?>
<!-- Generated by IcoMoon.io -->
<!DOCTYPE svg PUBLIC "-//W3C//DTD SVG 1.1//EN" "http://www.w3.org/Graphics/SVG/1.1/DTD/svg11.dtd">
<svg version="1.1" xmlns="http://www.w3.org/2000/svg" xmlns:xlink="http://www.w3.org/1999/xlink" width="32" height="32" viewBox="0 0 32 32">
<path d="M17.561 15.214c0.562-0.405 0.836-1.046 0.836-1.961 0-0.823-0.254-1.418-0.775-1.82-0.53-0.408-1.385-0.615-2.541-0.615h-1.544v5.019h1.178c1.314 0 2.271-0.21 2.846-0.623z" fill="#000000"></path>
<path d="M4 4v24h23.967v-24h-23.967zM19.077 16.556c-0.988 0.772-2.389 1.163-4.164 1.163h-1.375v5.335h-2.125v-14.108h3.829c3.548 0 5.348 1.424 5.348 4.232-0 1.459-0.509 2.595-1.512 3.378z" fill="#000000"></path>
</svg>
