<?xml version="1.0" encoding="utf-8"?>
<!-- Generator: Adobe Illustrator 16.0.0, SVG Export Plug-In . SVG Version: 6.00 Build 0)  -->
<!DOCTYPE svg PUBLIC "-//W3C//DTD SVG 1.0//EN" "http://www.w3.org/TR/2001/REC-SVG-20010904/DTD/svg10.dtd">
<svg version="1.0" xmlns="http://www.w3.org/2000/svg" xmlns:xlink="http://www.w3.org/1999/xlink" x="0px" y="0px" width="320px"
	 height="320px" viewBox="0 0 320 320" enable-background="new 0 0 320 320" xml:space="preserve">
<g id="Layer_1" display="none">
	<path d="M-103.665-23.373c-2.243-5.019-0.055-10.915,4.967-13.208l29.128-13.268l15.526-41.083c1.508-3.948,5.31-6.386,9.303-6.388
		l0.05-0.05l19.931-0.009c0.098,0,0.194,0.05,0.244,0.05c1.41,0.048,2.875,0.292,4.236,0.97l39.917,19.96
		c1.562,0.78,2.879,1.949,3.854,3.409l19.991,29.91c3.024,4.578,1.808,10.778-2.771,13.852c-1.703,1.11-3.653,1.645-5.555,1.646
		c-3.213,0.002-6.383-1.557-8.285-4.43L8.343-59.728l-22.76-11.393c0.439,2.195,0.68,3.656,0.68,3.656
		c2.979,14.956,6.987,33.958,8.987,39.9c2.979,13.996-6.958,21.98-6.958,21.98l-34.966,35.002l-18.596,46.54
		c-1.603,3.951-5.307,6.292-9.303,6.293c-1.217,0.001-2.486-0.177-3.704-0.667c-5.116-2.06-7.604-7.841-5.559-13.01l19.953-49.902
		c0.291-0.841,0.732-1.562,1.268-2.256l6.133-8.178l16.8-26.771l-7.13-34.98l-5.501,14.521c-0.923,2.487-2.773,4.485-5.211,5.619
		l-32.884,14.963c-1.365,0.646-2.775,0.878-4.141,0.878C-98.347-17.529-101.954-19.672-103.665-23.373L-103.665-23.373z
		 M-49.712-107.354c13.785-0.006,24.94-11.17,24.933-24.96c-0.006-13.783-11.171-24.944-24.957-24.938
		c-13.743,0.007-24.945,11.179-24.939,24.961C-74.668-118.5-63.455-107.348-49.712-107.354L-49.712-107.354z M-1.767-3.591
		c-0.972,1.999-2.97,4.01-3.943,4.972l-15.976,15.99l6.975,16.952c0.438,2.195,1.516,3.851,2.928,5.213l29.061,38.678
		c1.948,2.627,4.922,3.99,7.992,3.989c2.049-0.001,4.141-0.637,5.943-1.999c4.432-3.318,5.307-9.552,1.993-13.939L4.879,28.53
		L-1.767-3.591L-1.767-3.591z M-1.767-3.591"/>
</g>
<g id="letter" display="none">
	<g display="inline">
		<path d="M208.743,131.248c0,14.223-4.856,25.128-14.571,32.715c-9.714,7.588-23.397,11.381-41.047,11.381h-16v54.19h-17.524
			V90.296h36.857C191.315,90.296,208.743,103.947,208.743,131.248z M137.125,160.295h14c13.84,0,23.873-2.238,30.095-6.714
			c6.222-4.477,9.333-11.667,9.333-21.572c0-8.952-2.89-15.65-8.666-20.095c-5.778-4.443-14.795-6.667-27.048-6.667h-17.714V160.295
			z"/>
	</g>
</g>
<g id="Layer_4">
	<g>
		<g>
			<path d="M181.887,111.915c-5.778-4.443-14.795-6.667-27.048-6.667h-17.714v55.047h14c13.84,0,23.873-2.238,30.095-6.714
				c6.222-4.477,9.333-11.667,9.333-21.572C190.553,123.058,187.663,116.36,181.887,111.915z"/>
		</g>
		<g>
			<path d="M39.815,39.916v240h239.667v-240H39.815z M194.172,163.963c-9.714,7.588-23.397,11.381-41.047,11.381h-16v54.19h-17.524
				V90.296h36.857c34.857,0,52.285,13.651,52.285,40.952C208.743,145.471,203.887,156.376,194.172,163.963z"/>
		</g>
	</g>
</g>
<g id="Layer_4_copy" display="none">
	<path display="inline" d="M208.743,131.248c0,14.223-4.856,25.128-14.571,32.715c-9.714,7.588-23.397,11.381-41.047,11.381h-16
		v54.19h-17.524V90.296h36.857C191.315,90.296,208.743,103.947,208.743,131.248z M137.125,160.295h14
		c13.84,0,23.873-2.238,30.095-6.714c6.222-4.477,9.333-11.667,9.333-21.572c0-8.952-2.89-15.65-8.666-20.095
		c-5.778-4.443-14.795-6.667-27.048-6.667h-17.714V160.295z"/>
	<g display="inline">
		<path d="M267.482,51.916v216H51.815v-216H267.482 M279.482,39.916H39.815v240h239.667V39.916L279.482,39.916z"/>
	</g>
</g>
</svg>
