<?xml version="1.0" encoding="iso-8859-1"?>
<!-- Generator: Adobe Illustrator 16.0.0, SVG Export Plug-In . SVG Version: 6.00 Build 0)  -->
<!DOCTYPE svg PUBLIC "-//W3C//DTD SVG 1.1//EN" "http://www.w3.org/Graphics/SVG/1.1/DTD/svg11.dtd">
<svg version="1.1" id="Layer_4" xmlns="http://www.w3.org/2000/svg" xmlns:xlink="http://www.w3.org/1999/xlink" x="0px" y="0px"
	 width="240px" height="240px" viewBox="0 0 240 240" style="enable-background:new 0 0 240 240;" xml:space="preserve">
<g>
	<path d="M150.947,92.095c0,9.904-3.116,17.095-9.346,21.571c-6.231,4.477-16.277,6.714-30.137,6.714h-14.02V65.333h17.739
		c12.27,0,21.299,2.223,27.085,6.666C148.053,76.444,150.947,83.143,150.947,92.095z M240,0v240H0V0H240z M169.162,91.333
		c0-27.301-17.452-40.952-52.357-40.952H79.896v139.238h17.548v-54.19h16.022c17.675,0,31.377-3.793,41.104-11.38
		C164.3,116.461,169.162,105.556,169.162,91.333z"/>
</g>
</svg>
