<?xml version="1.0" encoding="iso-8859-1"?>
<!-- Generator: Adobe Illustrator 16.0.0, SVG Export Plug-In . SVG Version: 6.00 Build 0)  -->
<!DOCTYPE svg PUBLIC "-//W3C//DTD SVG 1.1//EN" "http://www.w3.org/Graphics/SVG/1.1/DTD/svg11.dtd">
<svg version="1.1" id="Layer_1" xmlns="http://www.w3.org/2000/svg" xmlns:xlink="http://www.w3.org/1999/xlink" x="0px" y="0px"
	 width="240px" height="240px" viewBox="0 0 240 240" style="enable-background:new 0 0 240 240;" xml:space="preserve">
<path style="fill:#040305;" d="M188.571,86.571H51.429c0-18.935,15.35-34.286,34.286-34.286h17.143V0h34.286v52.286h16.286v0.022
	c0.286-0.007,0.569-0.022,0.857-0.022C173.222,52.286,188.571,67.636,188.571,86.571z M120,102.857
	c-4.734,0-8.571,3.838-8.571,8.572S115.266,120,120,120s8.571-3.837,8.571-8.571S124.734,102.857,120,102.857z M120,137.143
	c-4.734,0-8.571,3.837-8.571,8.571s3.837,8.572,8.571,8.572s8.571-3.838,8.571-8.572S124.734,137.143,120,137.143z M120,180
	c-4.734,0-8.571,3.837-8.571,8.571s3.837,8.571,8.571,8.571s8.571-3.837,8.571-8.571S124.734,180,120,180z M120,222.857
	c-4.734,0-8.571,3.837-8.571,8.571S115.266,240,120,240s8.571-3.837,8.571-8.571S124.734,222.857,120,222.857z M152.521,103.045
	c-4.633,0.976-7.597,5.521-6.621,10.153c0.976,4.633,5.521,7.598,10.155,6.621c4.631-0.976,7.595-5.521,6.62-10.154
	C161.699,105.034,157.153,102.069,152.521,103.045z M159.588,136.594c-4.633,0.976-7.598,5.523-6.62,10.153
	c0.975,4.634,5.521,7.598,10.154,6.623c4.631-0.977,7.595-5.522,6.62-10.154C168.765,138.582,164.22,135.618,159.588,136.594z
	 M168.421,178.532c-4.632,0.976-7.597,5.521-6.621,10.154c0.977,4.632,5.522,7.596,10.154,6.62
	c4.633-0.977,7.598-5.521,6.621-10.153C177.6,180.521,173.054,177.557,168.421,178.532z M177.255,220.469
	c-4.633,0.976-7.598,5.521-6.621,10.153c0.976,4.633,5.521,7.597,10.154,6.621s7.597-5.521,6.621-10.153
	C186.434,222.456,181.887,219.491,177.255,220.469z M77.325,109.666c-0.976,4.633,1.989,9.178,6.621,10.154
	c4.632,0.977,9.178-1.988,10.155-6.621c0.975-4.632-1.989-9.178-6.621-10.153C82.847,102.069,78.3,105.034,77.325,109.666z
	 M70.258,143.216c-0.976,4.632,1.989,9.178,6.621,10.154c4.632,0.975,9.178-1.989,10.154-6.623c0.977-4.63-1.988-9.178-6.62-10.153
	C75.78,135.618,71.234,138.582,70.258,143.216z M61.425,185.153c-0.976,4.632,1.989,9.177,6.621,10.153
	c4.632,0.976,9.178-1.988,10.154-6.62c0.976-4.633-1.989-9.179-6.621-10.154C66.946,177.557,62.401,180.521,61.425,185.153z
	 M52.591,227.09c-0.976,4.633,1.989,9.178,6.621,10.153c4.633,0.976,9.178-1.988,10.154-6.621c0.976-4.632-1.988-9.178-6.621-10.153
	C58.113,219.491,53.567,222.456,52.591,227.09z"/>
</svg>
