<?xml version="1.0" encoding="utf-8"?>
<!-- Generated by IcoMoon.io -->
<!DOCTYPE svg PUBLIC "-//W3C//DTD SVG 1.1//EN" "http://www.w3.org/Graphics/SVG/1.1/DTD/svg11.dtd">
<svg version="1.1" xmlns="http://www.w3.org/2000/svg" xmlns:xlink="http://www.w3.org/1999/xlink" width="32" height="32" viewBox="0 0 32 32">
<path d="M14 2h4v8h-4v-8z" fill="#000000"></path>
<path d="M20 8.1c-0.034 0-0.067 0.002-0.1 0.002v-0.002h-7.9c-2.209 0-4 1.791-4 4h16c0-2.209-1.791-4-4-4z" fill="#000000"></path>
<path d="M17 15c0 0.552-0.448 1-1 1s-1-0.448-1-1c0-0.552 0.448-1 1-1s1 0.448 1 1z" fill="#000000"></path>
<path d="M17 19c0 0.552-0.448 1-1 1s-1-0.448-1-1c0-0.552 0.448-1 1-1s1 0.448 1 1z" fill="#000000"></path>
<path d="M17 24c0 0.552-0.448 1-1 1s-1-0.448-1-1c0-0.552 0.448-1 1-1s1 0.448 1 1z" fill="#000000"></path>
<path d="M17 29c0 0.552-0.448 1-1 1s-1-0.448-1-1c0-0.552 0.448-1 1-1s1 0.448 1 1z" fill="#000000"></path>
<path d="M21 15.001c0 0.552-0.448 1-1 1s-1-0.448-1-1c0-0.552 0.448-1 1-1s1 0.448 1 1z" fill="#000000"></path>
<path d="M21.803 18.709c0.114 0.54-0.232 1.071-0.772 1.185s-1.071-0.232-1.185-0.773c-0.114-0.54 0.232-1.071 0.772-1.185s1.071 0.232 1.185 0.773z" fill="#000000"></path>
<path d="M22.855 23.807c0 0.552-0.448 1-1 1s-1-0.448-1-1c0-0.552 0.448-1 1-1s1 0.448 1 1z" fill="#000000"></path>
<path d="M23.886 28.7c0 0.552-0.448 1-1 1s-1-0.448-1-1c0-0.552 0.448-1 1-1s1 0.448 1 1z" fill="#000000"></path>
<path d="M13 15.001c0 0.552-0.448 1-1 1s-1-0.448-1-1c0-0.552 0.448-1 1-1s1 0.448 1 1z" fill="#000000"></path>
<path d="M10.197 18.709c-0.114 0.54 0.232 1.071 0.772 1.185s1.071-0.232 1.185-0.773c0.114-0.54-0.232-1.071-0.772-1.185s-1.071 0.232-1.185 0.773z" fill="#000000"></path>
<path d="M11.145 23.807c0 0.552-0.448 1-1 1s-1-0.448-1-1c0-0.552 0.448-1 1-1s1 0.448 1 1z" fill="#000000"></path>
<path d="M10.114 28.7c0 0.552-0.448 1-1 1s-1-0.448-1-1c0-0.552 0.448-1 1-1s1 0.448 1 1z" fill="#000000"></path>
</svg>
