<?xml version="1.0" encoding="iso-8859-1"?>
<!-- Generator: Adobe Illustrator 16.0.0, SVG Export Plug-In . SVG Version: 6.00 Build 0)  -->
<!DOCTYPE svg PUBLIC "-//W3C//DTD SVG 1.1//EN" "http://www.w3.org/Graphics/SVG/1.1/DTD/svg11.dtd">
<svg version="1.1" id="Layer_2" xmlns="http://www.w3.org/2000/svg" xmlns:xlink="http://www.w3.org/1999/xlink" x="0px" y="0px"
	 width="240px" height="240px" viewBox="0 0 240 240" style="enable-background:new 0 0 240 240;" xml:space="preserve">
<path d="M240,181.11c-11.118,0-16.951-4.877-21.638-8.795c-3.982-3.329-6.613-5.527-12.628-5.527c-6.016,0-8.646,2.198-12.628,5.527
	c-4.688,3.918-10.521,8.795-21.639,8.795c-11.117,0-16.95-4.877-21.637-8.796c-3.981-3.328-6.611-5.526-12.625-5.526
	c-6.014,0-8.644,2.198-12.625,5.526c-4.687,3.919-10.52,8.796-21.637,8.796s-16.949-4.877-21.636-8.796
	c-3.981-3.328-6.611-5.526-12.625-5.526c-6.013,0-8.643,2.198-12.624,5.526c-4.687,3.919-10.519,8.796-21.636,8.796
	c-11.116,0-16.948-4.877-21.634-8.796c-3.98-3.328-6.61-5.526-12.622-5.526v-13.943c11.116,0,16.948,4.876,21.634,8.795
	c3.98,3.328,6.61,5.527,12.622,5.527c6.013,0,8.644-2.199,12.625-5.527c4.686-3.919,10.519-8.795,21.635-8.795
	c11.117,0,16.95,4.876,21.636,8.795c3.981,3.328,6.612,5.527,12.625,5.527c6.014,0,8.645-2.199,12.626-5.527
	c4.687-3.919,10.519-8.795,21.636-8.795c11.117,0,16.95,4.876,21.637,8.795c3.981,3.328,6.611,5.527,12.625,5.527
	c6.016,0,8.646-2.199,12.628-5.528c4.688-3.918,10.521-8.794,21.639-8.794s16.951,4.876,21.638,8.794
	c3.982,3.329,6.613,5.528,12.628,5.528V181.11z"/>
<g>
	<path d="M188.736,71.76c-16.717,0-30.271,13.489-30.271,30.125c0,16.639,13.555,30.13,30.271,30.13
		c16.719,0,30.271-13.491,30.271-30.13C219.007,85.249,205.455,71.76,188.736,71.76z"/>
	<g>
		<g>
			<g>
				<path d="M102.737,110.141c4.089-1.625,10.571-1.189,14.406,0.968l0.972,0.547c3.835,2.158,4.146,6.154,0.693,8.881
					l-26.905,21.242c-3.453,2.727-4.842,6.054-3.085,7.393c0,0,0,0,1.396,1.167c4.146,3.466,6.884,5.755,13.145,5.755
					c6.261,0,9-2.289,13.145-5.755c4.878-4.08,10.952-9.157,22.526-9.157s17.648,5.077,22.527,9.157
					c1.28,1.071,1.28,1.071,1.28,1.071c1.267,0.973,3.255,0.017,4.417-2.125s0.223-6.958-2.088-10.703l-16.993-27.537
					c-2.311-3.745-7.496-8.259-11.522-10.033l-17.614-7.76c-4.027-1.774-10.575-1.686-14.553,0.196l-33.374,15.792
					c-3.978,1.882-5.498,5.64-3.379,8.352c2.119,2.712,7.198,3.601,11.287,1.976L102.737,110.141z"/>
			</g>
		</g>
	</g>
</g>
<path d="M240,194.058c-6.015,0-8.646-2.199-12.628-5.528c-4.687-3.918-10.52-8.795-21.638-8.795s-16.951,4.877-21.639,8.795
	c-3.981,3.329-6.612,5.528-12.628,5.528c-6.014,0-8.644-2.199-12.625-5.527c-4.687-3.919-10.52-8.796-21.637-8.796
	c-11.117,0-16.949,4.877-21.636,8.796c-3.981,3.328-6.612,5.527-12.626,5.527c-6.013,0-8.644-2.199-12.625-5.527
	c-4.686-3.919-10.519-8.796-21.636-8.796c-11.116,0-16.949,4.877-21.635,8.796c-3.981,3.328-6.612,5.527-12.625,5.527
	c-6.012,0-8.642-2.199-12.622-5.527c-4.686-3.919-10.518-8.796-21.634-8.796v13.943c6.012,0,8.642,2.199,12.622,5.527
	C17.475,203.124,23.307,208,34.423,208c11.117,0,16.949-4.876,21.636-8.795c3.981-3.328,6.611-5.527,12.624-5.527
	c6.014,0,8.644,2.199,12.625,5.527c4.687,3.919,10.519,8.795,21.636,8.795s16.95-4.876,21.637-8.795
	c3.981-3.328,6.611-5.527,12.625-5.527c6.014,0,8.644,2.199,12.625,5.527c4.687,3.919,10.52,8.795,21.637,8.795
	c11.118,0,16.951-4.876,21.639-8.794c3.982-3.329,6.612-5.528,12.628-5.528c6.015,0,8.646,2.199,12.628,5.528
	C223.049,203.124,228.882,208,240,208V194.058z"/>
<g>
	<path d="M237.635,57.66c1.033-4.277-1.585-8.756-5.819-9.954L127.461,18.182c-4.234-1.198-7.698-2.179-7.698-2.18
		s-0.002-0.001-0.003-0.001s-0.004,0-0.005,0s-0.002,0-0.003,0.001s-3.464,0.982-7.698,2.18L7.698,47.706
		c-4.234,1.198-6.852,5.677-5.819,9.954l0.939,3.886c1.033,4.277,5.343,6.796,9.577,5.599l99.665-28.197
		c4.234-1.198,11.162-1.198,15.396,0l99.664,28.197c4.234,1.198,8.544-1.322,9.577-5.599L237.635,57.66z"/>
</g>
</svg>
