<?xml version="1.0" encoding="iso-8859-1"?>
<!-- Generator: Adobe Illustrator 16.0.0, SVG Export Plug-In . SVG Version: 6.00 Build 0)  -->
<!DOCTYPE svg PUBLIC "-//W3C//DTD SVG 1.1//EN" "http://www.w3.org/Graphics/SVG/1.1/DTD/svg11.dtd">
<svg version="1.1" id="Layer_2" xmlns="http://www.w3.org/2000/svg" xmlns:xlink="http://www.w3.org/1999/xlink" x="0px" y="0px"
	 width="240px" height="240px" viewBox="0 0 240 240" style="enable-background:new 0 0 240 240;" xml:space="preserve">
<path d="M240.167,165.11c-11.126,0-16.963-4.877-21.652-8.795c-3.985-3.329-6.618-5.527-12.637-5.527
	c-6.021,0-8.652,2.198-12.637,5.527c-4.691,3.918-10.528,8.795-21.654,8.795c-11.125,0-16.961-4.877-21.652-8.796
	c-3.983-3.328-6.615-5.526-12.634-5.526c-6.018,0-8.649,2.198-12.634,5.526c-4.689,3.919-10.527,8.796-21.651,8.796
	c-11.125,0-16.961-4.877-21.651-8.796c-3.984-3.328-6.616-5.526-12.634-5.526c-6.017,0-8.649,2.198-12.633,5.526
	c-4.69,3.919-10.526,8.796-21.651,8.796c-11.124,0-16.96-4.877-21.649-8.796c-3.983-3.328-6.614-5.526-12.631-5.526v-13.943
	c11.124,0,16.96,4.876,21.649,8.795c3.983,3.328,6.614,5.527,12.631,5.527s8.649-2.199,12.634-5.527
	c4.689-3.919,10.526-8.795,21.65-8.795c11.125,0,16.962,4.876,21.651,8.795c3.984,3.328,6.616,5.527,12.634,5.527
	s8.65-2.199,12.635-5.527c4.689-3.919,10.526-8.795,21.65-8.795c11.125,0,16.962,4.876,21.652,8.795
	c3.984,3.328,6.616,5.527,12.633,5.527c6.02,0,8.652-2.199,12.637-5.528c4.69-3.918,10.528-8.794,21.654-8.794
	s16.963,4.876,21.652,8.794c3.985,3.329,6.618,5.528,12.637,5.528V165.11z M188.867,55.76c-16.728,0-30.292,13.489-30.292,30.125
	c0,16.639,13.564,30.13,30.292,30.13c16.73,0,30.292-13.491,30.292-30.13C219.159,69.249,205.598,55.76,188.867,55.76z
	 M102.808,94.141c4.092-1.625,10.579-1.189,14.417,0.968l0.973,0.547c3.838,2.158,4.149,6.154,0.694,8.881l-26.924,21.242
	c-3.456,2.727-4.845,6.054-3.087,7.393c0,0,0,0,1.396,1.167c4.148,3.466,6.889,5.755,13.154,5.755c6.266,0,9.006-2.289,13.154-5.755
	c4.882-4.08,10.96-9.157,22.542-9.157c11.583,0,17.66,5.077,22.542,9.157c1.281,1.071,1.281,1.071,1.281,1.071
	c1.268,0.973,3.257,0.017,4.42-2.125s0.223-6.958-2.089-10.703l-17.005-27.537c-2.312-3.745-7.501-8.259-11.53-10.033l-17.626-7.76
	c-4.03-1.774-10.583-1.686-14.563,0.196L71.159,93.241c-3.98,1.882-5.501,5.64-3.381,8.352c2.121,2.712,7.204,3.601,11.295,1.976
	L102.808,94.141z M240.167,178.058c-6.019,0-8.651-2.199-12.637-5.528c-4.689-3.918-10.526-8.795-21.652-8.795
	s-16.964,4.877-21.654,8.795c-3.984,3.329-6.617,5.528-12.637,5.528c-6.018,0-8.649-2.199-12.633-5.527
	c-4.69-3.919-10.527-8.796-21.652-8.796c-11.124,0-16.961,4.877-21.65,8.796c-3.984,3.328-6.617,5.527-12.635,5.527
	s-8.65-2.199-12.634-5.527c-4.689-3.919-10.526-8.796-21.651-8.796c-11.124,0-16.961,4.877-21.65,8.796
	c-3.984,3.328-6.617,5.527-12.634,5.527s-8.647-2.199-12.631-5.527c-4.689-3.919-10.525-8.796-21.649-8.796v13.943
	c6.017,0,8.647,2.199,12.631,5.527C17.487,187.124,23.323,192,34.447,192c11.125,0,16.961-4.876,21.651-8.795
	c3.984-3.328,6.616-5.527,12.633-5.527c6.018,0,8.65,2.199,12.634,5.527c4.69,3.919,10.526,8.795,21.651,8.795
	c11.125,0,16.962-4.876,21.651-8.795c3.984-3.328,6.616-5.527,12.634-5.527c6.019,0,8.65,2.199,12.634,5.527
	c4.69,3.919,10.527,8.795,21.652,8.795c11.126,0,16.963-4.876,21.654-8.794c3.984-3.329,6.616-5.528,12.637-5.528
	c6.019,0,8.651,2.199,12.637,5.528c4.689,3.918,10.526,8.794,21.652,8.794V178.058z M237.8,41.66
	c1.034-4.277-1.586-8.756-5.823-9.954L127.55,2.182c-4.237-1.198-7.703-2.179-7.704-2.18S119.845,0,119.843,0.001s-0.004,0-0.005,0
	s-0.002,0-0.003,0.001s-3.467,0.982-7.704,2.18L7.703,31.706c-4.237,1.198-6.857,5.677-5.823,9.954l0.94,3.886
	c1.034,4.277,5.346,6.796,9.583,5.599l99.734-28.197c4.237-1.198,11.169-1.198,15.406,0l99.733,28.197
	c4.237,1.198,8.55-1.322,9.584-5.599L237.8,41.66z"/>
</svg>
