<?xml version="1.0" encoding="iso-8859-1"?>
<!-- Generator: Adobe Illustrator 16.0.0, SVG Export Plug-In . SVG Version: 6.00 Build 0)  -->
<!DOCTYPE svg PUBLIC "-//W3C//DTD SVG 1.1//EN" "http://www.w3.org/Graphics/SVG/1.1/DTD/svg11.dtd">
<svg version="1.1" id="Layer_2" xmlns="http://www.w3.org/2000/svg" xmlns:xlink="http://www.w3.org/1999/xlink" x="0px" y="0px"
	 width="240px" height="240px" viewBox="0 0 240 240" style="enable-background:new 0 0 240 240;" xml:space="preserve">
<g>
	<path d="M227.364,161.721c-4.69-3.911-10.526-8.779-21.653-8.779c-11.124,0-16.963,4.868-21.653,8.779
		c-3.984,3.323-6.615,5.518-12.636,5.518c-6.018,0-8.648-2.194-12.633-5.517c-4.69-3.912-10.529-8.78-21.653-8.78
		s-16.96,4.868-21.65,8.78c-3.984,3.322-6.618,5.517-12.636,5.517s-8.648-2.194-12.633-5.517c-4.69-3.912-10.526-8.78-21.65-8.78
		s-16.963,4.868-21.65,8.78c-3.984,3.322-6.618,5.517-12.636,5.517c-6.015,0-8.646-2.194-12.63-5.517
		c-4.688-3.912-10.526-8.78-21.65-8.78v13.919c6.018,0,8.648,2.195,12.633,5.518c4.688,3.911,10.523,8.779,21.647,8.779
		c11.127,0,16.963-4.868,21.653-8.779c3.984-3.322,6.615-5.518,12.633-5.518s8.648,2.195,12.633,5.518
		c4.69,3.911,10.526,8.779,21.65,8.779c11.127,0,16.963-4.868,21.653-8.779c3.984-3.322,6.615-5.518,12.633-5.518
		s8.651,2.195,12.636,5.518c4.688,3.911,10.526,8.779,21.65,8.779c11.127,0,16.963-4.868,21.653-8.778
		c3.984-3.323,6.618-5.519,12.636-5.519c6.021,0,8.651,2.195,12.639,5.519c4.688,3.91,10.526,8.778,21.65,8.778v-13.919
		C233.982,167.238,231.349,165.044,227.364,161.721z"/>
	<ellipse cx="188.701" cy="102.074" rx="30.293" ry="30.074"/>
	<path d="M78.904,119.726l23.742-9.414c4.09-1.622,10.576-1.187,14.413,0.967l0.975,0.547c3.837,2.153,4.148,6.143,0.691,8.865
		l-26.923,21.203c-3.457,2.722-4.846,6.043-3.088,7.38c0,0,0,0,1.397,1.166c4.148,3.459,6.888,5.744,13.154,5.744
		c6.264,0,9.006-2.285,13.154-5.744c4.881-4.073,10.96-9.142,22.541-9.142c11.584,0,17.66,5.068,22.544,9.142
		c1.28,1.068,1.28,1.068,1.28,1.068c1.269,0.972,3.257,0.018,4.42-2.121c1.162-2.139,0.22-6.95-2.096-10.692l-16.995-27.473
		c-2.314-3.742-7.504-8.252-11.533-10.022l-17.631-7.748c-4.028-1.771-10.58-1.682-14.559,0.196L70.99,109.417
		c-3.979,1.878-5.5,5.629-3.379,8.336S74.813,121.348,78.904,119.726z"/>
	<path d="M205.711,179.784c-11.124,0-16.963,4.868-21.653,8.779c-3.984,3.323-6.615,5.519-12.636,5.519
		c-6.018,0-8.648-2.195-12.633-5.518c-4.69-3.912-10.529-8.78-21.653-8.78s-16.96,4.868-21.65,8.78
		c-3.984,3.322-6.618,5.518-12.636,5.518s-8.648-2.195-12.633-5.518c-4.69-3.912-10.526-8.78-21.65-8.78s-16.963,4.868-21.65,8.78
		c-3.984,3.322-6.618,5.518-12.636,5.518c-6.015,0-8.646-2.195-12.63-5.518c-4.688-3.912-10.526-8.78-21.65-8.78v13.919
		c6.018,0,8.648,2.195,12.633,5.518C17.32,203.132,23.156,208,34.28,208c11.127,0,16.963-4.868,21.653-8.779
		c3.984-3.322,6.615-5.518,12.633-5.518s8.648,2.195,12.633,5.518c4.69,3.911,10.526,8.779,21.65,8.779
		c11.127,0,16.963-4.868,21.653-8.779c3.984-3.322,6.615-5.518,12.633-5.518s8.651,2.195,12.636,5.518
		c4.688,3.911,10.526,8.779,21.65,8.779c11.127,0,16.963-4.868,21.653-8.778c3.984-3.323,6.618-5.519,12.636-5.519
		c6.021,0,8.651,2.195,12.639,5.519c4.688,3.91,10.526,8.778,21.65,8.778v-13.918c-6.018,0-8.651-2.195-12.636-5.519
		C222.674,184.652,216.838,179.784,205.711,179.784z"/>
</g>
</svg>
