<?xml version="1.0" encoding="utf-8"?>
<!-- Generated by IcoMoon.io -->
<!DOCTYPE svg PUBLIC "-//W3C//DTD SVG 1.1//EN" "http://www.w3.org/Graphics/SVG/1.1/DTD/svg11.dtd">
<svg version="1.1" xmlns="http://www.w3.org/2000/svg" xmlns:xlink="http://www.w3.org/1999/xlink" width="32" height="32" viewBox="0 0 32 32">
<path d="M27.983 21.381c-1.111 0-1.694-0.49-2.162-0.883-0.398-0.334-0.661-0.555-1.262-0.555s-0.864 0.221-1.262 0.555c-0.468 0.393-1.051 0.883-2.162 0.883s-1.694-0.49-2.162-0.883c-0.398-0.334-0.661-0.555-1.262-0.555s-0.864 0.221-1.262 0.555c-0.468 0.393-1.051 0.883-2.162 0.883s-1.694-0.49-2.162-0.883c-0.398-0.334-0.661-0.555-1.262-0.555s-0.864 0.221-1.262 0.555c-0.468 0.393-1.051 0.883-2.162 0.883s-1.694-0.49-2.162-0.883c-0.398-0.334-0.66-0.555-1.261-0.555v-1.4c1.111 0 1.694 0.49 2.162 0.883 0.398 0.334 0.66 0.555 1.261 0.555s0.864-0.221 1.262-0.555c0.468-0.393 1.051-0.883 2.162-0.883s1.694 0.49 2.162 0.883c0.398 0.334 0.661 0.555 1.262 0.555s0.864-0.221 1.262-0.555c0.468-0.393 1.051-0.883 2.162-0.883s1.694 0.49 2.162 0.883c0.398 0.334 0.661 0.555 1.262 0.555s0.864-0.221 1.262-0.555c0.468-0.393 1.051-0.883 2.162-0.883s1.694 0.49 2.162 0.883c0.398 0.334 0.661 0.555 1.262 0.555v1.4z" fill="rgb(0, 0, 0)"></path>
<path d="M25.886 13.427c0 1.671-1.354 3.025-3.025 3.025s-3.025-1.355-3.025-3.025c0-1.67 1.355-3.025 3.025-3.025s3.025 1.354 3.025 3.025z" fill="rgb(0, 0, 0)"></path>
<path d="M15.009 13.959l1.491 0.843-3.944 3.128c0.169 0.119 0.319 0.244 0.459 0.362 0.414 0.348 0.688 0.578 1.313 0.578s0.899-0.23 1.314-0.578c0.488-0.41 1.095-0.919 2.251-0.919s1.764 0.51 2.251 0.919c0.128 0.108 0.242 0.204 0.358 0.285l0.422-0.782-2.538-4.132-3.223-1.427-4.78 2.273 0.77 0.99 3.856-1.54z" fill="rgb(1, 1, 1)"></path>
<path d="M27.983 24.081c-1.111 0-1.694-0.49-2.162-0.883-0.398-0.334-0.661-0.555-1.262-0.555s-0.864 0.221-1.262 0.555c-0.468 0.393-1.051 0.883-2.162 0.883s-1.694-0.49-2.162-0.883c-0.398-0.334-0.661-0.555-1.262-0.555s-0.864 0.221-1.262 0.555c-0.468 0.393-1.051 0.883-2.162 0.883s-1.694-0.49-2.162-0.883c-0.398-0.334-0.661-0.555-1.262-0.555s-0.864 0.221-1.262 0.555c-0.468 0.393-1.051 0.883-2.162 0.883s-1.694-0.49-2.162-0.883c-0.398-0.334-0.66-0.555-1.261-0.555v-1.4c1.111 0 1.694 0.49 2.162 0.883 0.398 0.334 0.66 0.555 1.261 0.555s0.864-0.221 1.262-0.555c0.468-0.393 1.051-0.883 2.162-0.883s1.694 0.49 2.162 0.883c0.398 0.334 0.661 0.555 1.262 0.555s0.864-0.221 1.262-0.555c0.468-0.393 1.051-0.883 2.162-0.883s1.694 0.49 2.162 0.883c0.398 0.334 0.661 0.555 1.262 0.555s0.864-0.221 1.262-0.555c0.468-0.393 1.051-0.883 2.162-0.883s1.694 0.49 2.162 0.883c0.398 0.334 0.661 0.555 1.262 0.555v1.4z" fill="rgb(0, 0, 0)"></path>
</svg>
