<?xml version="1.0" encoding="iso-8859-1"?>
<!-- Generator: Adobe Illustrator 16.0.0, SVG Export Plug-In . SVG Version: 6.00 Build 0)  -->
<!DOCTYPE svg PUBLIC "-//W3C//DTD SVG 1.1//EN" "http://www.w3.org/Graphics/SVG/1.1/DTD/svg11.dtd">
<svg version="1.1" id="Layer_2" xmlns="http://www.w3.org/2000/svg" xmlns:xlink="http://www.w3.org/1999/xlink" x="0px" y="0px"
	 width="240px" height="240px" viewBox="0 0 240 240" style="enable-background:new 0 0 240 240;" xml:space="preserve">
<path d="M240,181.157c-11.124,0-16.963-4.868-21.65-8.778c-3.987-3.323-6.618-5.519-12.639-5.519c-6.018,0-8.651,2.195-12.636,5.519
	c-4.69,3.91-10.526,8.778-21.653,8.778c-11.124,0-16.963-4.868-21.65-8.779c-3.984-3.322-6.618-5.518-12.636-5.518
	s-8.648,2.195-12.633,5.518c-4.69,3.911-10.526,8.779-21.653,8.779c-11.124,0-16.96-4.868-21.65-8.779
	c-3.984-3.322-6.615-5.518-12.633-5.518s-8.648,2.195-12.633,5.518c-4.69,3.911-10.526,8.779-21.653,8.779
	c-11.124,0-16.96-4.868-21.647-8.779C8.648,169.056,6.018,166.86,0,166.86v-13.919c11.124,0,16.963,4.868,21.65,8.78
	c3.984,3.322,6.615,5.517,12.63,5.517c6.018,0,8.651-2.194,12.636-5.517c4.688-3.912,10.526-8.78,21.65-8.78s16.96,4.868,21.65,8.78
	c3.984,3.322,6.615,5.517,12.633,5.517s8.651-2.194,12.636-5.517c4.69-3.912,10.526-8.78,21.65-8.78s16.963,4.868,21.653,8.78
	c3.984,3.322,6.615,5.517,12.633,5.517c6.021,0,8.651-2.194,12.636-5.518c4.69-3.911,10.529-8.779,21.653-8.779
	c11.127,0,16.963,4.868,21.653,8.779c3.984,3.323,6.618,5.518,12.636,5.518V181.157z M188.701,72
	c-16.729,0-30.29,13.466-30.29,30.073c0,16.609,13.562,30.076,30.29,30.076c16.731,0,30.293-13.467,30.293-30.076
	C218.994,85.466,205.433,72,188.701,72z M110.083,107.364l14.927,8.378l-39.492,31.103c1.693,1.186,3.196,2.431,4.594,3.597
	c4.148,3.459,6.888,5.744,13.154,5.744c6.264,0,9.006-2.285,13.154-5.744c4.881-4.073,10.96-9.142,22.541-9.142
	c11.584,0,17.66,5.068,22.544,9.142c1.28,1.068,2.429,2.023,3.586,2.836l4.228-7.776l-25.412-41.08l-32.279-14.185l-47.871,22.595
	l7.711,9.844L110.083,107.364z M240,194.082c-6.018,0-8.651-2.195-12.636-5.519c-4.69-3.911-10.526-8.779-21.653-8.779
	c-11.124,0-16.963,4.868-21.653,8.779c-3.984,3.323-6.615,5.519-12.636,5.519c-6.018,0-8.648-2.195-12.633-5.518
	c-4.69-3.912-10.529-8.78-21.653-8.78s-16.96,4.868-21.65,8.78c-3.984,3.322-6.618,5.518-12.636,5.518s-8.648-2.195-12.633-5.518
	c-4.69-3.912-10.526-8.78-21.65-8.78s-16.963,4.868-21.65,8.78c-3.984,3.322-6.618,5.518-12.636,5.518
	c-6.015,0-8.646-2.195-12.63-5.518c-4.688-3.912-10.526-8.78-21.65-8.78v13.919c6.018,0,8.648,2.195,12.633,5.518
	C17.32,203.132,23.156,208,34.28,208c11.127,0,16.963-4.868,21.653-8.779c3.984-3.322,6.615-5.518,12.633-5.518
	s8.648,2.195,12.633,5.518c4.69,3.911,10.526,8.779,21.65,8.779c11.127,0,16.963-4.868,21.653-8.779
	c3.984-3.322,6.615-5.518,12.633-5.518s8.651,2.195,12.636,5.518c4.688,3.911,10.526,8.779,21.65,8.779
	c11.127,0,16.963-4.868,21.653-8.778c3.984-3.323,6.618-5.519,12.636-5.519c6.021,0,8.651,2.195,12.639,5.519
	c4.688,3.91,10.526,8.778,21.65,8.778V194.082z"/>
</svg>
