<?xml version="1.0" encoding="iso-8859-1"?>
<!-- Generator: Adobe Illustrator 16.0.0, SVG Export Plug-In . SVG Version: 6.00 Build 0)  -->
<!DOCTYPE svg PUBLIC "-//W3C//DTD SVG 1.1//EN" "http://www.w3.org/Graphics/SVG/1.1/DTD/svg11.dtd">
<svg version="1.1" id="Layer_2" xmlns="http://www.w3.org/2000/svg" xmlns:xlink="http://www.w3.org/1999/xlink" x="0px" y="0px"
	 width="240px" height="240px" viewBox="0 0 240 240" style="enable-background:new 0 0 240 240;" xml:space="preserve">
<path d="M240,181.11c-11.118,0-16.951-4.877-21.638-8.795c-3.982-3.329-6.613-5.527-12.628-5.527c-6.016,0-8.646,2.198-12.628,5.527
	c-4.688,3.918-10.521,8.795-21.639,8.795c-11.117,0-16.95-4.877-21.637-8.796c-3.981-3.328-6.611-5.526-12.625-5.526
	c-6.014,0-8.644,2.198-12.625,5.526c-4.687,3.919-10.52,8.796-21.637,8.796s-16.949-4.877-21.636-8.796
	c-3.981-3.328-6.611-5.526-12.625-5.526c-6.013,0-8.643,2.198-12.624,5.526c-4.687,3.919-10.519,8.796-21.636,8.796
	c-11.116,0-16.948-4.877-21.634-8.796c-3.98-3.328-6.61-5.526-12.622-5.526v-13.943c11.116,0,16.948,4.876,21.634,8.795
	c3.98,3.328,6.61,5.527,12.622,5.527c6.013,0,8.644-2.199,12.625-5.527c4.686-3.919,10.519-8.795,21.635-8.795
	c11.117,0,16.95,4.876,21.636,8.795c3.981,3.328,6.612,5.527,12.625,5.527c6.014,0,8.645-2.199,12.626-5.527
	c4.687-3.919,10.519-8.795,21.636-8.795c11.117,0,16.95,4.876,21.637,8.795c3.981,3.328,6.611,5.527,12.625,5.527
	c6.016,0,8.646-2.199,12.628-5.528c4.688-3.918,10.521-8.794,21.639-8.794s16.951,4.876,21.638,8.794
	c3.982,3.329,6.613,5.528,12.628,5.528V181.11z M188.736,71.76c-16.717,0-30.271,13.489-30.271,30.125
	c0,16.639,13.555,30.13,30.271,30.13c16.719,0,30.271-13.491,30.271-30.13C219.007,85.249,205.455,71.76,188.736,71.76z
	 M110.171,107.186l14.917,8.394l-39.463,31.157c1.693,1.188,3.194,2.436,4.589,3.603c4.146,3.466,6.884,5.755,13.145,5.755
	c6.261,0,9-2.289,13.145-5.755c4.878-4.08,10.952-9.157,22.526-9.157s17.648,5.077,22.527,9.157c1.28,1.071,2.427,2.028,3.584,2.841
	l4.227-7.789l-25.396-41.153l-32.257-14.21l-47.837,22.635l7.706,9.861L110.171,107.186z M240,194.058
	c-6.015,0-8.646-2.199-12.628-5.528c-4.687-3.918-10.52-8.795-21.638-8.795s-16.951,4.877-21.639,8.795
	c-3.981,3.329-6.612,5.528-12.628,5.528c-6.014,0-8.644-2.199-12.625-5.527c-4.687-3.919-10.52-8.796-21.637-8.796
	c-11.117,0-16.949,4.877-21.636,8.796c-3.981,3.328-6.612,5.527-12.626,5.527c-6.013,0-8.644-2.199-12.625-5.527
	c-4.686-3.919-10.519-8.796-21.636-8.796c-11.116,0-16.949,4.877-21.635,8.796c-3.981,3.328-6.612,5.527-12.625,5.527
	c-6.012,0-8.642-2.199-12.622-5.527c-4.686-3.919-10.518-8.796-21.634-8.796v13.943c6.012,0,8.642,2.199,12.622,5.527
	C17.475,203.124,23.307,208,34.423,208c11.117,0,16.949-4.876,21.636-8.795c3.981-3.328,6.611-5.527,12.624-5.527
	c6.014,0,8.644,2.199,12.625,5.527c4.687,3.919,10.519,8.795,21.636,8.795s16.95-4.876,21.637-8.795
	c3.981-3.328,6.611-5.527,12.625-5.527c6.014,0,8.644,2.199,12.625,5.527c4.687,3.919,10.52,8.795,21.637,8.795
	c11.118,0,16.951-4.876,21.639-8.794c3.982-3.329,6.612-5.528,12.628-5.528c6.015,0,8.646,2.199,12.628,5.528
	C223.049,203.124,228.882,208,240,208V194.058z M239.514,41.884l-119.75-33.88L119.763,8l-0.006,0.002L119.752,8l-0.001,0.004
	L0,41.884l4.697,19.438l115.06-32.553l115.06,32.553L239.514,41.884z"/>
</svg>
