<?xml version="1.0" encoding="utf-8"?>
<!-- Generator: Adobe Illustrator 16.0.0, SVG Export Plug-In . SVG Version: 6.00 Build 0)  -->
<!DOCTYPE svg PUBLIC "-//W3C//DTD SVG 1.0//EN" "http://www.w3.org/TR/2001/REC-SVG-20010904/DTD/svg10.dtd">
<svg version="1.0" id="Layer_3" xmlns="http://www.w3.org/2000/svg" xmlns:xlink="http://www.w3.org/1999/xlink" x="0px" y="0px"
	 width="240px" height="240px" viewBox="0 0 240 240" enable-background="new 0 0 240 240" xml:space="preserve">
<path d="M232,108.976h-19.978l-19.376-71.081c-0.984-3.61-4.33-5.968-7.92-5.883C184.648,32.01,184.572,32,184.494,32h-0.928H160V8
	c0-4.4-3.6-8-8-8H88c-4.4,0-8,3.6-8,8v24H56.435h-0.928c-0.079,0-0.155,0.01-0.233,0.012c-3.589-0.085-6.935,2.272-7.919,5.883
	l-19.376,71.081H8c-4.4,0-8,3.6-8,8V184c0,4.4,3.6,8,8,8h224c4.4,0,8-3.6,8-8v-67.024C240,112.576,236.4,108.976,232,108.976z
	 M74.776,58.987C77.667,48,77.667,48,88.334,48c3.532,0,12.821,0,23.666,0c5.134,0,10.614,0,16.001,0c10.845,0,20.134,0,23.665,0
	c10.668,0,10.668,0,13.559,10.987c1.932,7.343,9.066,33.468,13.586,49.989H61.19C65.709,92.455,72.844,66.33,74.776,58.987z M56,176
	c-13.255,0-24-10.745-24-24s10.745-24,24-24c13.254,0,24,10.745,24,24S69.254,176,56,176z M184,176c-13.254,0-24-10.745-24-24
	s10.746-24,24-24s24,10.745,24,24S197.254,176,184,176z M32,208h48v24c0,4.4-3.6,8-8,8H40c-4.4,0-8-3.6-8-8V208z M160,208h48v24
	c0,4.4-3.6,8-8,8h-32c-4.4,0-8-3.6-8-8V208z"/>
</svg>
