<?xml version="1.0" encoding="iso-8859-1"?>
<!-- Generator: Adobe Illustrator 16.0.0, SVG Export Plug-In . SVG Version: 6.00 Build 0)  -->
<!DOCTYPE svg PUBLIC "-//W3C//DTD SVG 1.1//EN" "http://www.w3.org/Graphics/SVG/1.1/DTD/svg11.dtd">
<svg version="1.1" id="Layer_2" xmlns="http://www.w3.org/2000/svg" xmlns:xlink="http://www.w3.org/1999/xlink" x="0px" y="0px"
	 width="240px" height="240px" viewBox="0 0 240 240" style="enable-background:new 0 0 240 240;" xml:space="preserve">
<path d="M30.542,196.534h40.276v30.03c0,7.424-6.007,13.436-13.426,13.436H43.968c-7.418,0-13.425-6.012-13.425-13.436V196.534z
	 M170.235,226.564c0,7.424,6.009,13.436,13.425,13.436h13.427c7.419,0,13.425-6.012,13.425-13.436v-30.03h-40.276V226.564z
	 M240,107.476v80.499H0v-80.499h7.684l20.072-74.963v-0.037h52.075V0h90.404v32.477h42.393v0.247l0.118-0.032l20.023,74.784H240z
	 M38.958,107.476h162.538l-15.328-57.247H54.287L38.958,107.476z M60.834,147.725c0-10.931-8.855-19.791-19.777-19.791
	s-19.777,8.86-19.777,19.791c0,10.931,8.855,19.791,19.777,19.791S60.834,158.656,60.834,147.725z M220.055,147.725
	c0-10.931-8.854-19.791-19.777-19.791c-10.922,0-19.777,8.86-19.777,19.791c0,10.931,8.855,19.791,19.777,19.791
	C211.2,167.516,220.055,158.656,220.055,147.725z"/>
</svg>
