<?xml version="1.0" encoding="utf-8"?>
<!-- Generated by IcoMoon.io -->
<!DOCTYPE svg PUBLIC "-//W3C//DTD SVG 1.1//EN" "http://www.w3.org/Graphics/SVG/1.1/DTD/svg11.dtd">
<svg version="1.1" xmlns="http://www.w3.org/2000/svg" xmlns:xlink="http://www.w3.org/1999/xlink" width="32" height="32" viewBox="0 0 32 32">
<path d="M7.050 26.609c0 0.741 0.6 1.341 1.341 1.341h1.341c0.741 0 1.341-0.6 1.341-1.341v-2.997h-4.022v2.997z" fill="#000000"></path>
<path d="M21 26.609c0 0.741 0.6 1.341 1.341 1.341h1.341c0.741 0 1.341-0.6 1.341-1.341v-2.997h-4.022v2.997z" fill="#000000"></path>
<path d="M4 14.725v8.033h23.967v-8.033h-23.967zM8.1 20.717c-1.091 0-1.975-0.884-1.975-1.975s0.884-1.975 1.975-1.975 1.975 0.884 1.975 1.975-0.884 1.975-1.975 1.975zM24 20.717c-1.091 0-1.975-0.884-1.975-1.975s0.884-1.975 1.975-1.975 1.975 0.884 1.975 1.975-0.884 1.975-1.975 1.975z" fill="#000000"></path>
<path d="M22.33 9.022l2.914-0.781 1.74 6.496-2.914 0.781-1.74-6.496z" fill="#000000"></path>
<path d="M7.945 15.518l-2.914-0.781 1.74-6.496 2.914 0.781-1.74 6.496z" fill="#000000"></path>
<path d="M6.772 7.241h18.462v1.772h-18.462v-1.772z" fill="#000000"></path>
<path d="M11.972 4h9.028v3.241h-9.028v-3.241z" fill="#000000"></path>
</svg>
