<?xml version="1.0" encoding="iso-8859-1"?>
<!-- Generator: Adobe Illustrator 16.0.0, SVG Export Plug-In . SVG Version: 6.00 Build 0)  -->
<!DOCTYPE svg PUBLIC "-//W3C//DTD SVG 1.1//EN" "http://www.w3.org/Graphics/SVG/1.1/DTD/svg11.dtd">
<svg version="1.1" id="Layer_2" xmlns="http://www.w3.org/2000/svg" xmlns:xlink="http://www.w3.org/1999/xlink" x="0px" y="0px"
	 width="240px" height="240px" viewBox="0 0 240 240" style="enable-background:new 0 0 240 240;" xml:space="preserve">
<path style="fill:#231F20;" d="M225.754,91.929c2.286-6.796,5.772-14.798,10.593-19.62h-39.73c-0.661-0.202-1.346-0.339-2.014-0.52
	c-2.16-3.386-16.938-22.457-76.009-22.457c-64.826,0-76.315,22.977-76.315,22.977H0.839c5.286,5.286,8.959,14.385,11.209,21.535
	C4.409,103.972-0.178,116.525-0.178,130.16c0,33.365,27.145,60.508,60.509,60.508c18.495,0,35.057-8.359,46.165-21.481
	l13.738,19.236l11.856-19.984c11.104,13.557,27.962,22.229,46.815,22.229c33.364,0,60.511-27.143,60.511-60.508
	C239.416,115.67,234.282,102.359,225.754,91.929z M60.331,178.787c-26.813,0-48.628-21.812-48.628-48.627
	c0-26.815,21.815-48.626,48.628-48.626c26.814,0,48.628,21.812,48.628,48.626C108.959,156.976,87.145,178.787,60.331,178.787z
	 M178.905,178.787c-26.812,0-48.628-21.812-48.628-48.627c0-26.815,21.815-48.626,48.628-48.626s48.63,21.812,48.63,48.626
	C227.535,156.976,205.718,178.787,178.905,178.787z M39.774,109.604c-5.492,5.487-8.516,12.791-8.516,20.556
	s3.024,15.068,8.516,20.557c5.491,5.493,12.791,8.516,20.557,8.516c16.031,0,29.073-13.041,29.073-29.072
	s-13.042-29.071-29.073-29.071C52.565,101.089,45.265,104.111,39.774,109.604z M46.074,144.416
	c-3.808-3.805-5.905-8.869-5.905-14.256c0-5.386,2.097-10.45,5.905-14.256c3.809-3.811,8.871-5.905,14.257-5.905
	c11.118,0,20.163,9.044,20.163,20.161c0,11.118-9.045,20.162-20.163,20.162C54.945,150.322,49.882,148.228,46.074,144.416z
	 M158.35,109.604c-5.491,5.487-8.516,12.791-8.516,20.556s3.024,15.068,8.516,20.557c5.49,5.493,12.791,8.516,20.556,8.516
	c16.034,0,29.075-13.041,29.075-29.072s-13.041-29.071-29.075-29.071C171.141,101.089,163.84,104.111,158.35,109.604z
	 M164.649,144.416c-3.809-3.805-5.905-8.869-5.905-14.256c0-5.386,2.097-10.45,5.905-14.256c3.809-3.811,8.873-5.905,14.256-5.905
	c11.121,0,20.164,9.044,20.164,20.161c0,11.118-9.043,20.162-20.164,20.162C173.522,150.322,168.458,148.228,164.649,144.416z
	 M60.331,120.313c5.438,0,9.847,4.408,9.847,9.847s-4.409,9.848-9.847,9.848s-9.847-4.409-9.847-9.848
	S54.893,120.313,60.331,120.313z M178.905,120.313c5.441,0,9.851,4.408,9.851,9.847s-4.409,9.848-9.851,9.848
	c-5.436,0-9.844-4.409-9.844-9.848S173.47,120.313,178.905,120.313z"/>
</svg>
