<?xml version="1.0" encoding="iso-8859-1"?>
<!-- Generator: Adobe Illustrator 16.0.0, SVG Export Plug-In . SVG Version: 6.00 Build 0)  -->
<!DOCTYPE svg PUBLIC "-//W3C//DTD SVG 1.1//EN" "http://www.w3.org/Graphics/SVG/1.1/DTD/svg11.dtd">
<svg version="1.1" id="Layer_2" xmlns="http://www.w3.org/2000/svg" xmlns:xlink="http://www.w3.org/1999/xlink" x="0px" y="0px"
	 width="240px" height="240px" viewBox="0 0 240 240" style="enable-background:new 0 0 240 240;" xml:space="preserve">
<g>
	<path style="fill:#010101;" d="M31.736,87.321c-3.674,2.42-9.238,1.868-12.365-1.229L5.684,72.535
		c-3.126-3.097-2.693-7.633,0.963-10.081c0,0,66.383-44.454,113.102-44.454c46.978,0,113.617,44.931,113.617,44.931
		c3.648,2.459,4.076,7.006,0.95,10.102l-13.632,13.503c-3.126,3.096-8.683,3.639-12.349,1.206c0,0-51.451-34.154-88.536-34.154
		C82.947,53.588,31.736,87.321,31.736,87.321z M119.899,120.66c18.293,0,40.405,14.442,40.405,14.442
		c3.684,2.406,9.255,1.841,12.381-1.255l13.631-13.503c3.125-3.097,2.698-7.643-0.95-10.103c0,0-37.33-25.169-65.515-25.169
		c-28.031,0-65.203,24.891-65.203,24.891c-3.656,2.448-4.09,6.985-0.964,10.081l13.688,13.56c3.126,3.096,8.705,3.673,12.398,1.281
		C79.77,134.885,101.733,120.66,119.899,120.66z M120.647,165.669c-11.8,0-21.367,9.476-21.367,21.165
		c0,11.689,9.566,21.166,21.367,21.166c11.799,0,21.365-9.477,21.365-21.166C142.012,175.145,132.447,165.669,120.647,165.669z"/>
</g>
</svg>
