<?xml version="1.0" encoding="iso-8859-1"?>
<!-- Generator: Adobe Illustrator 16.0.0, SVG Export Plug-In . SVG Version: 6.00 Build 0)  -->
<!DOCTYPE svg PUBLIC "-//W3C//DTD SVG 1.1//EN" "http://www.w3.org/Graphics/SVG/1.1/DTD/svg11.dtd">
<svg version="1.1" id="Layer_2" xmlns="http://www.w3.org/2000/svg" xmlns:xlink="http://www.w3.org/1999/xlink" x="0px" y="0px"
	 width="240px" height="240px" viewBox="0 0 240 240" style="enable-background:new 0 0 240 240;" xml:space="preserve">
<path style="fill:#010101;" d="M25.055,98.722L0,73.905C30.722,43.681,73.03,25,119.749,25c46.978,0,89.492,18.886,120.25,49.403
	L215,99.167C190.474,75.32,156.885,60.588,119.8,60.588C82.947,60.588,49.543,75.137,25.055,98.722z M119.899,127.66
	c18.293,0,34.882,7.172,47.103,18.817l24.997-24.764c-18.453-18.309-43.963-29.641-72.148-29.641
	c-28.031,0-53.417,11.208-71.851,29.342l25.055,24.819C85.247,134.733,101.733,127.66,119.899,127.66z M120.647,172.669
	c-11.8,0-21.367,9.476-21.367,21.165c0,11.689,9.566,21.166,21.367,21.166c11.799,0,21.365-9.477,21.365-21.166
	C142.012,182.145,132.447,172.669,120.647,172.669z"/>
</svg>
