<?xml version="1.0" encoding="utf-8"?>
<!-- Generated by IcoMoon.io -->
<!DOCTYPE svg PUBLIC "-//W3C//DTD SVG 1.1//EN" "http://www.w3.org/Graphics/SVG/1.1/DTD/svg11.dtd">
<svg version="1.1" xmlns="http://www.w3.org/2000/svg" xmlns:xlink="http://www.w3.org/1999/xlink" width="32" height="32" viewBox="0 0 32 32">
<path d="M15.98 10.029c3.692 0 7.036 1.481 9.478 3.877l2.489-2.489c-3.062-3.067-7.295-4.965-11.972-4.965-4.651 0-8.863 1.878-11.922 4.915l2.494 2.494c2.438-2.37 5.764-3.832 9.433-3.832z" fill="#000000"></path>
<path d="M15.99 16.77c1.821 0 3.473 0.721 4.69 1.891l2.489-2.489c-1.837-1.84-4.377-2.979-7.183-2.979-2.791 0-5.318 1.127-7.153 2.949l2.494 2.494c1.214-1.156 2.855-1.867 4.664-1.867z" fill="#000000"></path>
<path d="M18.192 23.421c0 1.175-0.952 2.127-2.127 2.127s-2.127-0.952-2.127-2.127c0-1.175 0.952-2.127 2.127-2.127s2.127 0.952 2.127 2.127z" fill="#000000"></path>
</svg>
