<?xml version="1.0" encoding="utf-8"?>
<!-- Generator: Adobe Illustrator 16.0.0, SVG Export Plug-In . SVG Version: 6.00 Build 0)  -->
<!DOCTYPE svg PUBLIC "-//W3C//DTD SVG 1.0//EN" "http://www.w3.org/TR/2001/REC-SVG-20010904/DTD/svg10.dtd">
<svg version="1.0" id="Layer_2" xmlns="http://www.w3.org/2000/svg" xmlns:xlink="http://www.w3.org/1999/xlink" x="0px" y="0px"
	 width="240px" height="240px" viewBox="0 0 240 240" enable-background="new 0 0 240 240" xml:space="preserve">
<g>
	<path fill="#010101" d="M31.736,94.321c-3.674,2.42-9.238,1.868-12.364-1.229L5.684,79.535c-3.126-3.097-2.692-7.633,0.963-10.081
		c0,0,66.383-44.454,113.102-44.454c46.978,0,113.617,44.931,113.617,44.931c3.647,2.459,4.075,7.006,0.949,10.102l-13.632,13.504
		c-3.126,3.096-8.683,3.639-12.349,1.206c0,0-51.45-34.155-88.535-34.155C82.947,60.588,31.736,94.321,31.736,94.321z
		 M119.899,127.66c18.292,0,40.405,14.441,40.405,14.441c3.685,2.406,9.256,1.842,12.382-1.255l13.63-13.504
		c3.126-3.097,2.698-7.643-0.949-10.102c0,0-37.33-25.168-65.515-25.168c-28.031,0-65.204,24.891-65.204,24.891
		c-3.656,2.448-4.09,6.984-0.964,10.081l13.688,13.559c3.126,3.097,8.705,3.673,12.398,1.281
		C79.77,141.884,101.733,127.66,119.899,127.66z M120.646,172.669c-11.799,0-21.367,9.476-21.367,21.165S108.846,215,120.646,215
		c11.799,0,18.07-13.876,18.07-13.876c1.812-4.01,1.812-10.57,0-14.58C138.717,186.544,132.447,172.669,120.646,172.669z"/>
</g>
</svg>
