<?xml version="1.0" encoding="iso-8859-1"?>
<!-- Generator: Adobe Illustrator 16.0.0, SVG Export Plug-In . SVG Version: 6.00 Build 0)  -->
<!DOCTYPE svg PUBLIC "-//W3C//DTD SVG 1.1//EN" "http://www.w3.org/Graphics/SVG/1.1/DTD/svg11.dtd">
<svg version="1.1" id="Layer_1" xmlns="http://www.w3.org/2000/svg" xmlns:xlink="http://www.w3.org/1999/xlink" x="0px" y="0px"
	 width="240px" height="240px" viewBox="0 0 240 240" style="enable-background:new 0 0 240 240;" xml:space="preserve">
<path d="M80.062,104.021c0,13.241-10.729,23.979-23.963,23.979c-13.232,0-23.962-10.737-23.962-23.979
	c0-13.239,10.729-23.975,23.962-23.975C69.333,80.047,80.062,90.783,80.062,104.021z M80.062,128c42.6,0,85.201,0,127.801,0
	C162.821,84.372,125.716,86.39,80.062,128L80.062,128z M232,112c-4.4,0-8,3.6-8,8v8v7.75c0,4.263-3.6,7.75-8,7.75H24
	c-4.4,0-8-3.487-8-7.75V88v-8v-7.75c0-4.4-3.6-8-8-8s-8,3.6-8,8V80v8v47.75v15.75v16v16v0.5v8h16v-8v-0.5c0-4.4,3.6-8,8-8h192
	c4.4,0,8,3.6,8,8v0.5v7.75h6.058c0.623,0.157,1.271,0.25,1.942,0.25s1.319-0.093,1.942-0.25H240V184v-0.5v-16v-16v-15.75V128v-8
	C240,115.6,236.4,112,232,112z"/>
</svg>
