<?xml version="1.0" encoding="utf-8"?>
<!-- Generator: Adobe Illustrator 16.0.0, SVG Export Plug-In . SVG Version: 6.00 Build 0)  -->
<!DOCTYPE svg PUBLIC "-//W3C//DTD SVG 1.1//EN" "http://www.w3.org/Graphics/SVG/1.1/DTD/svg11.dtd">
<svg version="1.1" xmlns="http://www.w3.org/2000/svg" xmlns:xlink="http://www.w3.org/1999/xlink" x="0px" y="0px" width="240px"
	 height="240px" viewBox="0 0 240 240" enable-background="new 0 0 240 240" xml:space="preserve">
<g id="Layer_1" display="none">
	<path display="inline" d="M-87.954,644.021c0,13.241-10.729,23.979-23.963,23.979c-13.232,0-23.962-10.737-23.962-23.979
		c0-13.239,10.729-23.975,23.962-23.975C-98.683,620.047-87.954,630.783-87.954,644.021z M-87.954,668c42.6,0,85.202,0,127.801,0
		C-5.195,624.372-42.3,626.39-87.954,668L-87.954,668z M63.984,652c-4.4,0-8,3.6-8,8v8v7.75c0,4.264-3.6,7.75-8,7.75h-192
		c-4.4,0-8-3.486-8-7.75V628v-8v-7.75c0-4.4-3.6-8-8-8s-8,3.6-8,8V620v8v47.75v15.75v16v16v0.5v8h16v-8v-0.5c0-4.4,3.6-8,8-8h192
		c4.4,0,8,3.6,8,8v0.5v7.75h6.059c0.623,0.157,1.271,0.25,1.941,0.25s1.318-0.093,1.941-0.25h6.059V724v-0.5v-16v-16v-15.75V668v-8
		C71.984,655.6,68.385,652,63.984,652z"/>
</g>
<g id="Layer_2">
	<path d="M112.08,111.497C133.913,109.467,151,91.322,151,69.231c0-3.172-0.363-6.258-1.031-9.231H66.031
		C65.363,62.973,65,66.059,65,69.231c0,22.091,17.087,40.236,38.92,42.266v60.448H74.857V180h66.285v-8.056H112.08V111.497z"/>
	<path d="M213,24h-9v192h9c1.656,0,3-1.344,3-3V27C216,25.343,214.656,24,213,24z"/>
	<path d="M27,24c-1.656,0-3,1.343-3,3v186c0,1.656,1.344,3,3,3h165V24H27z M180,204H36V36h144V204z"/>
</g>
</svg>
