<?xml version="1.0" encoding="iso-8859-1"?>
<!-- Generator: Adobe Illustrator 16.0.0, SVG Export Plug-In . SVG Version: 6.00 Build 0)  -->
<!DOCTYPE svg PUBLIC "-//W3C//DTD SVG 1.1//EN" "http://www.w3.org/Graphics/SVG/1.1/DTD/svg11.dtd">
<svg version="1.1" id="Layer_3" xmlns="http://www.w3.org/2000/svg" xmlns:xlink="http://www.w3.org/1999/xlink" x="0px" y="0px"
	 width="240px" height="240px" viewBox="0 0 240 240" style="enable-background:new 0 0 240 240;" xml:space="preserve">
<g>
	<path style="fill:#010101;" d="M235.343,91.923c2.562-3.578,2.403-9.312-0.351-12.743L214.616,53.8
		c-2.754-3.431-8.351-7.575-12.436-9.208l-11.877-4.75c-4.085-1.633-10.207-5.259-13.604-8.056l-7.983-6.575
		c-3.396-2.797-5.82-1.503-5.387,2.875l1.172,11.828c0.434,4.378-1.501,10.739-4.299,14.134L138.258,80.67
		c-2.798,3.395-8.687,6.265-13.086,6.378l-77.303,1.982c-4.399,0.113-11.262-1.313-15.251-3.17L14.563,77.46
		c-3.989-1.856-8.898-1.641-10.908,0.479s-0.785,6.028,2.722,8.685l22.579,17.103c3.507,2.657,5.554,8.335,4.547,12.619
		l-7.485,31.862c-1.006,4.284-1.83,11.388-1.83,15.788v35.879c0,4.4,3.6,8,8,8h8.353c4.4,0,8-3.6,8-8v-35.879c0-4.4,3.6-8,8-8
		h76.337c4.4,0,8,3.6,8,8v35.879c0,4.4,3.6,8,8,8h8.353c4.4,0,8-3.6,8-8v-35.879c0-4.4,1.363-11.332,3.03-15.404l15.477-37.819
		c1.667-4.072,6.619-7.122,11.006-6.777l22.277,1.75c4.387,0.345,10.071-2.3,12.633-5.878L235.343,91.923z"/>
</g>
</svg>
