<?xml version="1.0" encoding="iso-8859-1"?>
<!-- Generator: Adobe Illustrator 16.0.0, SVG Export Plug-In . SVG Version: 6.00 Build 0)  -->
<!DOCTYPE svg PUBLIC "-//W3C//DTD SVG 1.1//EN" "http://www.w3.org/Graphics/SVG/1.1/DTD/svg11.dtd">
<svg version="1.1" id="Layer_2" xmlns="http://www.w3.org/2000/svg" xmlns:xlink="http://www.w3.org/1999/xlink" x="0px" y="0px"
	 width="240px" height="240px" viewBox="0 0 240 240" style="enable-background:new 0 0 240 240;" xml:space="preserve">
<path d="M224.517,48H15.484C6.946,48,0,54.861,0,63.295v129.41C0,201.139,6.946,208,15.484,208h209.033
	c8.537,0,15.483-6.861,15.483-15.295V63.295C240,54.861,233.054,48,224.517,48z M236,139.068v26.986v19.003
	c0,8.434-6.715,15.295-14.967,15.295H18.968C10.715,200.353,4,193.491,4,185.058v-19.003v-26.986V67.287
	c0-8.434,6.715-15.295,14.968-15.295h202.065c8.252,0,14.967,6.861,14.967,15.295V139.068z M192,127.994
	c0,23.798-19.288,43.09-43.081,43.09c-9.748,0-18.74-3.243-25.959-8.699c0,0,0,0,0.003,0c6.061-5.626,10.628-12.824,13.063-20.942
	h-4.011c-2.354,7.182-6.543,13.534-12.013,18.49c-5.473-4.956-9.66-11.309-12.016-18.49h-4.008
	c2.43,8.118,7.003,15.316,13.058,20.942l0,0c-7.216,5.456-16.206,8.699-25.956,8.699c-23.793,0-43.081-19.292-43.081-43.09
	c0-23.787,19.288-43.078,43.081-43.078c9.75,0,18.74,3.236,25.956,8.697l0,0c-6.435,5.976-11.204,13.733-13.495,22.479h3.965
	c2.24-7.809,6.631-14.715,12.496-20.025c5.859,5.311,10.25,12.217,12.496,20.025h3.965c-2.293-8.745-7.059-16.503-13.5-22.479
	c-0.003,0-0.003,0-0.003,0c7.219-5.461,16.211-8.697,25.959-8.697C172.712,84.916,192,104.207,192,127.994z M73.643,117.73h-6.9
	l-4.309,12.85l-0.179-12.85h-6.39l-3.472,20.76h4.156l2.68-15.866L59.6,138.49h3.026l5.686-15.957l-2.549,15.957h4.448
	L73.643,117.73z M81.903,130.968c-0.465-0.051-0.67-0.066-0.991-0.066c-2.518,0-3.792,0.861-3.792,2.564
	c0,1.056,0.622,1.726,1.595,1.726C80.523,135.191,81.829,133.466,81.903,130.968z M86.462,129.527
	c0.224-1.408,0.366-2.479,0.36-3.35c0.006-3.233-2.019-4.944-5.833-4.944c-1.641,0-3.103,0.241-5.319,0.894
	c0,0-0.568,3.512-0.613,3.793c0.738-0.242,2.532-0.781,4.701-0.759c2.078,0,2.85,0.415,2.85,1.536c0,0.301-0.034,0.542-0.17,1.096
	c-0.661-0.085-1.312-0.134-1.811-0.134c-4.931,0-7.8,2.396-7.8,6.511c0,2.73,1.652,4.615,4.056,4.615
	c2.036,0,3.537-0.664,4.658-2.044l-0.085,1.749c0,0,3.091,0,3.682,0C85.25,137.218,86.081,131.967,86.462,129.527z M143.177,117.214
	c-5.891,0-10.006,5.18-10.006,12.605c0,5.525,2.978,8.966,7.761,8.966c1.231,0,2.29-0.165,3.928-0.613l0.778-4.734
	c-1.474,0.732-2.68,1.067-3.775,1.067c-2.58,0-4.142-1.902-4.142-5.052c0-4.569,2.319-7.78,5.638-7.78
	c1.237,0,2.387,0.323,3.974,1.121l0.727-4.508C147.406,118.037,145.115,117.214,143.177,117.214z M155.979,130.968
	c-0.466-0.051-0.67-0.066-0.987-0.066c-2.521,0-3.793,0.861-3.793,2.564c0,1.056,0.619,1.726,1.593,1.726
	C154.596,135.191,155.902,133.466,155.979,130.968z M160.534,129.527c0.228-1.408,0.372-2.479,0.363-3.35
	c0.003-3.233-2.015-4.944-5.833-4.944c-1.644,0-3.105,0.241-5.316,0.894c0,0-0.57,3.512-0.616,3.793
	c0.741-0.242,2.529-0.781,4.704-0.759c2.074,0,2.85,0.415,2.85,1.536c0,0.301-0.04,0.542-0.173,1.096
	c-0.665-0.085-1.309-0.134-1.812-0.134c-4.934,0-7.801,2.396-7.801,6.511c0,2.73,1.649,4.615,4.057,4.615
	c2.032,0,3.534-0.664,4.658-2.044l-0.088,1.749c0,0,3.091,0,3.682,0C159.325,137.218,160.154,131.967,160.534,129.527z
	 M106.976,134.499c-0.301,0.107-0.69,0.153-1.198,0.153c-1.053,0-1.521-0.381-1.521-1.243c0.008-0.534,0.741-4.532,1.257-7.742
	h2.271l0.604-4.062h-2.268l0.514-2.555h-4.414c0,0-1.672,9.946-1.928,11.524c-0.281,1.796-0.642,3.755-0.61,4.504
	c0,2.396,1.241,3.707,3.512,3.707c1.027,0,1.976-0.165,3.19-0.551L106.976,134.499z M121.3,133.897
	c-1.587,0.743-3.015,1.066-4.596,1.066c-2.569,0-4.139-1.021-3.838-3.469h8.797c0.38-1.71,0.542-2.91,0.542-4.15
	c0-3.738-2.325-6.111-5.97-6.111c-4.448,0-7.729,4.246-7.729,10.019c0,4.944,2.581,7.527,7.525,7.533
	c1.55,0.006,3.015-0.222,4.527-0.687L121.3,133.897z M118.078,128.082c0.026-0.346,0.469-3.012-2.055-3.012
	c-1.405,0-2.41,1.076-2.824,3.012H118.078z M88.548,126.947c0,2.137,1.033,3.604,3.384,4.713c1.797,0.846,2.078,1.096,2.078,1.862
	c0,1.056-0.797,1.527-2.552,1.527c-1.326,0-2.56-0.205-3.982-0.664c0,0-0.582,3.718-0.607,3.899c1.005,0.216,1.908,0.421,4.618,0.5
	c4.692,0,6.858-1.788,6.858-5.644c0-2.32-0.905-3.686-3.136-4.707c-1.859-0.857-2.075-1.048-2.075-1.834
	c0-0.914,0.738-1.382,2.177-1.382c0.872,0,2.063,0.093,3.19,0.255l0.633-3.917c-1.15-0.179-2.896-0.323-3.912-0.323
	C90.251,121.233,88.531,123.824,88.548,126.947z M187.623,117.73h-4.389l-0.981,5.998c-1.218-1.596-2.519-2.3-4.241-2.3
	c-3.92,0-7.232,4.732-7.232,10.351c0,4.219,2.135,7.006,5.364,7.006c1.633,0,2.879-0.567,4.097-1.868l-0.207,1.573h4.203
	L187.623,117.73z M175.406,131.263c0-3.322,1.425-5.673,3.445-5.673c1.524,0,2.354,1.164,2.354,3.308
	c0,3.348-1.453,5.692-3.525,5.692C176.167,134.59,175.406,133.472,175.406,131.263z M163.969,121.604
	c-0.553,5.231-1.541,10.521-2.315,15.75l-0.205,1.136h4.442c1.593-10.328,1.979-12.341,4.469-12.088
	c0.399-2.115,1.135-3.969,1.691-4.899c-1.862-0.381-2.904,0.667-4.267,2.662c0.11-0.857,0.307-1.703,0.272-2.561H163.969z
	 M125.132,121.604c-0.557,5.231-1.544,10.521-2.319,15.75l-0.201,1.136h4.448c1.589-10.328,1.973-12.341,4.462-12.088
	c0.4-2.115,1.139-3.969,1.686-4.899c-1.855-0.381-2.9,0.667-4.255,2.662c0.103-0.857,0.301-1.703,0.262-2.561H125.132z
	 M187.742,139.239c0.772,0,1.396-0.63,1.396-1.394c0-0.77-0.624-1.391-1.396-1.391c-0.771,0-1.391,0.621-1.391,1.391
	C186.352,138.609,186.971,139.239,187.742,139.239z M186.681,137.846c0-0.582,0.477-1.059,1.062-1.059
	c0.591,0,1.057,0.477,1.057,1.059c0,0.579-0.466,1.059-1.057,1.059C187.157,138.904,186.681,138.425,186.681,137.846z
	 M187.555,137.979h0.21l0.188,0.471h0.318l-0.228-0.531c0.131-0.054,0.216-0.179,0.216-0.317c0-0.122-0.062-0.247-0.159-0.304
	c-0.091-0.062-0.204-0.062-0.312-0.062h-0.517v1.215h0.283V137.979z M187.555,137.454h0.148c0.057,0,0.136-0.012,0.187,0.014
	c0.04,0.034,0.068,0.08,0.068,0.131s-0.022,0.11-0.068,0.142c-0.057,0.023-0.119,0.023-0.176,0.023h-0.159V137.454z
	 M186.352,152.115c0-0.772,0.624-1.399,1.396-1.399c0.767,0,1.391,0.627,1.391,1.399c0,0.764-0.624,1.394-1.391,1.394
	C186.976,153.509,186.352,152.879,186.352,152.115z M187.748,153.174c0.585,0,1.062-0.479,1.062-1.059
	c0-0.588-0.477-1.062-1.062-1.062s-1.062,0.474-1.062,1.062C186.687,152.694,187.163,153.174,187.748,153.174z M187.555,152.24h0.21
	l0.188,0.482h0.318l-0.228-0.539c0.131-0.055,0.216-0.177,0.216-0.312c0-0.122-0.062-0.247-0.153-0.312
	c-0.097-0.068-0.21-0.068-0.317-0.068h-0.517v1.232h0.283V152.24z M187.555,151.718h0.159c0.051,0,0.125-0.006,0.176,0.02
	c0.04,0.025,0.068,0.074,0.068,0.128s-0.022,0.113-0.068,0.142c-0.051,0.026-0.119,0.026-0.17,0.026h-0.165V151.718z"/>
</svg>
