<?xml version="1.0" encoding="iso-8859-1"?>
<!-- Generator: Adobe Illustrator 16.0.0, SVG Export Plug-In . SVG Version: 6.00 Build 0)  -->
<!DOCTYPE svg PUBLIC "-//W3C//DTD SVG 1.1//EN" "http://www.w3.org/Graphics/SVG/1.1/DTD/svg11.dtd">
<svg version="1.1" id="Layer_2" xmlns="http://www.w3.org/2000/svg" xmlns:xlink="http://www.w3.org/1999/xlink" x="0px" y="0px"
	 width="240px" height="240px" viewBox="0 0 240 240" style="enable-background:new 0 0 240 240;" xml:space="preserve">
<path style="fill:#010101;" d="M72.65,94.288h17.087l-25.393,67.586l-17.066,0.012l-13.131-53.857
	c9.34,4.157,17.646,13.2,21.03,23.041l1.691,9.383L72.65,94.288 M86.178,161.944h16.125l10.086-67.712H96.266L86.178,161.944
	 M160.794,95.894c-3.188-1.359-8.206-2.842-14.449-2.842c-15.942,0-27.164,9.189-27.261,22.349
	c-0.097,9.731,8.012,15.161,14.126,18.396c6.283,3.316,8.394,5.438,8.369,8.402c-0.043,4.535-5.015,6.613-9.651,6.613
	c-6.456,0-9.885-1.023-15.188-3.551l-2.075-1.078l-2.255,15.156c3.761,1.887,10.729,3.523,17.966,3.609
	c16.943,0,27.952-9.078,28.082-23.129c0.054-7.719-4.24-13.567-13.545-18.397c-5.634-3.142-9.093-5.22-9.053-8.4
	c0.003-2.812,2.922-5.825,9.237-5.825c5.274-0.093,9.09,1.227,12.069,2.602l1.448,0.773L160.794,95.894 M202.157,94.3l13.049,67.668
	h-14.965c0,0-1.484-7.785-1.964-10.145c-2.353,0-18.804-0.035-20.651-0.035c-0.627,1.832-3.391,10.18-3.391,10.18h-16.939
	l23.95-62.056c1.689-4.413,4.586-5.612,8.452-5.612H202.157 M195.651,137.937c-0.642-3.387-3.734-19.546-3.734-19.546l-1.088-5.84
	c-0.814,2.537-2.233,6.639-2.14,6.46c0,0-5.087,15.031-6.424,18.926C185.414,137.937,193.141,137.937,195.651,137.937z
	 M42.216,94.242h-26L16,95.645c17.89,4.883,32.537,15.446,39.179,35.424l-5.651-31.113C48.553,95.663,45.722,94.392,42.216,94.242z
	 M216.88,157.752c0,2.13,1.565,3.861,3.56,3.861s3.561-1.731,3.561-3.861c0-2.131-1.566-3.861-3.561-3.861
	S216.88,155.621,216.88,157.752z M217.552,157.752c0-1.82,1.27-3.275,2.888-3.275c1.617,0,2.887,1.455,2.887,3.275
	c0,1.819-1.27,3.275-2.887,3.275C218.821,161.027,217.552,159.571,217.552,157.752z M219.139,159.649h0.659v-1.6h0.542
	c0.738,0,0.78,0.363,0.78,0.72c0.03,0.627,0,0.737,0.131,0.88h0.684c-0.145-0.211-0.11-0.318-0.145-0.916
	c-0.027-0.375-0.051-0.841-0.504-0.925v-0.021c0.525-0.244,0.598-0.619,0.598-0.885c0-1.004-0.806-1.109-1.171-1.109h-1.574V159.649
	z M219.798,156.319h0.691c0.438,0,0.723,0.11,0.723,0.583c0,0.275-0.111,0.617-0.65,0.617h-0.764V156.319z M240,63.295v129.41
	c0,8.434-6.946,15.295-15.483,15.295H15.484C6.946,208,0,201.139,0,192.705V63.295C0,54.861,6.946,48,15.484,48h209.033
	C233.054,48,240,54.861,240,63.295z M236,67.287c0-8.434-6.715-15.295-14.967-15.295H18.968C10.715,51.992,4,58.854,4,67.287v71.781
	v26.986v19.003c0,8.434,6.715,15.295,14.968,15.295h202.065c8.252,0,14.967-6.861,14.967-15.295v-19.003v-26.986V67.287z"/>
</svg>
