<?xml version="1.0" encoding="iso-8859-1"?>
<!-- Generator: Adobe Illustrator 16.0.0, SVG Export Plug-In . SVG Version: 6.00 Build 0)  -->
<!DOCTYPE svg PUBLIC "-//W3C//DTD SVG 1.1//EN" "http://www.w3.org/Graphics/SVG/1.1/DTD/svg11.dtd">
<svg version="1.1" id="Layer_2" xmlns="http://www.w3.org/2000/svg" xmlns:xlink="http://www.w3.org/1999/xlink" x="0px" y="0px"
	 width="240px" height="240px" viewBox="0 0 240 240" style="enable-background:new 0 0 240 240;" xml:space="preserve">
<g>
	<g>
		<path d="M199.89,61.308c3.12-3.103,2.073-5.641-2.327-5.641h-7.229c-4.4,0-8-3.6-8-8v-3.437c0-4.4-2.553-5.461-5.673-2.359
			l-16.784,16.691c-3.12,3.103-9.172,4.797-13.45,3.766L29.767,34.204c-4.278-1.031-10.33,0.664-13.45,3.766L5.673,48.554
			c-3.12,3.103-2.456,7.256,1.477,9.23l95.927,48.154c3.933,1.974,4.597,6.127,1.477,9.23l-33.139,32.954
			c-3.12,3.103-9.249,5.223-13.619,4.712l-18.092-2.116c-4.37-0.511-10.499,1.609-13.619,4.712l-6.045,6.012
			c-3.12,3.103-2.482,7.309,1.417,9.348l24.601,12.863c3.899,2.039,8.772,6.89,10.829,10.779l12.911,24.418
			c2.057,3.89,6.292,4.534,9.412,1.431l6.046-6.012c3.12-3.104,5.231-9.215,4.692-13.581l-2.237-18.113
			c-0.539-4.366,1.572-10.478,4.692-13.58l33.139-32.955c3.12-3.103,7.302-2.431,9.293,1.493l48.391,95.334
			c1.991,3.924,6.174,4.596,9.294,1.493l10.644-10.584c3.12-3.103,4.798-9.133,3.729-13.4L177.536,93.23
			c-1.069-4.268,0.608-10.299,3.729-13.401L199.89,61.308z"/>
	</g>
	<g>
		<path d="M214.121,4.619l-56.026,55.714h17.571v25.064l59.444-59.113C249.705,11.799,228.329-9.458,214.121,4.619z"/>
	</g>
</g>
</svg>
