<?xml version="1.0" standalone="no"?>
<!DOCTYPE svg PUBLIC "-//W3C//DTD SVG 1.1//EN" "http://www.w3.org/Graphics/SVG/1.1/DTD/svg11.dtd" >
<svg xmlns="http://www.w3.org/2000/svg" xmlns:xlink="http://www.w3.org/1999/xlink" version="1.1">
<metadata>
Created by FontForge 20160407 at Wed Oct 19 11:16:34 2016
 By Len Dierickx
</metadata>
<defs>
<font id="rental-icon" horiz-adv-x="512" >
  <font-face 
    font-family="Rental Icon - Astuanax"
    font-weight="400"
    font-stretch="normal"
    units-per-em="512"
    panose-1="2 0 5 3 0 0 0 0 0 0"
    ascent="448"
    descent="-64"
    bbox="-0.909091 -64 512.286 448.154"
    underline-thickness="25"
    underline-position="-76"
    unicode-range="U+F101-F118"
  />
<missing-glyph horiz-adv-x="187" 
d="M17 0v341h136v-341h-136zM34 17h102v307h-102v-307z" />
    <glyph glyph-name=".notdef" horiz-adv-x="187" 
d="M17 0v341h136v-341h-136zM34 17h102v307h-102v-307z" />
    <glyph glyph-name=".null" horiz-adv-x="0" 
 />
    <glyph glyph-name="nonmarkingreturn" horiz-adv-x="170" 
 />
    <glyph glyph-name="airbnb" unicode="&#xf101;" horiz-adv-x="478" 
d="M472 87q10 -30 4 -56q-4 -29 -22.5 -52.5t-45.5 -34.5q-19 -8 -43 -8q-5 0 -13 1q-27 3 -53 18q-29 17 -60 50q-11 -12 -21 -21t-20 -16.5t-20 -12.5q-25 -15 -52 -18q-8 -1 -14 -1q-23 0 -43 8q-27 11 -45.5 34.5t-22.5 52.5q-4 28 6 57q4 10 8 18q2 5 6 12q4 10 6 14v1
q48 104 112 228l2 3l12 24q10 18 19 28q27 32 68 32t67 -33q8 -8 18 -26l1 -2l12 -24l2 -3q57 -110 111 -227l1 -1v-1q2 -4 6 -13l6 -12t5 -12q2 -5 2 -6zM191 184q-2 -13 1 -30q9 -38 47 -88q39 51 47 88q4 16 2 29q-2 11 -8 20q-13 20 -41 20q-27 0 -41 -20q-6 -9 -7 -19z
M326 144q-12 -50 -60 -110q30 -32 54 -45q18 -11 37 -13q20 -2 37 5q38 15 43 56q3 17 -3 37q-1 3 -4 10q-2 3 -3 5q-2 4 -5.5 12.5t-5.5 12.5l-1 1v1q-52 112 -110 226l-2 3q-2 3 -6 11l-6 12q-6 13 -13 21q-16 17 -38 17t-37 -17q-7 -8 -14 -21l-6 -12t-6 -11l-1 -3
q-56 -107 -112 -227v-1q-8 -17 -12 -25q-1 -2 -2 -5q-3 -7 -4 -10v-1q-7 -18 -5 -37q6 -40 44 -56q17 -6 36 -4t37 12q26 15 54 46q-48 61 -59 110q-6 23 -3 45q3 20 14 36q27 37 75 37q49 0 75 -37q11 -16 14 -36q3 -22 -2 -45z" />
    <glyph glyph-name="bookingcom" unicode="&#xf102;" 
d="M478 448q14 0 24 -10t10 -24v-444q0 -14 -10 -24t-24 -10h-371h-73h-34v34v42v402q0 14 10 24t24 10h444zM304 101q22 34 4 72q-8 16 -29 27q7 6 8 7q18 17 18.5 43.5t-16.5 44.5q-20 21 -57 22h-64q-5 0 -10 -2t-8.5 -5.5t-5.5 -8.5t-2 -10v-111.5v-111.5h46h46
q48 1 70 33zM369 63q13 0 22.5 9t9.5 21.5t-9.5 21.5t-22.5 9t-22 -9t-9 -21.5t9 -21.5t22 -9zM261 126q-8 -15 -26 -15h-22h-23v24.5v24.5q0 11 6 15q4 2 22 3q28 0 36 -8q10 -7 11.5 -20.5t-4.5 -23.5zM190 217v20v20q1 11 5 15t19 4q25 -1 31 -5q10 -7 11 -21t-6 -23.5
t-21 -9.5h-19h-20z" />
    <glyph glyph-name="homeaway" unicode="&#xf103;" horiz-adv-x="500" 
d="M360 414l140 -157h-52v-247l-177 -40l-222 40v47l-31 -4q-14 -1 -17 11q-2 8 1 13.5t7 6.5l5 1l35 5v167h-47l133 157h225zM314 227v-66l49 4v64zM65 23l208 -38v272l-106 128l-101 -128l-1 -164l94 10q17 3 19 -13q0 -9 -3.5 -13.5t-8.5 -5.5h-4l-97 -13v-35zM314 73
l49 5v66l-49 -4v-67zM423 84v64l-40 -3v-65zM383 166l41 2l-1 64l-40 -2v-64z" />
    <glyph glyph-name="tripadvisor" unicode="&#xf104;" 
d="M483 219q29 -36 29 -83q0 -55 -38 -93.5t-91 -38.5q-61 0 -100 49l-26 -44l-29 42q-39 -47 -99 -47q-53 0 -91 38.5t-38 93.5q0 43 26 79q-10 32 -24 47h89q0 1 1.5 2.5t6.5 7t12 10t20.5 10t29.5 10t40.5 7t52.5 2.5q35 0 64.5 -4.5t46 -10t29 -13.5t16.5 -12.5t6 -7.5
l2 -1h3h84q-12 -14 -22 -43zM129 30q43 0 73.5 31t30.5 74.5t-30.5 74.5t-73.5 31t-73.5 -31t-30.5 -74.5t30.5 -74.5t73.5 -31zM383 30q43 0 73.5 31t30.5 75q0 28 -14 52.5t-38 38.5t-52 14q-43 0 -73.5 -31t-30.5 -74q0 -29 14 -53.5t38 -38.5t52 -14zM85.5 180.5
q18.5 18.5 44 18.5t43.5 -18.5t18 -44.5t-18 -44.5t-43.5 -18.5t-44 18.5t-18.5 44.5t18.5 44.5zM98.5 105q12.5 -13 30.5 -13t30.5 13t12.5 31t-12.5 31t-30.5 13t-30.5 -13t-12.5 -31t12.5 -31zM339 180.5q18 18.5 44 18.5q12 0 23.5 -5t20 -13.5t13.5 -20t5 -24.5
q0 -26 -18.5 -44.5t-44 -18.5t-43.5 18.5t-18 44.5t18 44.5zM352.5 105q12.5 -13 30.5 -13t30.5 13t12.5 31t-12.5 31t-30.5 13t-30.5 -13t-12.5 -31t12.5 -31zM129.5 157q8.5 0 14.5 -6t6 -15t-6 -15.5t-14.5 -6.5t-15 6.5t-6.5 15.5t6.5 15t15 6zM382.5 157q8.5 0 15 -6
t6.5 -15t-6.5 -15.5t-14.5 -6.5q-4 0 -7 1.5t-5.5 3.5t-4.5 4.5t-3 5.5t-1 7q0 9 6 15t14.5 6z" />
    <glyph glyph-name="baby-care" unicode="&#xf105;" horiz-adv-x="311" 
d="M156 289q-26 0 -44.5 18.5t-18.5 44.5t18.5 44t44.5 18t44 -18t18 -44t-18 -44.5t-44 -18.5zM156 158h-66v48l-51 -51q-11 -11 -23.5 -8t-15 14t7.5 23l84 84q11 11 26 11h38h37q15 0 27 -11l84 -85q10 -10 6.5 -22t-15 -14t-22.5 7l-52 52v-48h-65zM221 133l42 -42
q10 -11 9 -26t-11 -25l-59 -61q-11 -11 -23.5 -7.5t-15 15t6.5 22.5l38 38l-37 36zM90 133l49 -50l-36 -36l37 -38q11 -10 7 -22.5t-15 -15t-23 7.5l-59 61q-10 10 -11.5 25t8.5 26z" />
    <glyph glyph-name="laundry" unicode="&#xf106;" horiz-adv-x="377" 
d="M348 410q12 0 20.5 -8.5t8.5 -20.5v-45h-377v45q0 12 8.5 20.5t20.5 8.5h319zM267 365q6 0 10.5 4t4.5 10q0 4 -2 7.5t-5.5 5.5t-7.5 2q-6 0 -10 -4.5t-4 -10.5t4 -10t10 -4zM325 365q3 0 6 1t5 3t3 4.5t1 5.5q0 4 -2 7.5t-5.5 5.5t-7.5 2q-6 0 -10 -4.5t-4 -10.5t4 -10
t10 -4zM0 311h377v-308q0 -12 -8.5 -20.5t-20.5 -8.5h-319q-12 0 -20.5 8.5t-8.5 20.5v308zM185.5 39q49.5 0 84.5 35t35 84.5t-35 84.5t-85 35q-32 0 -59.5 -16t-43.5 -43.5t-16 -60.5q0 -49 35 -84t84.5 -35z" />
    <glyph glyph-name="parking-o" unicode="&#xf107;" 
d="M0 448h512v-512h-512v512zM486 -38v460h-460v-460h460zM208 159v-116h-38v298h79q112 0 112 -88q0 -45 -31 -69.5t-88 -24.5h-34zM208 309v-118h30q44 0 64 14.5t20 46.5q0 28 -18.5 42.5t-57.5 14.5h-38z" />
    <glyph glyph-name="parking" unicode="&#xf108;" 
d="M322 252q0 -32 -20 -46.5t-64 -14.5h-30v118h38q39 0 57.5 -14.5t18.5 -42.5zM512 448v-512h-512v512h512zM361 253q0 88 -112 88h-79v-298h38v116h34q57 0 88 24.5t31 69.5z" />
    <glyph glyph-name="pooltable" unicode="&#xf109;" horiz-adv-x="423" 
d="M211.5 333q11.5 0 19.5 -8t8 -20q0 -7 -3.5 -13.5t-10 -10.5t-14 -4t-14 4t-10 10.5t-3.5 13.5q0 12 8 20t19.5 8zM177 215q-12 0 -20 8t-9 20q0 11 8.5 19t20.5 8q11 0 19 -8t8 -19q0 -8 -3.5 -14.5t-10 -10t-13.5 -3.5zM218 242.5q0 11.5 8 19.5t20 8q11 0 19.5 -8
t8.5 -19.5t-8.5 -19.5t-19.5 -8q-12 0 -20 8t-8 19.5zM144 209q8 0 14.5 -4t10 -10t3.5 -13.5t-3.5 -14t-10 -10.5t-14 -4t-14 4t-10 10.5t-3.5 13.5q0 12 8 20t19 8zM211.5 209q11.5 0 19.5 -8t8 -20q0 -7 -3.5 -13.5t-10 -10.5t-14.5 -4q-5 0 -10.5 2.5t-9 6t-5.5 9
t-2 10.5q0 12 8 20t19.5 8zM278.5 209q11.5 0 19.5 -8t8 -19.5t-8 -20t-19.5 -8.5t-19.5 8.5t-8 20t8 19.5t19.5 8zM106 148q12 0 20 -8t8 -20q0 -7 -4 -13.5t-10 -10.5t-14 -4q-11 0 -19.5 8.5t-8.5 19.5q0 8 4 14t10.5 10t13.5 4zM176.5 148q11.5 0 19.5 -8t8 -19.5
t-8 -20t-19.5 -8.5t-20 8.5t-8.5 20t8.5 19.5t20 8zM274 120q0 -11 -8 -19.5t-20 -8.5q-7 0 -13.5 4t-10.5 10.5t-4 13.5q0 11 8.5 19.5t20 8.5t19.5 -8t8 -20zM316.5 148q11.5 0 19.5 -8t8 -19.5t-8 -20t-19.5 -8.5t-19.5 8.5t-8 20t8 19.5t19.5 8zM77 91q11 0 19 -8t8 -19
q0 -8 -3.5 -14.5t-10 -10t-13.5 -3.5q-12 0 -20 8t-8 20q0 7 3.5 13.5t10 10t14.5 3.5zM143.5 91q7.5 0 14 -3.5t10.5 -10t4 -13.5q0 -12 -8.5 -20t-19.5 -8q-8 0 -14 3.5t-10 10t-4 14t3.5 14t10 10t14 3.5zM211.5 91q7.5 0 14 -3.5t10 -10t3.5 -13.5q0 -12 -8 -20
t-19.5 -8t-20 8t-8.5 20q0 7 4 13.5t10.5 10t14 3.5zM279 91q12 0 20 -8t8 -19q0 -12 -8 -20t-20 -8q-11 0 -19.5 8t-8.5 20q0 11 8 19t20 8zM346 91q12 0 20 -8t8 -19q0 -12 -8 -20t-20 -8q-11 0 -19.5 8t-8.5 20q0 7 4 13.5t10.5 10t13.5 3.5zM418 69q5 -9 5 -21
q0 -20 -14.5 -34.5t-34.5 -14.5h-325q-20 0 -34.5 14.5t-14.5 34.5q0 12 5 21v1v1l165 291v1h1q14 22 40 22t41 -21v-1l1 -1l164 -292h1v-1zM374 20q8 0 14 4t10 10.5t4 13.5t-3 12l-164 292q-9 12 -23.5 12t-23.5 -12l-165 -292q-2 -5 -2 -12q0 -11 8 -19.5t20 -8.5h325z
" />
    <glyph glyph-name="reception" unicode="&#xf10a;" horiz-adv-x="460" 
d="M210 284q-65 -7 -108.5 -57.5t-43.5 -119.5h344q0 69 -43.5 119.5t-108.5 57.5v51h22q5 0 5 6t-5 6h-84q-6 0 -6 -6t6 -6zM440 68q0 -8 16 -24q7 -7 -1 -7h-450q-8 0 0 8q14 14 14 23q0 13 9 22t21 9h362q12 0 20.5 -9t8.5 -22z" />
    <glyph glyph-name="equestrian" unicode="&#xf10b;" horiz-adv-x="458" 
d="M161 400q-3 17 6.5 31t26.5 16.5t31 -7t17 -26.5t-7 -31t-27 -17t-30.5 7t-16.5 27zM83 214q5 -2 9 -1q9 1 13 9l22 51l34 24v-6q-2 -54 -4 -67q0 -21 16 -33h68l-24 28l1 59l14 -22q3 -6 10 -8l57 -15q3 -1 7 0q11 2 13 12q1 3 0.5 6.5t-2 6t-4 4.5t-5.5 3l-51 13
l-37 63q-6 9 -17 8l-33 -6q-4 -1 -7 -3l-59 -43q-3 -3 -5 -7l-24 -54q-3 -7 -0.5 -13t8.5 -9zM371 190q16 0 28 9t16 23l-34 6l-20 -37q6 -1 10 -1zM257 204v0l129 128l-3 -33l63 -41q9 -4 11 -12.5t-2 -16.5q-8 -13 -23 -10l-5 1q-5 -18 -20.5 -30t-35.5 -12q-8 0 -15 2
l-48 -94v-130q0 -8 -6.5 -14t-15 -6t-14.5 6t-6 14v133h-107l-19 -31l40 -92q4 -7 1.5 -15t-10 -12t-16 -2t-12.5 9l-47 106v33l-20 -31v-98q0 -8 -6.5 -14t-15 -6t-15 6t-6.5 14v113l18 26v88l-18 -25v-74h-33v75q0 18 13.5 31.5t33.5 13.5h210z" />
    <glyph glyph-name="golf" unicode="&#xf10c;" horiz-adv-x="273" 
d="M254 72q4 -9 -7 -21l-4 -4q-16 -16 -36 -26l-31 -15q-5 -3 -9.5 -10t-4.5 -13v-47h-51v47q0 4 -2 9t-5.5 8.5t-6.5 5.5l-30 15q-21 10 -37 26l-4 4q-11 12 -7 21t15 9q20 0 41 -9q33 -14 62 -14t61 14q21 9 41 9q12 0 15 -9zM136.5 107q-56.5 0 -96.5 40t-40 96.5
t40 96.5t96.5 40t96.5 -40t40 -96.5t-40 -96.5t-96.5 -40zM95 220q-1 -17 -17 -22.5t-27 8.5q-7 9 -6 21q4 -23 25 -24q21 1 25 24v-7zM98 330q-3 -17 -19.5 -22t-24.5 9q-6 8 -3 19q0 -21 21 -22q21 1 26 22v-6zM125 151q22 1 26 22v-6q-2 -17 -19.5 -21.5t-27.5 9.5
q-6 8 -6 18q5 -21 27 -22zM123 259q24 1 28 24v-6q-2 -18 -20 -23.5t-29 8.5q-7 9 -5 21q3 -23 26 -24zM160 315q-9 9 -8 21q4 -21 26 -22q22 1 24 22v-6q0 -16 -15 -21.5t-27 6.5zM179 203q22 1 27 24v-7q-3 -18 -19.5 -23t-28.5 9q-7 9 -6 21q4 -23 27 -24zM207 283
q4 -23 25 -24q21 1 23 24q1 -4 0 -6q0 -17 -14.5 -23t-26.5 6q-9 10 -7 23zM74 143q-12 -2 -15 -12q18 -13 39 -19q3 5 4 11v-5t-1 -7h1q1 3 1 6q0 10 -8 18t-21 8zM268 206q5 18 5 37v6q-14 -6 -16.5 -24t9.5 -27v2l-4 4q-7 9 -5 23q2 -15 11 -21zM174 143q-15 -2 -21 -14
t1 -21h1q-1 1 -1 2q-4 6 -3 13q2 -9 9 -14q19 3 36 12l2 2q-1 -1 -1 -2h1q0 9 -6 15.5t-18 6.5zM20 194q-5 -1 -9 -4q9 -21 24 -38q12 4 13 21q0 -4 1 -6q0 -14 -9 -20v-1h1q9 6 8 19q0 11 -8 20.5t-21 8.5zM121 305q-20 -3 -24 -21.5t11 -28.5q12 -9 27 -2t16 22
q2 12 -7 21.5t-23 8.5zM151 277q-2 -18 -20 -23.5t-29 8.5q-7 9 -5 21q3 -23 26 -24q24 1 28 24v-6zM228 194q-18 -3 -23.5 -20.5t7.5 -26.5q8 -6 18 -3q2 1 3 2q-18 -6 -26 9q-5 8 -3 18q2 -21 21 -22q20 1 26 22v-5v1q1 6 -1 12t-8 10t-14 3zM44 275q2 13 -4.5 22t-18.5 8
q-4 0 -7 -2q-8 -16 -11 -32q5 -11 17 -12q19 1 24 24v-6q-3 -17 -16.5 -23t-23.5 6q-1 2 -2 5q0 -1 -1 -2q3 -6 8 -9q10 -8 21.5 -0.5t13.5 21.5zM96 219q0 7 -3 14t-10 12t-17 5q-19 -3 -22 -22t12 -29q12 -9 25 -2t15 22zM51 206q-7 9 -6 21q4 -23 25 -24q21 1 25 24v-7
q-1 -17 -17 -22.5t-27 8.5zM121 194q-19 -3 -22.5 -19t10.5 -27q12 -9 26 -3.5t16 20.5q1 12 -7.5 21t-22.5 8zM151 167q-2 -17 -19.5 -21.5t-27.5 9.5q-6 8 -6 18q5 -21 27 -22q22 1 26 22v-6zM126 364q18 0 23 15q-7 1 -12 1q-16 0 -31 -4q4 -12 20 -12zM227 305
q-18 -3 -20.5 -21.5t11.5 -28.5q12 -9 24.5 -2t13.5 22q0 13 -8 22t-21 8zM255 283q1 -4 0 -6q0 -17 -14.5 -23t-26.5 6q-9 10 -7 23q4 -23 25 -24q21 1 23 24zM112 360q11 -7 24 -1.5t14 18.5v2v-1q-1 -15 -17 -19.5t-25 7.5q-4 4 -4 10h-1q1 -10 9 -16zM58 310
q10 -8 24 -2t16 21q2 10 -4 19t-19 8q-18 -3 -23.5 -20t6.5 -26zM54 317q-6 8 -3 19q0 -21 21 -22q21 1 26 22v-6q-3 -17 -19.5 -22t-24.5 9zM177 250q-21 -3 -25 -22t12 -29q12 -9 26 -2.5t16 22.5q1 12 -6.5 22t-22.5 9zM206 220q-3 -18 -19.5 -23t-28.5 9q-7 9 -6 21
q4 -23 27 -24q22 1 27 24v-7zM161 311q13 -10 27.5 -4t14.5 22q0 10 -8 19t-22 8q-17 -3 -21 -19t9 -26zM152 336q4 -21 26 -22q22 1 24 22v-6q0 -16 -15 -21.5t-27 6.5q-9 9 -8 21z" />
    <glyph glyph-name="swimming-pool-indoor" unicode="&#xf10d;" 
d="M512 62q-24 0 -47 18q-14 12 -26.5 12t-26.5 -12q-23 -18 -46.5 -18t-46.5 18q-14 12 -26.5 12t-27.5 -12q-22 -18 -45.5 -18t-46.5 18q-14 12 -27 12t-27 -12q-22 -18 -46 -18t-46 18q-14 12 -27 12v30q24 0 46 -19q14 -12 27 -12t27 12q22 19 46 19t46 -19
q14 -12 27 -12t27 12q23 19 46.5 19t46.5 -19q14 -12 26.5 -12t26.5 12q23 19 46.5 19t46.5 -19q14 -12 27 -12v-29zM402.5 295q26.5 0 45.5 -19t19 -45.5t-19 -45.5t-45.5 -19t-45.5 19t-19 45.5t19 45.5t45.5 19zM219 213l-51 -20q-16 -6 -24 4q-3 4 -1 9.5t8 8.5l72 34
q15 7 31 0l37 -16q16 -7 25 -22l36 -59q9 -14 4.5 -22.5t-9.5 -4.5l-3 2q-23 20 -47.5 20t-48.5 -20q-14 -12 -27.5 -12t-28.5 12l-3 3q-7 5 7 16l57 45q6 4 5.5 9.5t-6.5 9.5l-2 1q-15 8 -31 2zM512 34v-30q-24 0 -47 19q-14 12 -26.5 12t-26.5 -12q-23 -19 -46.5 -19
t-46.5 19q-14 12 -26.5 12t-27.5 -12q-22 -19 -45.5 -19t-46.5 19q-14 12 -27 12t-27 -12q-22 -19 -46 -19t-46 19q-14 12 -27 12v30q24 0 46 -19q14 -12 27 -12t27 12q22 19 46 19t46 -19q14 -12 27 -12t27 12q23 19 46.5 19t46.5 -19q14 -12 26.5 -12t26.5 12
q23 19 46.5 19t46.5 -19q14 -12 27 -12zM507 325l-2 -8q-2 -7 -8 -10.5t-13 -1.5l-212 60q-17 5 -33 0l-213 -60q-5 -1 -9 0t-7 4t-4 8l-2 8q-2 7 1.5 13t10.5 8l223 63l16 5v0l17 -5l222 -63q7 -2 10.5 -8t2.5 -13z" />
    <glyph glyph-name="swimming-pool" unicode="&#xf10e;" 
d="M485 103q14 -12 27 -12v-29q-24 0 -46 18q-14 12 -27 12t-27 -12q-23 -18 -46.5 -18t-45.5 18q-15 12 -27.5 12t-26.5 -12q-23 -18 -46.5 -18t-46.5 18q-14 12 -27 12t-27 -12q-22 -18 -46 -18t-46 18q-14 12 -27 12v30q24 0 46 -19q14 -12 27 -12t27 12q23 19 46.5 19
t45.5 -19q15 -12 27.5 -12t26.5 12q23 19 46.5 19t46.5 -19q14 -12 27 -12t27 12q22 19 46 19t46 -19zM338 230.5q0 26.5 19 45t45.5 18.5t45.5 -18.5t19 -45t-19 -45.5t-45.5 -19t-45.5 19t-19 45.5zM168 193q-16 -7 -24 4q-3 4 -1 9.5t8 8.5l72 33q15 8 31 1l37 -17
q16 -7 25 -21l36 -59q9 -14 4.5 -22.5t-9.5 -4.5l-2 2q-24 20 -48.5 20t-48.5 -20q-14 -12 -27.5 -12t-28.5 12l-3 3q-7 5 7 15l57 46q6 4 5.5 9.5t-6.5 8.5l-2 2q-15 8 -31 2zM439 64q24 0 46 -18q14 -12 27 -12v-30q-24 0 -46 19q-14 12 -27 12t-27 -12q-23 -19 -46.5 -19
t-45.5 19q-15 12 -27.5 12t-26.5 -12q-23 -19 -46.5 -19t-46.5 19q-14 12 -27 12t-27 -12q-22 -19 -46 -19t-46 19q-14 12 -27 12v29q24 0 46 -18q14 -12 27 -12t27 12q23 18 46.5 18t45.5 -18q15 -12 27.5 -12t26.5 12q23 18 46.5 18t46.5 -18q14 -12 27 -12t27 12
q22 18 46 18z" />
    <glyph glyph-name="airco" unicode="&#xf10f;" 
d="M17 448h478q7 0 12 -5t5 -12v-478q0 -7 -5 -12t-12 -5h-478q-7 0 -12 5t-5 12v478q0 7 5 12t12 5zM471 425q-4 0 -8 -2.5t-6.5 -6.5t-2.5 -8.5t2.5 -8.5t6.5 -6.5t8 -2.5q8 0 13 5t5 12.5t-5 12.5t-13 5zM40.5 425q-7.5 0 -12.5 -5t-5 -13q0 -3 1.5 -6t4 -5.5t5.5 -4
t7 -1.5t8 2.5t6.5 6.5t2.5 8q0 8 -5 13t-12.5 5zM41 -41q7 0 12 5t5 12.5t-5 12.5t-12 5q-5 0 -9 -2.5t-6.5 -6.5t-2.5 -8.5t2.5 -8.5t6.5 -6.5t9 -2.5zM472 -41q7 0 12 5t5 13q0 4 -2.5 8t-6.5 6.5t-8 2.5q-7 0 -12 -5t-5 -12.5t5 -12.5t12 -5zM256 -41q98 0 168 68.5
t70 164.5q0 47 -19 90.5t-51 74.5t-76 49.5t-92 18.5q-98 0 -168 -68.5t-70 -164.5t70 -164.5t168 -68.5zM447 148l-92 37q-6 2 -12.5 -5.5t-9.5 -14.5q-4 -11 8 -24l54 -70q4 -6 3 -13t-7 -11l-63 -48q-6 -5 -10 -3.5t-5 9.5l-13 98q-2 6 -11.5 8t-16.5 1q-13 -2 -18 -18
l-48 -92q-3 -6 -9.5 -7t-11.5 4l-44 32q-6 4 -6.5 9.5t4.5 9.5l62 59q4 7 1 15.5t-8 13.5q-8 10 -25 7l-103 -5q-7 0 -12 5t-5 12v70q0 7 4.5 9.5t11.5 -0.5l92 -37q6 -2 12.5 5.5t9.5 14.5q4 11 -8 24l-54 70q-4 6 -2.5 13t6.5 11l64 48q5 5 9 3.5t5 -8.5l13 -99
q2 -6 11.5 -8t16.5 -1q13 2 18 18l48 92q3 6 9.5 7t11.5 -4l44 -32q6 -4 6.5 -9.5t-4.5 -9.5l-62 -59q-4 -7 -1 -15.5t8 -13.5q8 -10 25 -7l103 5q7 0 12 -5t5 -12v-70q0 -7 -4.5 -9.5t-11.5 0.5zM256 171q4 0 8 1.5t7 4.5t4.5 7t1.5 8q0 9 -6 15.5t-15 6.5t-15.5 -6.5
t-6.5 -15.5t6.5 -15t15.5 -6z" />
    <glyph glyph-name="bath" unicode="&#xf110;" 
d="M204 388q0 18 12.5 30.5t30.5 12.5t31 -12.5t13 -30t-13 -30t-31 -12.5q-12 0 -22 5.5t-15.5 15.5t-5.5 21zM501 175q7 0 10 -4.5t-1 -10.5l-54 -106q-8 -16 -25 -16h-18v-17v-17v-17q0 -7 -5 -12t-12 -5h-35q-7 0 -12.5 5t-5.5 12v17v17v17h-174v-17v-17v-17
q0 -7 -5.5 -12t-12.5 -5h-35q-5 0 -9 2.5t-6 6.5t-2 8v17v17v17h-18q-17 0 -25 16l-54 106q-4 6 -1 10.5t10 4.5h126q-6 9 -2 20l25 66q2 5 5 8l61 53q3 2 7 3l33 7q12 2 18 -9l37 -76l53 -17q6 -2 9.5 -9t2.5 -15q-3 -13 -14 -15q-4 -1 -7 0l-59 19q-7 2 -10 9l-14 27
l-1 -71h220zM166 178q-1 -1 -2 -3h56v5q2 16 3 82v8l-34 -30z" />
    <glyph glyph-name="bed" unicode="&#xf111;" 
d="M171 226q0 -21 -15 -36t-36 -15t-36 15t-15 36t15 36t36 15t36 -15t15 -36zM171 175q74 67 136.5 68t135.5 -68h-272zM495 209q7 0 12 -5t5 -12v-17v-17v-33v-34v-34v-2v-16h-13q-2 -1 -4 -1t-4 1h-13v16v2q0 7 -5 12t-12 5h-410q-7 0 -12 -5t-5 -12v-2v-17h-34v17v2v34
v34v33v102v17v17q0 7 5 12t12 5t12 -5t5 -12v-17v-17v-102q0 -6 5 -11t12 -5h410q7 0 12 5t5 11v17v17q0 7 5 12t12 5z" />
    <glyph glyph-name="pets" unicode="&#xf112;" horiz-adv-x="500" 
d="M496 252l-12 -17q-10 -14 -27 -13l-47 4q-7 1 -14 -3.5t-10 -10.5l-33 -81q-6 -16 -6 -33v-76q0 -7 -5 -12t-12 -5h-18q-7 0 -12 5t-5 12v76q0 7 -5 12t-12 5h-163q-7 0 -12 -5t-5 -12v-76q0 -7 -5 -12t-12 -5h-18q-7 0 -12 5t-5 12v76q0 17 4 34l16 68q4 16 -10 27
l-48 36q-14 11 -6 19t23 1l39 -18q15 -7 32 -7l165 4q17 1 28 14l47 57q11 13 9 30l-2 25q-1 7 2.5 9t8.5 -3l17 -14q13 -11 29 -17l26 -10q15 -6 26 -20l44 -54q10 -13 0 -27z" />
    <glyph glyph-name="shower" unicode="&#xf113;" horiz-adv-x="293" 
d="M293 263h-293q0 31 21.5 52t51.5 21h37v112h73v-112h35v0h1q20 0 37 -9.5t27 -26.5t10 -37zM146.5 229q7.5 0 13 -5.5t5.5 -13t-5.5 -13t-13 -5.5t-13 5.5t-5.5 13t5.5 13t13 5.5zM146.5 155q7.5 0 13 -5t5.5 -13q0 -5 -2.5 -9t-7 -6.5t-9.5 -2.5q-7 0 -12.5 5.5t-5.5 13
t5.5 12.5t13 5zM146.5 64q7.5 0 13 -5.5t5.5 -13t-5.5 -13t-13 -5.5t-13 5.5t-5.5 13t5.5 13t13 5.5zM146.5 -27q7.5 0 13 -5.5t5.5 -13t-5.5 -13t-13 -5.5t-13 5.5t-5.5 13t5.5 13t13 5.5zM215.5 228.5q7.5 1.5 14 -3t8 -11.5t-2.5 -13.5t-11.5 -8t-14 2.5t-8 11.5t2.5 14
t11.5 8zM230.5 156.5q7.5 1.5 14 -2.5t8 -11.5t-2.5 -14t-11.5 -8t-14 3t-8 11.5t2.5 13.5t11.5 8zM250 67q4 1 9 -0.5t8 -5t4 -8.5q2 -7 -2 -13.5t-11.5 -8t-14 2.5t-8 11.5t2.5 14t12 7.5zM268 -22q4 1 7.5 0t6.5 -3t5 -5t3 -6q2 -8 -2.5 -14.5t-11.5 -7.5q-5 -1 -9.5 0.5
t-8 5t-4.5 8.5t0.5 9.5t5.5 8t8 4.5zM55.5 214q1.5 7 7.5 11.5t14 2.5q4 -1 7 -3t4.5 -5t2.5 -6.5t0 -6.5q-2 -8 -8 -12t-13.5 -2.5t-11.5 8t-2.5 13.5zM40.5 142.5q1.5 7.5 7.5 11.5t13.5 2.5t12 -8t2.5 -13.5t-8 -11.5t-13.5 -3t-11.5 8t-2.5 14zM21.5 53q1.5 7 8 11.5
t13.5 2.5q5 -1 8.5 -4t5 -8t0.5 -10q-1 -3 -3 -6t-5 -5t-6.5 -2.5t-7.5 -0.5q-7 2 -11 8.5t-2.5 13.5zM2.5 -36.5q1.5 7.5 8 11.5t14 2.5t11.5 -8t2.5 -13.5t-8 -11.5t-14 -3t-11.5 8t-2.5 14z" />
    <glyph glyph-name="wifi" unicode="&#xf114;" horiz-adv-x="497" 
d="M60 262q-14 -10 -26 2l-30 29q-5 5 -4 11.5t7 10.5q2 2 7.5 5.5t22 13t33.5 18.5t41 20t45.5 19t46 13.5t45.5 5.5q44 0 105 -24t99 -48l38 -24q6 -4 6.5 -10.5t-4.5 -11.5l-29 -29q-12 -12 -26 -2q-13 8 -33 20t-70.5 32.5t-85.5 20.5t-82 -18t-76 -36zM248 191
q-17 0 -38.5 -8t-34.5 -15l-12 -8q-15 -9 -27 3l-29 29q-5 5 -4.5 11t6.5 10q9 6 23.5 15t51.5 24t64 15q12 0 26.5 -3t27.5 -8t26 -10.5t23.5 -11.5t19 -10.5t12.5 -7.5l5 -3q6 -4 6.5 -10.5t-4.5 -11.5l-29 -29q-12 -12 -27 -2q-47 31 -86 31zM250 95q19 0 32 -13.5
t13 -32t-13 -32t-32 -13.5t-32.5 13.5t-13.5 32t13.5 32t32.5 13.5z" />
    <glyph glyph-name="airport" unicode="&#xf115;" horiz-adv-x="504" 
d="M419 317l-40 -39q-12 -12 -8 -29l62 -250q5 -16 -7 -28l-23 -23q-5 -5 -11 -4t-9 7l-103 204q-3 6 -9 7t-11 -4l-71 -71q-12 -12 -10 -28l5 -39q2 -17 -10 -29l-13 -13q-5 -5 -11 -4t-9 7l-28 52q-8 15 -23 23l-52 28q-6 3 -7 9t4 11l13 12q12 12 29 10l38 -4
q17 -2 29 10l71 70q5 5 4 11t-7 9l-205 103q-6 3 -7 8.5t4 10.5l23 23q12 12 29 8l248 -60q17 -4 29 8l36 36q5 5 8.5 3.5t3.5 -8.5v-8q0 -7 5 -12t12 -5h16q7 0 8.5 -3.5t-3.5 -8.5zM449 438q9 9 19.5 10t18.5 -4.5t13 -13.5t4 -18.5t-10 -19.5l-127 -126v53h-38z" />
    <glyph glyph-name="taxi" unicode="&#xf116;" 
d="M495 216q7 0 12 -5.5t5 -12.5v-143q0 -7 -5 -12t-12 -5h-478q-7 0 -12 5t-5 12v143q0 7 5 12.5t12 5.5h43l41 151q4 13 17 13h2h51v51q0 7 5 12t12 5h136q7 0 12 -5t5 -12v-51h51h2q13 0 17 -13l41 -151h43zM160 322q-5 -18 -29 -106h250q-24 88 -29 106q-4 18 -7.5 21
t-20.5 3h-51h-34h-51q-17 0 -20.5 -3t-7.5 -21zM119.5 73q21.5 0 36.5 15t15 36t-15 36t-36.5 15t-36.5 -15t-15 -36t15 -36t36.5 -15zM392.5 73q21.5 0 36.5 15t15 36t-15 36t-36 15q-14 0 -26 -7t-19 -18.5t-7 -25.5q0 -21 15 -36t36.5 -15zM68 4h103v-51q0 -7 -5 -12
t-12 -5h-69q-7 0 -12 5t-5 12v51zM341 4h103v-51q0 -7 -5 -12t-12 -5h-69q-7 0 -12 5t-5 12v51z" />
    <glyph glyph-name="mastercard" unicode="&#xf117;" 
d="M479 346q14 0 23.5 -10t9.5 -23v-276q0 -14 -9.5 -23.5t-23.5 -9.5h-446q-14 0 -23.5 9.5t-9.5 23.5v276q0 13 9.5 23t23.5 10h446zM503 151v153q0 14 -9 23.5t-22 9.5h-432q-13 0 -22 -9.5t-9 -23.5v-153v-57v-41q0 -13 9 -22.5t22 -9.5h432q13 0 22 9.5t9 22.5v41v57z
M410 175q0 -25 -12.5 -46t-33.5 -33.5t-46 -12.5q-31 0 -56 19q20 18 28 44h-8q-8 -23 -26 -39q-18 16 -26 39h-8q8 -26 28 -44q-25 -19 -56 -19q-38 0 -65 27t-27 65t27 65t65 27q31 0 56 -19q-22 -20 -29 -48h8q8 25 27 43q19 -18 27 -43h8q-7 28 -29 48q25 19 56 19
q38 0 65 -27t27 -65zM157 197h-15l-9 -28v28h-14l-7 -44h9l5 33l1 -33h7l12 34l-6 -34h10zM175 169q-1 -9 -7 -9q-3 0 -3 3q0 6 8 6h2zM184 172q1 5 1 7q0 10 -12 10q-5 0 -12 -2q-1 -7 -1 -8q5 2 10 2q6 0 6 -3v-3q-2 1 -4 1q-17 0 -17 -14q0 -10 9 -10q6 0 10 4v-3h8
q0 2 2 19zM305 198q-9 0 -15 -7.5t-6 -19.5q0 -19 17 -19q3 0 8 1l2 10q-5 -2 -8 -2q-9 0 -9 11q0 16 12 16q4 0 8 -2l2 10q-6 2 -11 2zM333 169q-1 -9 -7 -9q-3 0 -3 3q0 6 8 6h2zM342 172q1 5 1 7q0 10 -12 10q-5 0 -12 -2q-1 -7 -1 -8q5 2 10 2q6 0 6 -3v-3q-2 1 -4 1
q-17 0 -17 -14q0 -10 9 -10q6 0 10 4v-3h8q0 2 2 19zM228 161h-2q-4 0 -4 2q0 1 0.5 3.5t1.5 6.5t1 7h5l1 9h-5l1 5h-9q-3 -21 -4 -25q-1 -8 -1 -9q0 -8 7 -8q3 0 7 1zM259 162q-5 -2 -10 -2q-9 0 -8 7h19q1 6 1 9q0 13 -13 13q-5 0 -8.5 -2.5t-6 -7.5t-2.5 -11
q0 -16 17 -16q4 0 9 1zM252 175q0 6 -4 6q-5 0 -7 -6h11zM189 177q0 -6 7 -10q5 -2 5 -4q0 -3 -6 -3q-4 0 -8 1l-2 -8q5 -1 10 -1q15 0 15 12q0 7 -7 10q-4 2 -4 4q0 3 4 3q3 0 7 -1l1 9h-8q-14 0 -14 -12zM400 197h-9l-2 -13q-4 5 -9 5q-7 0 -11.5 -6.5t-4.5 -15.5
q0 -15 12 -15q5 0 9 4l-1 -3h9zM374 168q0 12 8 12q5 0 5 -7q0 -12 -8 -12q-5 0 -5 7zM350 189q0 -1 -5 -34l-1 -2h10q3 17 4.5 21.5t4.5 3.5q2 7 4 11q-5 1 -9 -6q1 5 1 6h-9zM267 189q0 -1 -5 -34v-2h9q3 17 4.5 21.5t5.5 3.5q1 7 3 11q-4 1 -9 -6q1 5 1 6h-9zM400.5 151
q2.5 0 2.5 3t-2.5 3t-2.5 -3t2.5 -3zM398 154q0 -2 2.5 -2t2.5 2t-2.5 2t-2.5 -2zM400 154h1v-1h1l-1 1q1 0 1 0.5t-1 0.5h-1v-2v1zM400 155h1v-1h-1v1zM398 123.5q0 2.5 2.5 2.5t2.5 -2.5t-2.5 -2.5t-2.5 2.5zM400.5 121q2.5 0 2.5 2.5t-2.5 2.5t-2.5 -2.5t2.5 -2.5z
M400 123h1v-1h1l-1 1l1 1l-1 1h-1v-3v1zM400 124h1v0h-1v0z" />
    <glyph glyph-name="visa" unicode="&#xf118;" 
d="M155 247h36l-54 -144h-36l-28 115q33 -15 45 -50l3 -20zM184 103l21 144h35l-22 -144h-34zM343 243l-5 -31l-3 2q-12 6 -25 5q-20 0 -20 -12q0 -7 19 -18q29 -15 29 -39q0 -23 -16.5 -36.5t-43.5 -13.5q-23 1 -38 8l5 32l4 -2q16 -7 32 -7q21 0 21 14q0 8 -18 18
q-30 16 -30 39q0 21 16.5 34t41.5 13q17 0 31 -6zM431 247l28 -145h-32q-3 17 -4 22h-22.5h-21.5l-7 -22h-36l51 133q4 12 18 12h26zM417 154l-8 41l-2 13q-1 -2 -2 -6t-2 -6t0 -2q-11 -32 -14 -40h28zM90 247q13 -1 16 -12l12 -67q-20 58 -84 76l1 3h55zM463 111.5
q0 8.5 7.5 8.5t7.5 -8.5t-7.5 -8.5t-7.5 8.5zM464 111q0 -7 6 -7t6 7t-6 7t-6 -7zM467 107v9h4q2 0 2 -3q0 -1 -1 -2q1 0 1 -1.5v-2.5h-1v2.5t-2 1.5h-1v-4h-2zM469 115v-3h2q1 0 1 1.5t-2 1.5h-1zM512 313v-276q0 -14 -9.5 -23.5t-23.5 -9.5h-446q-14 0 -23.5 9.5
t-9.5 23.5v276q0 13 9.5 23t23.5 10h446q14 0 23.5 -10t9.5 -23zM503 304q0 14 -9 23.5t-22 9.5h-432q-13 0 -22 -9.5t-9 -23.5v-153v-57v-41q0 -13 9 -22.5t22 -9.5h432q13 0 22 9.5t9 22.5v41v57v153z" />
  </font>
</defs>
</svg>
