<?xml version="1.0" encoding="utf-8"?>
<!-- Generator: Adobe Illustrator 16.0.0, SVG Export Plug-In . SVG Version: 6.00 Build 0)  -->
<!DOCTYPE svg PUBLIC "-//W3C//DTD SVG 1.0//EN" "http://www.w3.org/TR/2001/REC-SVG-20010904/DTD/svg10.dtd">
<svg version="1.0" id="Layer_2_copy" xmlns="http://www.w3.org/2000/svg" xmlns:xlink="http://www.w3.org/1999/xlink" x="0px"
	 y="0px" width="240px" height="240px" viewBox="0 0 240 240" enable-background="new 0 0 240 240" xml:space="preserve">
<path d="M224,0H16C7.2,0,0,7.2,0,16v188.259V224v16h16h34.333H224c8.8,0,16-7.2,16-16V16C240,7.2,232.8,0,224,0z M142.392,162.652
	c-7.175,10.656-20.507,15.172-32.88,15.452c-14.322,0.047-28.653,0-42.984,0.018c-0.009-34.829,0.009-69.659-0.009-104.497
	c-0.402-6.587,5.607-12.531,12.138-12.362c9.956,0,19.911-0.009,29.866,0c9.806,0.224,20.181,3.106,27.113,10.402
	c10.693,11.028,10.049,30.641-0.97,41.221c-1.296,1.212-2.668,2.323-4.012,3.471c5.673,2.845,10.926,6.96,13.753,12.782
	C149.528,139.598,148.913,152.931,142.392,162.652z M173,180.259c-8.146,0-14.75-6.38-14.75-14.25s6.604-14.25,14.75-14.25
	s14.75,6.38,14.75,14.25S181.146,180.259,173,180.259z M122.369,151.027c-2.276,4.358-7.203,6.923-12.026,7.018
	c-7.063,0.074-14.127-0.02-21.18,0.018c0-7.643-0.028-15.292-0.009-22.943c0.065-2.622,0.466-5.691,2.882-7.223
	c2.94-1.894,6.625-1.203,9.928-1.343c5.859,0.038,12.493-0.466,17.298,3.564C125.131,135.139,125.803,144.432,122.369,151.027z
	 M89.154,108.37c0.019-6.307-0.019-12.604,0-18.912c0.075-2.454,0.242-5.253,2.22-6.998c2.295-2.249,5.794-1.782,8.724-1.857
	c5.02,0.14,10.637-0.746,14.966,2.416c6.316,4.666,6.568,14.63,2.136,20.677c-2.249,2.967-5.953,4.572-9.628,4.646
	C101.432,108.454,95.292,108.343,89.154,108.37z"/>
</svg>
