<?xml version="1.0" encoding="iso-8859-1"?>
<!-- Generator: Adobe Illustrator 16.0.0, SVG Export Plug-In . SVG Version: 6.00 Build 0)  -->
<!DOCTYPE svg PUBLIC "-//W3C//DTD SVG 1.1//EN" "http://www.w3.org/Graphics/SVG/1.1/DTD/svg11.dtd">
<svg version="1.1" id="Layer_2" xmlns="http://www.w3.org/2000/svg" xmlns:xlink="http://www.w3.org/1999/xlink" x="0px" y="0px"
	 width="240px" height="240px" viewBox="0 0 240 240" style="enable-background:new 0 0 240 240;" xml:space="preserve">
<path style="fill:#231F20;" d="M226.137,107.4c2.29-6.924,5.782-15.077,10.611-19.99H196.95c-0.662-0.206-1.349-0.346-2.018-0.53
	C192.769,83.43,177.966,64,118.795,64C53.859,64,42.35,87.41,42.35,87.41H0.841c5.295,5.385,8.975,14.656,11.228,21.94
	C4.417,119.67-0.178,132.46-0.178,146.352c0,33.994,27.19,61.648,60.611,61.648c18.526,0,35.117-8.517,46.243-21.887l13.762,19.6
	l11.876-20.36C143.438,199.164,160.323,208,179.209,208c33.421,0,60.613-27.654,60.613-61.648
	C239.822,131.588,234.68,118.027,226.137,107.4z M60.434,195.896c-26.859,0-48.711-22.223-48.711-49.544
	c0-27.32,21.852-49.543,48.711-49.543c26.859,0,48.711,22.223,48.711,49.543C109.145,173.674,87.293,195.896,60.434,195.896z
	 M179.209,195.896c-26.858,0-48.71-22.223-48.71-49.544c0-27.32,21.853-49.543,48.71-49.543c26.857,0,48.712,22.223,48.712,49.543
	C227.921,173.674,206.066,195.896,179.209,195.896z M39.842,125.408c-5.501,5.591-8.531,13.033-8.531,20.944
	s3.029,15.352,8.531,20.944c5.5,5.597,12.812,8.677,20.592,8.677c16.059,0,29.123-13.287,29.123-29.621
	s-13.064-29.619-29.123-29.619C52.654,116.733,45.342,119.812,39.842,125.408z M46.152,160.876
	c-3.815-3.876-5.916-9.037-5.916-14.524c0-5.487,2.101-10.647,5.916-14.524c3.815-3.883,8.886-6.017,14.281-6.017
	c11.137,0,20.197,9.215,20.197,20.542c0,11.327-9.061,20.542-20.197,20.542C55.038,166.894,49.967,164.76,46.152,160.876z
	 M158.619,125.408c-5.501,5.591-8.53,13.033-8.53,20.944s3.029,15.352,8.53,20.944c5.5,5.597,12.812,8.677,20.59,8.677
	c16.062,0,29.124-13.287,29.124-29.621s-13.062-29.619-29.124-29.619C171.431,116.733,164.118,119.812,158.619,125.408z
	 M164.929,160.876c-3.814-3.876-5.915-9.037-5.915-14.524c0-5.487,2.101-10.647,5.915-14.524c3.815-3.883,8.889-6.017,14.28-6.017
	c11.14,0,20.198,9.215,20.198,20.542c0,11.327-9.059,20.542-20.198,20.542C173.817,166.894,168.744,164.76,164.929,160.876z
	 M60.434,136.319c5.448,0,9.864,4.492,9.864,10.033s-4.416,10.033-9.864,10.033s-9.864-4.492-9.864-10.033
	S54.986,136.319,60.434,136.319z M179.209,136.319c5.45,0,9.867,4.492,9.867,10.033s-4.417,10.033-9.867,10.033
	c-5.444,0-9.86-4.492-9.86-10.033S173.765,136.319,179.209,136.319z"/>
</svg>
