<?xml version="1.0" encoding="utf-8"?>
<!-- Generator: Adobe Illustrator 16.0.0, SVG Export Plug-In . SVG Version: 6.00 Build 0)  -->
<!DOCTYPE svg PUBLIC "-//W3C//DTD SVG 1.0//EN" "http://www.w3.org/TR/2001/REC-SVG-20010904/DTD/svg10.dtd">
<svg version="1.0" id="Layer_6" xmlns="http://www.w3.org/2000/svg" xmlns:xlink="http://www.w3.org/1999/xlink" x="0px" y="0px"
	 width="240px" height="240px" viewBox="0 0 240 240" enable-background="new 0 0 240 240" xml:space="preserve">
<symbol  id="Golf-Pattern" viewBox="-198 -157.512 396 315.024">
	<path d="M-38.555,76.093l-5.473,15.035l10.285,12.257l15.757-2.778l5.472-15.035l-10.285-12.257L-38.555,76.093z M-28.662,40.062
		l10.285,12.257l-5.472,15.035l-15.757,2.778l-10.285-12.257l5.473-15.035L-28.662,40.062z M-34.525,6.811l10.285,12.257
		l-5.472,15.034l-15.757,2.778l-10.285-12.256l5.473-15.035L-34.525,6.811z M-40.388-26.442l10.285,12.257L-35.576,0.85
		l-15.757,2.778L-61.618-8.628l5.473-15.035L-40.388-26.442z M-46.251-59.694l10.285,12.257l-5.473,15.034l-15.757,2.778
		L-67.481-41.88l5.473-15.035L-46.251-59.694z M-52.115-92.947L-41.83-80.69l-5.472,15.035l-15.757,2.778l-10.285-12.257
		l5.473-15.035L-52.115-92.947z M-16.935,106.567l10.285,12.257l-5.472,15.035l-15.757,2.778l-10.285-12.257l5.473-15.035
		L-16.935,106.567z M-57.978-126.199l10.285,12.258l-5.473,15.034l-15.757,2.778l-10.285-12.256l5.473-15.036L-57.978-126.199z
		 M9.73,84.721l10.285,12.257l-5.472,15.035l-15.757,2.778L-11.5,102.536L-6.027,87.5L9.73,84.721z M3.867,51.47l10.285,12.257
		L8.679,78.762l-15.757,2.778l-10.285-12.257l5.473-15.035L3.867,51.47z M-1.997,18.217L8.288,30.474L2.816,45.509l-15.757,2.778
		l-10.285-12.257l5.473-15.035L-1.997,18.217z M-7.86-15.035L2.425-2.778l-5.472,15.035l-15.757,2.778L-29.089,2.78l5.473-15.036
		L-7.86-15.035z M-13.723-48.287l10.284,12.256l-5.472,15.035l-15.757,2.778l-10.285-12.257l5.473-15.034L-13.723-48.287z
		 M-19.586-81.539l10.285,12.256l-5.472,15.036l-15.757,2.778l-10.285-12.258l5.473-15.034L-19.586-81.539z M-25.45-114.792
		l10.285,12.258L-20.637-87.5l-15.757,2.778l-10.285-12.256l5.473-15.036L-25.45-114.792z M36.396,62.877l10.283,12.257
		l-5.472,15.035L25.45,92.948L15.165,80.691l5.472-15.034L36.396,62.877z M30.531,29.625l10.284,12.256l-5.472,15.035l-15.757,2.779
		L9.302,47.439l5.472-15.035L30.531,29.625z M24.668-3.626L34.952,8.63L29.48,23.665l-15.757,2.779L3.438,14.187L8.911-0.848
		L24.668-3.626z M18.805-36.879l10.284,12.257L23.617-9.587L7.86-6.809L-2.425-19.066l5.472-15.035L18.805-36.879z M12.942-70.13
		l10.284,12.256l-5.472,15.035L1.997-40.061L-8.288-52.317l5.472-15.035L12.942-70.13z M7.079-103.384l10.284,12.258l-5.472,15.035
		l-15.757,2.778L-14.151-85.57l5.472-15.035L7.079-103.384z M42.258,96.129l10.284,12.257l-5.472,15.035L31.313,126.2
		l-10.285-12.257L26.5,98.908L42.258,96.129z M1.215-136.636L11.5-124.378l-5.472,15.034l-15.757,2.778l-10.284-12.256l5.472-15.036
		L1.215-136.636z M68.923,74.284l10.285,12.258l-5.473,15.035l-15.757,2.777L47.694,92.098l5.472-15.035L68.923,74.284z
		 M63.06,41.033L73.345,53.29l-5.473,15.035l-15.757,2.778L41.831,58.846l5.472-15.035L63.06,41.033z M57.196,7.78l10.285,12.257
		l-5.473,15.035L46.252,37.85L35.968,25.593l5.472-15.035L57.196,7.78z M51.333-25.472l10.285,12.258L56.146,1.821L40.389,4.598
		L30.104-7.658l5.473-15.035L51.333-25.472z M45.471-58.724l10.284,12.256l-5.473,15.035l-15.757,2.779L24.241-40.911l5.473-15.034
		L45.471-58.724z M39.606-91.976L49.892-79.72l-5.473,15.036l-15.757,2.778L18.377-74.164l5.473-15.034L39.606-91.976z
		 M33.743-125.228l10.285,12.257l-5.473,15.034l-15.757,2.778l-10.285-12.256l5.473-15.036L33.743-125.228z M95.587,52.441
		l10.285,12.256l-5.473,15.035L84.644,82.51L74.358,70.253l5.473-15.034L95.587,52.441z M89.724,19.188l10.285,12.257L94.536,46.48
		L78.78,49.258L68.495,37.001l5.473-15.035L89.724,19.188z M83.86-14.064L94.146-1.807l-5.473,15.035l-15.756,2.778L62.632,3.75
		l5.473-15.035L83.86-14.064z M77.997-47.317L88.282-35.06L82.81-20.025l-15.756,2.778L56.769-29.503l5.473-15.035L77.997-47.317z
		 M72.134-80.569l10.285,12.258l-5.473,15.034L61.19-50.499L50.905-62.754l5.473-15.036L72.134-80.569z M66.271-113.822
		l10.285,12.258L71.083-86.53l-15.756,2.778L45.042-96.007l5.473-15.036L66.271-113.822z M101.45,85.692l10.285,12.257
		l-5.473,15.035l-15.756,2.778l-10.285-12.257l5.473-15.035L101.45,85.692z M60.407-147.075l10.285,12.258l-5.473,15.034
		l-15.756,2.778L39.179-129.26l5.473-15.036L60.407-147.075z M128.115,63.847L138.4,76.104l-5.473,15.035l-15.757,2.778
		l-10.285-12.257l5.473-15.035L128.115,63.847z M122.252,30.595l10.285,12.257l-5.473,15.035l-15.757,2.778l-10.285-12.257
		l5.473-15.035L122.252,30.595z M116.389-2.658l10.285,12.257l-5.473,15.035l-15.757,2.778L95.159,15.156l5.473-15.035
		L116.389-2.658z M110.526-35.909l10.284,12.257l-5.473,15.035L99.581-5.838L89.296-18.095l5.473-15.035L110.526-35.909z
		 M104.662-69.162l10.285,12.256l-5.473,15.036l-15.757,2.778L83.433-51.349l5.473-15.034L104.662-69.162z M98.799-102.415
		l10.285,12.256l-5.473,15.036l-15.757,2.778L77.569-84.602l5.473-15.034L98.799-102.415z M92.936-135.667l10.285,12.258
		l-5.473,15.033l-15.757,2.778l-10.285-12.255l5.473-15.036L92.936-135.667z M154.78,42.003l10.285,12.256l-5.473,15.035
		l-15.756,2.778l-10.285-12.257l5.473-15.034L154.78,42.003z M148.917,8.75l10.285,12.257l-5.473,15.035l-15.756,2.778
		l-10.285-12.257l5.473-15.035L148.917,8.75z M143.054-24.501l10.285,12.257l-5.473,15.035L132.11,5.569L121.825-6.688l5.473-15.035
		L143.054-24.501z M137.19-57.754l10.285,12.257l-5.473,15.035l-15.756,2.778l-10.285-12.257l5.473-15.035L137.19-57.754z
		 M131.327-91.006l10.285,12.258l-5.473,15.034l-15.756,2.778l-10.285-12.256l5.473-15.036L131.327-91.006z M125.464-124.259
		l10.285,12.258l-5.473,15.034l-15.756,2.778l-10.285-12.256l5.473-15.036L125.464-124.259z M160.644,75.254l10.285,12.257
		l-5.473,15.035l-15.756,2.778l-10.285-12.257l5.473-15.035L160.644,75.254z M119.601-157.512l10.285,12.258l-5.473,15.034
		l-15.756,2.778l-10.285-12.256l5.473-15.036L119.601-157.512z M187.31,53.41l10.283,12.257l-5.471,15.035l-15.758,2.778
		l-10.285-12.257l5.473-15.035L187.31,53.41z M181.446,20.159l10.283,12.256l-5.471,15.035l-15.758,2.779l-10.285-12.258
		l5.473-15.035L181.446,20.159z M175.583-13.095l10.283,12.257l-5.471,15.036l-15.758,2.777L154.353,4.719l5.473-15.035
		L175.583-13.095z M169.72-46.346l10.283,12.257l-5.471,15.035l-15.758,2.778l-10.285-12.257l5.473-15.035L169.72-46.346z
		 M163.856-79.599l10.283,12.256l-5.471,15.036l-15.758,2.778l-10.285-12.258l5.473-15.033L163.856-79.599z M157.993-112.851
		l10.283,12.255l-5.471,15.036l-15.758,2.779l-10.285-12.258l5.473-15.035L157.993-112.851z M152.13-146.104l10.283,12.258
		l-5.471,15.034l-15.758,2.777l-10.285-12.255l5.473-15.036L152.13-146.104z M-141.184,94.19l10.284,12.257l-5.472,15.035
		l-15.757,2.778l-10.285-12.257l5.473-15.034L-141.184,94.19z M-147.047,60.938l10.284,12.256l-5.472,15.035l-15.757,2.779
		l-10.285-12.258l5.473-15.035L-147.047,60.938z M-152.911,27.686l10.284,12.257l-5.472,15.034l-15.757,2.779L-174.14,45.5
		l5.472-15.035L-152.911,27.686z M-158.774-5.568L-148.49,6.69l-5.472,15.035l-15.757,2.778l-10.284-12.257l5.472-15.035
		L-158.774-5.568z M-164.637-38.818l10.284,12.256l-5.472,15.034l-15.757,2.778l-10.285-12.256l5.474-15.034L-164.637-38.818z
		 M-170.5-72.071l10.284,12.256l-5.472,15.036L-181.444-42l-10.286-12.258l5.474-15.034L-170.5-72.071z M-135.321,127.442
		l10.285,12.257l-5.472,15.035l-15.757,2.778l-10.285-12.257l5.472-15.035L-135.321,127.442z M-176.364-105.324l10.285,12.258
		l-5.473,15.035l-15.757,2.777l-10.284-12.256l5.473-15.035L-176.364-105.324z M-108.656,105.596l10.285,12.258l-5.472,15.035
		l-15.757,2.778l-10.285-12.257l5.472-15.035L-108.656,105.596z M-114.519,72.345l10.284,12.257l-5.472,15.035l-15.757,2.778
		l-10.285-12.257l5.473-15.035L-114.519,72.345z M-120.382,39.092l10.284,12.257l-5.472,15.035l-15.757,2.778l-10.285-12.257
		l5.473-15.035L-120.382,39.092z M-126.246,5.84l10.284,12.258l-5.472,15.035l-15.757,2.778l-10.285-12.257l5.473-15.035
		L-126.246,5.84z M-132.109-27.411l10.284,12.256l-5.472,15.034l-15.757,2.779l-10.285-12.257l5.473-15.034L-132.109-27.411z
		 M-137.972-60.664l10.284,12.256l-5.472,15.037l-15.757,2.778l-10.285-12.258l5.473-15.034L-137.972-60.664z M-143.835-93.916
		l10.285,12.258l-5.473,15.033l-15.757,2.779l-10.284-12.256l5.472-15.036L-143.835-93.916z M-81.992,83.753l10.285,12.256
		l-5.472,15.035l-15.757,2.778l-10.285-12.257l5.472-15.034L-81.992,83.753z M-87.855,50.5l10.285,12.257l-5.472,15.035
		l-15.757,2.778l-10.285-12.257l5.472-15.035L-87.855,50.5z M-93.718,17.249l10.285,12.257l-5.473,15.035l-15.757,2.778
		l-10.284-12.257l5.472-15.035L-93.718,17.249z M-99.582-16.004l10.285,12.257l-5.472,15.035l-15.757,2.778l-10.285-12.257
		l5.472-15.035L-99.582-16.004z M-105.444-49.255L-95.16-37l-5.473,15.034l-15.757,2.778l-10.284-12.256l5.472-15.034
		L-105.444-49.255z M-111.308-82.508l10.284,12.256l-5.472,15.036l-15.757,2.778l-10.285-12.258l5.473-15.034L-111.308-82.508z
		 M-76.128,117.004l10.285,12.257l-5.472,15.035l-15.757,2.778l-10.285-12.257l5.472-15.035L-76.128,117.004z M-117.171-115.76
		l10.285,12.258l-5.473,15.034l-15.757,2.778L-138.4-97.946l5.472-15.036L-117.171-115.76z M-49.463,95.16l10.285,12.257
		l-5.472,15.035l-15.757,2.778l-10.285-12.257l5.472-15.035L-49.463,95.16z M-55.327,61.908l10.285,12.257L-50.514,89.2
		l-15.757,2.778l-10.285-12.257l5.472-15.035L-55.327,61.908z M-61.19,28.655l10.285,12.257l-5.472,15.035l-15.757,2.778
		l-10.285-12.257l5.472-15.035L-61.19,28.655z M-67.053-4.596l10.285,12.257l-5.473,15.035l-15.757,2.778l-10.284-12.257
		l5.472-15.035L-67.053-4.596z M-72.916-37.848l10.285,12.256l-5.473,15.035l-15.757,2.778l-10.284-12.257l5.472-15.034
		L-72.916-37.848z M-78.779-71.1l10.284,12.256l-5.472,15.036l-15.757,2.778l-10.285-12.258l5.473-15.034L-78.779-71.1z
		 M-84.643-104.353l10.285,12.258l-5.473,15.034l-15.757,2.778l-10.284-12.256l5.472-15.036L-84.643-104.353z"/>
	<polygon display="none" fill="none" points="-198,157 198,157 198,-157 -198,-157 	"/>
</symbol>
<path d="M175.107,176.06c0.711,1.719,1.223,5.281-3.337,9.834l-1.877,1.872c-4.227,4.22-11.72,9.615-17.058,12.284l-14.111,7.056
	c-3.587,1.793-6.732,6.884-6.731,10.894L131.997,240H108v-22c0-4.011-3.146-9.104-6.733-10.899l-14.079-7.048
	c-5.336-2.671-12.829-8.064-17.059-12.278l-1.892-1.886c-4.564-4.548-4.054-8.11-3.344-9.828c0.504-1.222,2.221-4.063,7.248-4.063
	c5.035,0,13.35,1.862,18.93,4.239c0.151,0.063,15.493,6.514,28.929,6.514c13.479,0,28.776-6.449,28.929-6.514
	c5.581-2.377,13.896-4.239,18.931-4.239C172.885,171.997,174.603,174.838,175.107,176.06z M120,160c35.346,0,64-28.654,64-64
	s-28.654-64-64-64S56,60.654,56,96S84.654,160,120,160z"/>
<g>
	<path fill="none" d="M100.583,106.661c0.119-1.442-0.028-2.444-0.099-2.921c-0.999,6.67-5.34,10.837-11.637,11.151
		c-6.253-0.297-10.725-4.479-11.965-11.151c-0.297,4.626,1.444,7.839,2.968,9.72C86.746,122.034,99.73,117.77,100.583,106.661z"/>
	<path fill="none" d="M101.882,55.175c0.23-1.304,0.18-2.177,0.16-2.647c-1.564,6.181-6.184,10.059-12.362,10.362
		c-6.07-0.301-9.678-4.179-9.661-10.362c-1.102,4.239,0,7.237,1.114,8.989C86.45,69.875,100.023,65.725,101.882,55.175z"/>
	<path fill="none" d="M114.498,139.385c-6.411-0.29-10.919-4.029-12.39-10.248c-0.138,2.991,0.699,5.705,2.46,8.049
		c6.606,8.741,20.812,5.281,22.027-5.354c0.14-1.179,0.067-1.842-0.021-2.695C125.416,135.263,120.901,139.093,114.498,139.385z"/>
	<path fill="none" d="M113.716,88.524c-6.827-0.32-11.46-4.528-12.397-11.25c-0.63,4.596,1.035,7.842,2.543,9.769
		c7,8.883,21.753,4.442,22.877-6.88c0.131-1.29,0.046-2.028-0.065-2.889C125.513,83.992,120.67,88.2,113.716,88.524z"/>
	<path fill="none" d="M130.796,62.374c7.588,7.244,19.917,2.799,19.984-7.199c0.006-1.201-0.162-2.037-0.29-2.647
		c-0.445,6.185-4.542,10.061-10.972,10.362c-6.461-0.301-11.209-4.271-12.39-10.362C126.628,57.577,129.213,60.866,130.796,62.374z"
		/>
	<path fill="none" d="M139.888,114.891c-6.686-0.315-11.368-4.482-12.517-11.151c-0.527,4.618,1.234,7.833,2.796,9.72
		c7.137,8.62,20.846,4.436,22.21-6.798c0.162-1.347,0.08-2.339,0.041-2.921C151.187,110.412,146.506,114.594,139.888,114.891z"/>
	<path fill="none" d="M152.8,77.274c-0.35,3.846,1.043,7.842,3.711,10.696c7.244,7.726,18.931,2.98,19.239-7.807
		c0.061-1.338-0.126-2.316-0.204-2.889c-0.554,6.721-4.529,10.929-10.673,11.25C158.667,88.202,154.15,83.993,152.8,77.274z"/>
	<path fill="#FFFFFF" d="M90.498,143.094c-3.831,0.629-6.119,2.747-7.04,5.436c5.601,3.904,11.853,6.931,18.563,8.892
		c0.906-1.409,1.447-3.168,1.561-5.225c0.103,0.423,0.31,1.229,0.333,2.405c0.025,1.161-0.139,2.242-0.451,3.229
		c0.132,0.035,0.261,0.078,0.393,0.112c0.219-0.862,0.333-1.781,0.311-2.747C104.051,149.837,99.228,142.645,90.498,143.094z"/>
	<path fill="#FFFFFF" d="M181.584,113.406C183.146,107.869,184,102.036,184,96c0-0.837-0.031-1.667-0.063-2.496
		c-8.948,3.718-10.215,18.017-3.48,23.496c0.094-0.269,0.185-0.539,0.274-0.809c-0.63-0.5-1.226-1.104-1.771-1.83
		c-2.112-2.775-2.99-6.747-2.426-10.623C177.015,108.243,178.82,111.6,181.584,113.406z"/>
	<path fill="#FFFFFF" d="M137.414,143.094c-9.597,1.413-13.075,10.337-9.414,16.391c0.19-0.023,0.38-0.047,0.569-0.072
		c-0.207-0.301-0.406-0.612-0.588-0.946c-1.551-2.839-1.2-5.418-1.094-6.269c0.483,2.966,1.854,5.316,3.896,6.88
		c6.111-1.038,11.928-2.932,17.318-5.571c0.18-0.423,0.349-0.856,0.493-1.309c-0.018,0.298-0.037,0.664-0.092,1.104
		c0.047-0.023,0.093-0.048,0.141-0.072C148.917,148.242,145.607,142.702,137.414,143.094z"/>
	<path fill="#FFFFFF" d="M65.551,119.009c-1.831,0.347-3.291,1.104-4.414,2.141c2.801,6.548,6.661,12.534,11.368,17.742
		c3.612-1.246,5.752-4.724,5.854-9.754c0.121,0.509,0.34,1.372,0.409,2.695c0.224,4.416-1.53,7.663-4.172,9.266
		c0.19,0.191,0.386,0.376,0.578,0.565c2.499-1.714,4.106-4.935,3.881-9.146C78.737,126.524,73.858,118.507,65.551,119.009z"/>
	<path fill="#FFFFFF" d="M112.692,66.896c-12.942,1.934-15.254,17.327-6.282,23.59c8.051,5.624,19.57,0.247,20.555-9.588
		C127.675,73.763,122.114,66.431,112.692,66.896z M126.74,80.163c-1.125,11.322-15.878,15.764-22.877,6.88
		c-1.508-1.927-3.173-5.173-2.543-9.769c0.937,6.722,5.57,10.93,12.397,11.25c6.954-0.324,11.797-4.532,12.958-11.25
		C126.786,78.134,126.871,78.873,126.74,80.163z"/>
	<path fill="#FFFFFF" d="M162.804,119.009c-11.68,1.916-14.999,16.301-7.549,22.076c2.521,1.953,5.591,2.357,8.508,1.592
		c0.413-0.388,0.827-0.775,1.23-1.173c-4.484,1.649-9.527,0.474-12.148-4.318c-0.739-1.374-1.88-4.228-1.084-8.049
		c0.523,6.126,4.213,9.958,9.889,10.248c5.73-0.288,10.218-4.12,12.056-10.248c-0.02,0.459-0.052,1.119-0.216,1.989
		c0.066-0.1,0.13-0.203,0.195-0.303C174.311,125.123,171.186,118.555,162.804,119.009z"/>
	<path fill="#FFFFFF" d="M76.729,80.897c0.975-7.106-2.864-14.475-10.775-14.001c-1.318,0.237-2.508,0.669-3.583,1.241
		c-2.278,4.703-4,9.725-5.074,14.984c1.55,3.249,4.351,5.19,8.083,5.404c5.661-0.322,9.893-4.53,11.309-11.25
		c0.038,0.5,0.094,1.442-0.115,2.889c-1.536,10.816-12.752,15.562-18.487,7.807c-0.495-0.677-0.913-1.423-1.261-2.213
		c-0.053,0.328-0.103,0.655-0.151,0.984c0.805,1.757,1.995,3.294,3.59,4.419C66.67,95.659,75.435,90.197,76.729,80.897z"/>
	<path fill="#FFFFFF" d="M100.813,107.413c0.5-6.463-4.015-15.121-13.757-14.577c-12.247,2.079-13.583,17.675-4.678,23.95
		C89.933,122.096,100.097,116.917,100.813,107.413z M79.85,113.459c-1.524-1.88-3.265-5.094-2.968-9.72
		c1.24,6.672,5.711,10.854,11.965,11.151c6.297-0.314,10.638-4.481,11.637-11.151c0.071,0.478,0.218,1.479,0.099,2.921
		C99.73,117.77,86.746,122.034,79.85,113.459z"/>
	<path fill="#FFFFFF" d="M112.615,119.009c-12.14,1.837-14.012,15.044-5.678,21.404c7.636,5.85,18.785,1.418,19.869-7.896
		C127.604,125.621,122.102,118.538,112.615,119.009z M126.595,131.832c-1.214,10.635-15.421,14.095-22.027,5.354
		c-1.762-2.344-2.598-5.058-2.46-8.049c1.471,6.218,5.979,9.958,12.39,10.248c6.403-0.292,10.918-4.122,12.076-10.248
		C126.663,129.99,126.735,130.653,126.595,131.832z"/>
	<path fill="#FFFFFF" d="M114.942,39.538c5.385-0.246,9.272-2.92,10.766-7.271C123.826,32.101,121.925,32,120,32
		c-4.946,0-9.754,0.58-14.378,1.642C106.958,37.177,110.251,39.323,114.942,39.538z"/>
	<path fill="#FFFFFF" d="M162.531,66.896c-11.941,2.002-13.06,17.176-4.327,23.59c7.667,5.635,17.48,0.359,17.788-9.588
		C176.202,73.793,171.136,66.423,162.531,66.896z M175.546,77.274c0.078,0.572,0.265,1.55,0.204,2.889
		c-0.308,10.788-11.995,15.533-19.239,7.807c-2.668-2.854-4.061-6.85-3.711-10.696c1.351,6.719,5.868,10.928,12.073,11.25
		C171.017,88.203,174.992,83.995,175.546,77.274z"/>
	<path fill="#FFFFFF" d="M108.398,41.16c6.876,4.762,17.347,0.188,18.083-7.88c0.027-0.311,0.037-0.629,0.031-0.951
		c-0.071-0.007-0.145-0.01-0.216-0.017c-0.006,0.121-0.008,0.23-0.021,0.365c-0.856,9.402-14.228,13.196-19.871,5.627
		c-0.758-1.015-1.515-2.501-1.705-4.448c-0.1,0.024-0.201,0.044-0.301,0.069C104.55,36.718,105.855,39.393,108.398,41.16z"/>
	<path fill="#FFFFFF" d="M83.05,64.708c6.587,5.223,17.417,0.17,18.985-8.85c0.972-5.629-2.324-13.191-11.065-12.735
		C79.423,44.914,75.825,58.995,83.05,64.708z M81.133,61.517c-1.115-1.752-2.216-4.75-1.114-8.989
		C80.002,58.71,83.61,62.589,89.68,62.89c6.178-0.303,10.798-4.181,12.362-10.362c0.02,0.47,0.07,1.343-0.16,2.647
		C100.023,65.725,86.45,69.875,81.133,61.517z"/>
	<path fill="#FFFFFF" d="M138.833,92.836c-13.244,2.093-15.394,17.701-6.134,23.95c7.917,5.325,18.67,0.246,19.873-9.373
		C153.366,100.955,149.03,92.299,138.833,92.836z M152.377,106.661c-1.364,11.234-15.073,15.418-22.21,6.798
		c-1.562-1.886-3.323-5.102-2.796-9.72c1.149,6.669,5.831,10.836,12.517,11.151c6.618-0.297,11.298-4.479,12.53-11.151
		C152.458,104.322,152.539,105.313,152.377,106.661z"/>
	<path fill="#FFFFFF" d="M131.572,63.997c7.923,6.276,19.387,1.487,19.462-8.139c0.046-5.422-4.317-13.203-13.822-12.735
		C125.861,44.812,123.863,57.897,131.572,63.997z M127.128,52.528c1.18,6.09,5.928,10.061,12.39,10.362
		c6.43-0.301,10.527-4.177,10.972-10.362c0.128,0.61,0.296,1.446,0.29,2.647c-0.067,9.999-12.396,14.443-19.984,7.199
		C129.213,60.866,126.628,57.577,127.128,52.528z"/>
</g>
</svg>
