<?xml version="1.0" encoding="utf-8"?>
<!-- Generator: Adobe Illustrator 15.0.0, SVG Export Plug-In . SVG Version: 6.00 Build 0)  -->
<!DOCTYPE svg PUBLIC "-//W3C//DTD SVG 1.0//EN" "http://www.w3.org/TR/2001/REC-SVG-20010904/DTD/svg10.dtd">
<svg version="1.0" xmlns="http://www.w3.org/2000/svg" xmlns:xlink="http://www.w3.org/1999/xlink" x="0px" y="0px" width="320px"
	 height="320px" viewBox="0 0 320 320" enable-background="new 0 0 320 320" xml:space="preserve">
<g id="Layer_1">
	<path display="none" d="M-103.665-23.373c-2.243-5.019-0.055-10.915,4.967-13.208l29.128-13.268l15.526-41.083
		c1.508-3.948,5.31-6.386,9.303-6.388l0.05-0.05l19.931-0.009c0.098,0,0.194,0.05,0.244,0.05c1.41,0.048,2.875,0.292,4.236,0.97
		l39.917,19.96c1.562,0.78,2.879,1.949,3.854,3.409l19.991,29.91c3.024,4.578,1.808,10.778-2.771,13.852
		c-1.703,1.11-3.653,1.645-5.555,1.646c-3.213,0.002-6.383-1.557-8.285-4.43L8.343-59.728l-22.76-11.393
		c0.439,2.195,0.68,3.656,0.68,3.656c2.979,14.956,6.987,33.958,8.987,39.9c2.979,13.996-6.958,21.98-6.958,21.98l-34.966,35.002
		l-18.596,46.54c-1.603,3.951-5.307,6.292-9.303,6.293c-1.217,0.001-2.486-0.177-3.704-0.667c-5.116-2.06-7.604-7.841-5.559-13.01
		l19.953-49.902c0.291-0.841,0.732-1.562,1.268-2.256l6.133-8.178l16.8-26.771l-7.13-34.98l-5.501,14.521
		c-0.923,2.487-2.773,4.485-5.211,5.619l-32.884,14.963c-1.365,0.646-2.775,0.878-4.141,0.878
		C-98.347-17.529-101.954-19.672-103.665-23.373L-103.665-23.373z M-49.712-107.354c13.785-0.006,24.94-11.17,24.933-24.96
		c-0.006-13.783-11.171-24.944-24.957-24.938c-13.743,0.007-24.945,11.179-24.939,24.961
		C-74.668-118.5-63.455-107.348-49.712-107.354L-49.712-107.354z M-1.767-3.591c-0.972,1.999-2.97,4.01-3.943,4.972l-15.976,15.99
		l6.975,16.952c0.438,2.195,1.516,3.851,2.928,5.213l29.061,38.678c1.948,2.627,4.922,3.99,7.992,3.989
		c2.049-0.001,4.141-0.637,5.943-1.999c4.432-3.318,5.307-9.552,1.993-13.939L4.879,28.53L-1.767-3.591L-1.767-3.591z M-1.767-3.591
		"/>
</g>
<g id="Layer_2">
	<path display="none" fill="#010101" d="M40,40v240h239.667V40H40z M55.166,50c2.854,0,5.167,2.313,5.167,5.167
		s-2.313,5.167-5.167,5.167S50,58.021,50,55.167S52.312,50,55.166,50z M55.25,270.334c-2.854,0-5.167-2.314-5.167-5.168
		S52.396,260,55.25,260s5.167,2.312,5.167,5.166S58.104,270.334,55.25,270.334z M265.666,50c2.854,0,5.167,2.313,5.167,5.167
		s-2.313,5.167-5.167,5.167s-5.166-2.313-5.166-5.167S262.812,50,265.666,50z M265.75,270.334c-2.854,0-5.166-2.314-5.166-5.168
		S262.896,260,265.75,260s5.167,2.312,5.167,5.166S268.604,270.334,265.75,270.334z"/>
	<path fill="#010101" d="M40.167,40v240h239.667V40H40.167z M260.999,53c3.313,0,6.001,2.687,6.001,6s-2.688,6-6.001,6
		S255,62.313,255,59S257.686,53,260.999,53z M59,53c3.313,0,6,2.687,6,6c0,3.314-2.687,6-6,6s-6-2.686-6-6
		C53,55.687,55.686,53,59,53z M59,267c-3.314,0-6-2.688-6-6.001S55.686,255,59,255c3.313,0,6,2.686,6,5.999S62.313,267,59,267z
		 M260.999,267c-3.313,0-5.999-2.688-5.999-6.001s2.686-5.999,5.999-5.999s6.001,2.686,6.001,5.999S264.312,267,260.999,267z
		 M160,269.125c-61.442,0-111.25-48.856-111.25-109.125C48.75,99.732,98.558,50.875,160,50.875
		c61.441,0,111.25,48.857,111.25,109.125C271.25,220.269,221.441,269.125,160,269.125z"/>
	<path d="M160.274,119.669c-22.059,0-39.94,17.882-39.94,39.94c0,22.059,17.882,39.941,39.94,39.941
		c22.058,0,39.94-17.882,39.94-39.941C200.214,137.551,182.332,119.669,160.274,119.669z M159.833,170.002
		c-5.615,0-10.167-4.552-10.167-10.167s4.552-10.167,10.167-10.167S170,154.221,170,159.835S165.448,170.002,159.833,170.002z"/>
	<path fill="#010101" d="M256.747,184.184c0.001-16.133,0-32.25,0-48.376c-28.607-3.383-48.478-1.17-64.056,3.658
		c-3.122-4.98-7.36-9.155-12.363-12.274c9.221-12.668,22.183-25.475,40.47-38.712c-14.823-6.635-24.786-13.221-33.341-24.371
		c-17.124,22.94-25.296,41.34-28.962,57.34c-6.033,0.235-11.628,1.88-16.632,4.553c-6.256-14.681-10.053-33.823-9.259-61.893
		C115.52,77.537,103.049,89.551,90.52,96.769c11.472,19.88,23.335,34.467,35.375,45.312c-2.626,5.007-4.243,10.601-4.44,16.592
		c-15.723-1.862-34.147-8.031-58.201-22.866c0,16.127,0,32.244,0,48.376c28.607,3.376,48.488,1.17,64.057-3.666
		c3.119,4.984,7.36,9.16,12.36,12.281c-9.202,12.682-22.183,25.491-40.44,38.715c14.816,6.645,24.792,13.219,33.334,24.379
		c17.117-22.942,25.287-41.327,28.967-57.352c6.009-0.247,11.598-1.889,16.618-4.57c6.25,14.677,10.063,33.834,9.271,61.898
		c17.085-13.435,29.557-25.451,42.086-32.648c-11.476-19.9-23.357-34.485-35.392-45.33c2.62-5.01,4.237-10.602,4.438-16.574
		C214.274,163.178,232.699,169.348,256.747,184.184z M160.273,170.078c-5.782,0-10.469-4.688-10.469-10.469
		c0-5.782,4.687-10.469,10.469-10.469c5.781,0,10.469,4.687,10.469,10.469C170.742,165.391,166.055,170.078,160.273,170.078z"/>
</g>
</svg>
