<?xml version="1.0" encoding="utf-8"?>
<!-- Generator: Adobe Illustrator 15.0.0, SVG Export Plug-In . SVG Version: 6.00 Build 0)  -->
<!DOCTYPE svg PUBLIC "-//W3C//DTD SVG 1.1//EN" "http://www.w3.org/Graphics/SVG/1.1/DTD/svg11.dtd">
<svg version="1.1" id="Layer_1" xmlns="http://www.w3.org/2000/svg" xmlns:xlink="http://www.w3.org/1999/xlink" x="0px" y="0px"
	 width="320px" height="320px" viewBox="0 0 320 320" enable-background="new 0 0 320 320" xml:space="preserve">
<polygon points="0,130 20.036,130 20.075,220.04 299.398,219.857 299.524,179.639 319.847,179.639 319.847,280.143 289.973,280.143 
	289.872,249.857 30.323,249.857 30.323,280.143 0,280.143 "/>
<path d="M93.043,158.705c0,16.706-13.544,30.252-30.251,30.252c-16.705,0-30.249-13.546-30.249-30.252
	c0-16.704,13.544-30.249,30.249-30.249C79.5,128.457,93.043,142.001,93.043,158.705z"/>
<path d="M89.178,200.072c63.537,0,127.073,0,190.609,0C212.609,149.359,157.269,151.707,89.178,200.072L89.178,200.072z"/>
</svg>
