<?xml version="1.0" encoding="utf-8"?>
<!-- Generator: Adobe Illustrator 16.0.0, SVG Export Plug-In . SVG Version: 6.00 Build 0)  -->
<!DOCTYPE svg PUBLIC "-//W3C//DTD SVG 1.1//EN" "http://www.w3.org/Graphics/SVG/1.1/DTD/svg11.dtd">
<svg version="1.1" id="Layer_1" xmlns="http://www.w3.org/2000/svg" xmlns:xlink="http://www.w3.org/1999/xlink" x="0px" y="0px"
	 width="240px" height="240px" viewBox="0 0 240 240" enable-background="new 0 0 240 240" xml:space="preserve">
<path d="M194.873,17.979H45.126c-7.511,0-13.6,6.089-13.6,13.6v20.99h176.946v-20.99C208.473,24.069,202.383,17.979,194.873,17.979z
	 M156.832,38.97c-3.756,0-6.799-3.044-6.799-6.8c0-3.755,3.043-6.8,6.799-6.8c3.754,0,6.801,3.044,6.801,6.8
	S160.586,38.97,156.832,38.97z M184.031,38.97c-3.754,0-6.799-3.044-6.799-6.8s3.045-6.8,6.799-6.8s6.801,3.044,6.801,6.8
	S187.785,38.97,184.031,38.97z M31.527,64.166v144.255c0,7.511,6.088,13.6,13.6,13.6h149.746c7.51,0,13.6-6.089,13.6-13.6V64.166
	H31.527z M118.446,191.662c-30.899,0-55.946-25.049-55.946-55.946c0-30.899,25.047-55.947,55.946-55.947
	c30.898,0,55.946,25.048,55.946,55.947C174.393,166.613,149.345,191.662,118.446,191.662z"/>
</svg>
