<?xml version="1.0" encoding="utf-8"?>
<!-- Generator: Adobe Illustrator 16.0.0, SVG Export Plug-In . SVG Version: 6.00 Build 0)  -->
<!DOCTYPE svg PUBLIC "-//W3C//DTD SVG 1.1//EN" "http://www.w3.org/Graphics/SVG/1.1/DTD/svg11.dtd">
<svg version="1.1" id="Layer_2" xmlns="http://www.w3.org/2000/svg" xmlns:xlink="http://www.w3.org/1999/xlink" x="0px" y="0px"
	 width="240px" height="240px" viewBox="2.5 0.5 240 240" enable-background="new 2.5 0.5 240 240" xml:space="preserve">
<path fill="none" stroke="#000000" stroke-width="3" stroke-miterlimit="10" d="M230.5,179.874c0,3.66-3.079,6.626-6.879,6.626
	c-3.209,0-5.896-2.119-6.656-4.982c-0.646,0.108-1.304,0.176-1.981,0.176h-85.874c-0.82,2.773-3.465,4.807-6.609,4.807
	c-3.144,0-5.789-2.033-6.61-4.807H30.082c-0.699,0-1.379-0.07-2.044-0.185c-0.756,2.867-3.447,4.991-6.659,4.991
	c-3.8,0-6.879-2.966-6.879-6.626c0-2.85,1.87-5.271,4.488-6.207c-0.298-0.989-0.466-2.03-0.466-3.111V70.442
	c0-1.08,0.168-2.121,0.465-3.108c-2.619-0.937-4.488-3.358-4.488-6.208c0-3.66,3.079-6.626,6.879-6.626
	c3.212,0,5.902,2.124,6.659,4.992c0.665-0.115,1.345-0.185,2.044-0.185h85.808c0.822-2.774,3.467-4.807,6.61-4.807
	c3.145,0,5.789,2.033,6.609,4.807h85.874c0.678,0,1.336,0.068,1.981,0.175c0.76-2.863,3.447-4.982,6.656-4.982
	c3.8,0,6.879,2.967,6.879,6.626c0,2.827-1.841,5.234-4.428,6.186c0.302,0.994,0.471,2.043,0.471,3.13v100.113
	c0,1.089-0.169,2.138-0.472,3.132C228.659,174.64,230.5,177.046,230.5,179.874z M159.729,123.29c1.484,0,2.688-1.203,2.688-2.688
	s-1.203-2.688-2.688-2.688s-2.688,1.203-2.688,2.688S158.244,123.29,159.729,123.29z M167.159,126.074
	c0-1.485,1.203-2.688,2.688-2.688s2.688,1.202,2.688,2.688c0,1.483-1.203,2.687-2.688,2.687S167.159,127.558,167.159,126.074z
	 M176.495,120.514c0-1.485,1.203-2.688,2.688-2.688s2.688,1.202,2.688,2.688c0,1.484-1.203,2.688-2.688,2.688
	S176.495,121.998,176.495,120.514z M167.159,114.633c0-1.485,1.203-2.688,2.688-2.688s2.688,1.202,2.688,2.688
	c0,1.484-1.203,2.687-2.688,2.687S167.159,116.117,167.159,114.633z M176.495,130.625c0-1.486,1.203-2.688,2.688-2.688
	s2.688,1.201,2.688,2.688c0,1.483-1.203,2.686-2.688,2.686S176.495,132.108,176.495,130.625z M176.495,110.403
	c0-1.485,1.203-2.688,2.688-2.688s2.688,1.203,2.688,2.688c0,1.484-1.203,2.687-2.688,2.687S176.495,111.887,176.495,110.403z
	 M185.939,126.074c0-1.485,1.203-2.688,2.688-2.688s2.688,1.202,2.688,2.688c0,1.483-1.203,2.687-2.688,2.687
	S185.939,127.558,185.939,126.074z M185.939,114.633c0-1.485,1.203-2.688,2.688-2.688s2.688,1.202,2.688,2.688
	c0,1.484-1.203,2.687-2.688,2.687S185.939,116.117,185.939,114.633z M185.939,103.492c0-1.485,1.203-2.688,2.688-2.688
	s2.688,1.202,2.688,2.688c0,1.484-1.203,2.687-2.688,2.687S185.939,104.977,185.939,103.492z M185.939,137.508
	c0-1.484,1.203-2.688,2.688-2.688s2.688,1.203,2.688,2.688s-1.203,2.688-2.688,2.688S185.939,138.992,185.939,137.508z
	 M50.281,123.201l106.76-35.569"/>
</svg>
