<?xml version="1.0" encoding="utf-8"?>
<!-- Generator: Adobe Illustrator 16.0.0, SVG Export Plug-In . SVG Version: 6.00 Build 0)  -->
<!DOCTYPE svg PUBLIC "-//W3C//DTD SVG 1.1//EN" "http://www.w3.org/Graphics/SVG/1.1/DTD/svg11.dtd">
<svg version="1.1" id="Layer_2" xmlns="http://www.w3.org/2000/svg" xmlns:xlink="http://www.w3.org/1999/xlink" x="0px" y="0px"
	 width="240px" height="240px" viewBox="0 0 240 240" enable-background="new 0 0 240 240" xml:space="preserve">
<path d="M120,53.939c7.176,0,12.993,5.817,12.993,12.992c0,7.175-5.816,12.992-12.993,12.992c-7.175,0-12.991-5.817-12.991-12.992
	C107.008,59.756,112.824,53.939,120,53.939z M103.705,109.43c7.266,0,12.992-5.946,12.992-13.212s-5.945-12.992-12.992-12.992
	c-7.267,0-13.212,5.945-13.212,12.992C90.713,103.484,96.438,109.43,103.705,109.43z M123.082,96.218
	c0,7.267,5.945,13.212,12.992,13.212c7.268,0,13.213-5.946,13.213-13.212s-5.945-12.992-13.213-12.992
	C129.027,83.226,123.082,88.951,123.082,96.218z M88.511,112.072c7.175,0,12.992,5.818,12.992,12.992
	c0,7.176-5.817,12.992-12.992,12.992s-12.992-5.816-12.992-12.992C75.519,117.89,81.335,112.072,88.511,112.072z M120,112.072
	c7.176,0,12.993,5.818,12.993,12.992c0,7.176-5.816,12.992-12.993,12.992c-7.175,0-12.991-5.816-12.991-12.992
	C107.008,117.89,112.824,112.072,120,112.072z M151.488,112.072c7.176,0,12.992,5.818,12.992,12.992
	c0,7.176-5.816,12.992-12.992,12.992c-7.174,0-12.992-5.816-12.992-12.992C138.496,117.89,144.314,112.072,151.488,112.072z
	 M70.674,140.699c7.176,0,12.992,5.816,12.992,12.992c0,7.174-5.816,12.992-12.992,12.992c-7.175,0-12.992-5.818-12.992-12.992
	C57.683,146.516,63.5,140.699,70.674,140.699z M103.485,140.699c7.174,0,12.992,5.816,12.992,12.992
	c0,7.174-5.818,12.992-12.992,12.992c-7.176,0-12.992-5.818-12.992-12.992C90.493,146.516,96.309,140.699,103.485,140.699z
	 M149.508,153.691c0-7.268-5.947-12.992-13.213-12.992c-7.268,0-12.992,5.945-12.992,12.992c0,7.045,5.945,12.992,12.992,12.992
	C143.561,166.684,149.508,160.736,149.508,153.691z M169.326,140.699c7.174,0,12.99,5.816,12.99,12.992
	c0,7.174-5.816,12.992-12.99,12.992c-7.176,0-12.992-5.818-12.992-12.992C156.334,146.516,162.15,140.699,169.326,140.699z
	 M56.802,167.123c-7.267,0-12.992,5.945-12.992,12.992c0,7.266,5.945,13.213,12.992,13.213c7.267,0,12.992-5.947,12.992-13.213
	C69.794,173.068,63.849,167.123,56.802,167.123z M88.291,167.123c-7.267,0-12.992,5.945-12.992,12.992
	c0,7.266,5.945,13.213,12.992,13.213c7.266,0,13.212-5.947,13.212-13.213C101.503,173.068,95.557,167.123,88.291,167.123z
	 M120,167.123c-7.267,0-13.212,5.945-13.212,12.992c0,7.266,5.945,13.213,13.212,13.213c7.268,0,12.993-5.947,12.993-13.213
	C132.992,173.068,127.268,167.123,120,167.123z M151.709,167.123c-7.266,0-12.992,5.945-12.992,12.992
	c0,7.266,5.945,13.213,12.992,13.213c7.266,0,12.992-5.947,12.992-13.213C164.701,173.068,158.975,167.123,151.709,167.123z
	 M183.197,167.123c-7.266,0-12.992,5.945-12.992,12.992c0,7.266,5.947,13.213,12.992,13.213c7.268,0,13.213-5.947,13.213-13.213
	C196.41,173.068,190.465,167.123,183.197,167.123z M216.889,177.691l-0.221-0.439l-0.221-0.221l-77.07-136.745l-0.219-0.44
	l-0.221-0.441c-4.184-6.166-11.451-9.909-18.938-9.909c-7.707,0-14.974,3.964-19.157,10.35l-0.22,0.22l-0.22,0.22L23.111,176.812
	l0.22,0.439l-0.22,0.439c-1.542,3.084-2.202,6.387-2.202,9.91c0,12.553,10.35,22.902,22.901,22.902h152.38
	c12.551,0,22.902-10.35,22.902-22.902C219.092,184.078,218.43,180.775,216.889,177.691z M196.189,200.594H43.81
	c-7.267,0-13.212-5.945-13.212-13.213c0-1.98,0.44-3.963,1.321-5.725l77.291-136.525c2.423-3.523,6.387-5.946,11.011-5.946
	c4.403,0,8.368,2.203,10.79,5.726l77.07,136.746c0.881,1.762,1.322,3.523,1.322,5.725
	C209.182,194.648,203.457,200.594,196.189,200.594z"/>
</svg>
